<svg width="440" height="500" viewBox="0 0 440 500" fill="none" xmlns="http://www.w3.org/2000/svg">
<path d="M136.27 35.3401H132.02V54.3701H136.27V35.3401Z" fill="#E0E0E0"/>
<path d="M124.63 42.73V46.98H143.66V42.73H124.63Z" fill="#E0E0E0"/>
<path d="M240.09 129.08H233.58V158.26H240.09V129.08Z" fill="#E0E0E0"/>
<path d="M222.24 140.42V146.93H251.42V140.42H222.24Z" fill="#E0E0E0"/>
<path d="M318.149 44.1301H313.899V63.1601H318.149V44.1301Z" fill="#E0E0E0"/>
<path d="M306.5 51.51V55.76H325.53V51.51H306.5Z" fill="#E0E0E0"/>
<path d="M415.52 79.3H409.01V108.48H415.52V79.3Z" fill="#E0E0E0"/>
<path d="M397.67 90.6302V97.1401H426.85V90.6302H397.67Z" fill="#E0E0E0"/>
<path d="M448.23 221.2H316.02V465.77H448.23V221.2Z" fill="#F5F5F5"/>
<path d="M433.079 457.65H439.649V318.8H433.079V457.65Z" fill="#E0E0E0"/>
<path d="M421.3 457.65H427.87V318.8H421.3V457.65Z" fill="#E0E0E0"/>
<path d="M409.51 457.65H416.08V318.8H409.51V457.65Z" fill="#E0E0E0"/>
<path d="M397.71 457.65H404.28V318.8H397.71V457.65Z" fill="#E0E0E0"/>
<path d="M386.499 457.65H393.069V318.8H386.499V457.65Z" fill="#E0E0E0"/>
<path d="M374.96 457.65H381.53V318.8H374.96V457.65Z" fill="#E0E0E0"/>
<path d="M363.18 457.65H369.75V318.8H363.18V457.65Z" fill="#E0E0E0"/>
<path d="M350.659 457.65H357.229V318.8H350.659V457.65Z" fill="#E0E0E0"/>
<path d="M338.869 457.65H345.439V318.8H338.869V457.65Z" fill="#E0E0E0"/>
<path d="M327.39 457.65H333.96V318.8H327.39V457.65Z" fill="#E0E0E0"/>
<path d="M432.67 310.46H439.24V237.27H432.67V310.46Z" fill="#E0E0E0"/>
<path d="M420.88 310.46H427.45V237.27H420.88V310.46Z" fill="#E0E0E0"/>
<path d="M409.09 310.46H415.66V237.27H409.09V310.46Z" fill="#E0E0E0"/>
<path d="M397.31 310.46H403.88V237.27H397.31V310.46Z" fill="#E0E0E0"/>
<path d="M386.1 310.46H392.67V237.27H386.1V310.46Z" fill="#E0E0E0"/>
<path d="M374.55 310.46H381.12V237.27H374.55V310.46Z" fill="#E0E0E0"/>
<path d="M362.76 310.46H369.33V237.27H362.76V310.46Z" fill="#E0E0E0"/>
<path d="M349.56 310.46H356.13V237.27H349.56V310.46Z" fill="#E0E0E0"/>
<path d="M337.77 310.46H344.34V237.27H337.77V310.46Z" fill="#E0E0E0"/>
<path d="M326.59 310.46H333.16V237.27H326.59V310.46Z" fill="#E0E0E0"/>
<path d="M312.539 288.61H219.069V465.77H312.539V288.61Z" fill="#F5F5F5"/>
<path d="M297.39 457.65H303.96V318.8H297.39V457.65Z" fill="#E0E0E0"/>
<path d="M285.59 457.65H292.16V318.8H285.59V457.65Z" fill="#E0E0E0"/>
<path d="M273.81 457.65H280.38V318.8H273.81V457.65Z" fill="#E0E0E0"/>
<path d="M262.02 457.65H268.59V318.8H262.02V457.65Z" fill="#E0E0E0"/>
<path d="M250.81 457.65H257.38V318.8H250.81L250.81 457.65Z" fill="#E0E0E0"/>
<path d="M239.27 457.65H245.84L245.84 318.8H239.27L239.27 457.65Z" fill="#E0E0E0"/>
<path d="M227.47 457.65H234.04L234.04 318.8H227.47L227.47 457.65Z" fill="#E0E0E0"/>
<path d="M296.98 310.46H303.55V297.33H296.98V310.46Z" fill="#E0E0E0"/>
<path d="M285.19 310.46H291.76V297.33H285.19V310.46Z" fill="#E0E0E0"/>
<path d="M273.39 310.46H279.96V297.33H273.39V310.46Z" fill="#E0E0E0"/>
<path d="M261.6 310.46H268.17V297.33H261.6V310.46Z" fill="#E0E0E0"/>
<path d="M250.4 310.46H256.97V297.33H250.4V310.46Z" fill="#E0E0E0"/>
<path d="M238.86 310.46H245.43V297.33H238.86V310.46Z" fill="#E0E0E0"/>
<path d="M227.07 310.46H233.64V297.33H227.07V310.46Z" fill="#E0E0E0"/>
<path d="M316.26 466.93C316.12 466.93 316 412.03 316 344.33C316 276.63 316.12 221.71 316.26 221.71C316.4 221.71 316.52 276.6 316.52 344.33C316.52 412.06 316.41 466.93 316.26 466.93Z" fill="#E0E0E0"/>
<path d="M435.959 143.67H335.649V221.71H435.959V143.67Z" fill="#F5F5F5"/>
<path d="M360.02 210.65H366.59V160.21H360.02V210.65Z" fill="#E0E0E0"/>
<path d="M348.24 210.65H354.81V160.21H348.24V210.65Z" fill="#E0E0E0"/>
<path d="M384.5 210.65H391.07V160.21H384.5V210.65Z" fill="#E0E0E0"/>
<path d="M372.71 210.65H379.28V160.21H372.71V210.65Z" fill="#E0E0E0"/>
<path d="M408.97 210.65H415.54V160.21H408.97V210.65Z" fill="#E0E0E0"/>
<path d="M397.18 210.65H403.75V160.21H397.18V210.65Z" fill="#E0E0E0"/>
<path d="M421.67 210.65H428.24V160.21H421.67V210.65Z" fill="#E0E0E0"/>
<path d="M183.74 306.9H90.2695V466.35H183.74V306.9Z" fill="#F5F5F5"/>
<path d="M105.42 349.98H98.8496V459.93H105.42V349.98Z" fill="#E0E0E0"/>
<path d="M117.21 349.98H110.64V459.93H117.21V349.98Z" fill="#E0E0E0"/>
<path d="M129 349.98H122.43V459.93H129V349.98Z" fill="#E0E0E0"/>
<path d="M140.79 349.98H134.22V459.93H140.79V349.98Z" fill="#E0E0E0"/>
<path d="M152 349.98H145.43V459.93H152V349.98Z" fill="#E0E0E0"/>
<path d="M163.54 349.98H156.97V459.93H163.54V349.98Z" fill="#E0E0E0"/>
<path d="M175.33 349.98H168.76V459.93H175.33V349.98Z" fill="#E0E0E0"/>
<path d="M105.83 316.85H99.2598V343.37H105.83V316.85Z" fill="#E0E0E0"/>
<path d="M117.62 316.85H111.05V343.37H117.62V316.85Z" fill="#E0E0E0"/>
<path d="M129.41 316.85H122.84V343.37H129.41V316.85Z" fill="#E0E0E0"/>
<path d="M141.2 316.85H134.63V343.37H141.2V316.85Z" fill="#E0E0E0"/>
<path d="M152.41 316.85H145.84V343.37H152.41V316.85Z" fill="#E0E0E0"/>
<path d="M163.95 316.85H157.38V343.37H163.95V316.85Z" fill="#E0E0E0"/>
<path d="M175.74 316.85H169.17V343.37H175.74V316.85Z" fill="#E0E0E0"/>
<path d="M95.2398 162.16H-4.4502V466.35H95.2398V162.16Z" fill="#F5F5F5"/>
<path d="M58.9802 71.6201H34.4902V76.2001H58.9802V71.6201Z" fill="#F5F5F5"/>
<path d="M48.5396 35.3401H44.6396V72.9601H48.5396V35.3401Z" fill="#F5F5F5"/>
<path d="M81.3196 76.2002H12.1396V163.65H81.3196V76.2002Z" fill="#F5F5F5"/>
<path d="M27.6298 86.97H20.7598V157.63H27.6298V86.97Z" fill="#E0E0E0"/>
<path d="M39.9501 86.97H33.0801V157.63H39.9501V86.97Z" fill="#E0E0E0"/>
<path d="M52.2802 86.97H45.4102V157.63H52.2802V86.97Z" fill="#E0E0E0"/>
<path d="M64.5995 86.97H57.7295V157.63H64.5995V86.97Z" fill="#E0E0E0"/>
<path d="M76.3202 86.97H69.4502V157.63H76.3202V86.97Z" fill="#E0E0E0"/>
<path d="M11.7102 174.64H4.7002V454.09H11.7102V174.64Z" fill="#E0E0E0"/>
<path d="M24.2903 174.64H17.2803V454.09H24.2903V174.64Z" fill="#E0E0E0"/>
<path d="M36.8596 174.64H29.8496V454.09H36.8596V174.64Z" fill="#E0E0E0"/>
<path d="M49.4299 174.64H42.4199V454.09H49.4299V174.64Z" fill="#E0E0E0"/>
<path d="M61.3899 174.64H54.3799V454.09H61.3899V174.64Z" fill="#E0E0E0"/>
<path d="M73.6994 174.64H66.6895V454.09H73.6994V174.64Z" fill="#E0E0E0"/>
<path d="M86.2698 174.64H79.2598V454.09H86.2698V174.64Z" fill="#E0E0E0"/>
<path d="M451.18 467.28C451.18 467.42 347.18 467.54 219.01 467.54C90.8398 467.54 -13.1802 467.42 -13.1802 467.28C-13.1802 467.14 90.7598 467 219 467C347.24 467 451.18 467.14 451.18 467.28Z" fill="#263238"/>
<path d="M308.31 113.59L298.85 115.28C294.099 120.646 287.512 124.041 280.385 124.797C273.257 125.553 266.105 123.616 260.333 119.367C254.562 115.117 250.588 108.862 249.194 101.832C247.8 94.8016 249.086 87.504 252.799 81.3735C256.512 75.243 262.384 70.7231 269.26 68.7021C276.137 66.6811 283.52 67.3053 289.96 70.4519C296.4 73.5985 301.429 79.04 304.061 85.7068C306.692 92.3736 306.735 99.7835 304.18 106.48L308.31 113.59Z" fill="white"/>
<path d="M308.31 113.59C308.31 113.59 308.2 113.43 308.01 113.12L307.2 111.75L304.09 106.52H304.26C304.24 106.539 304.213 106.55 304.185 106.55C304.157 106.55 304.13 106.539 304.11 106.52C304.096 106.501 304.089 106.478 304.089 106.455C304.089 106.432 304.096 106.409 304.11 106.39C305.759 101.989 306.305 97.2509 305.7 92.5901C305.507 91.1248 305.2 89.6771 304.78 88.2601C304.301 86.7563 303.706 85.2919 303 83.8801C301.489 80.7371 299.407 77.9024 296.86 75.5201C293.928 72.7855 290.455 70.6961 286.666 69.3871C282.877 68.078 278.855 67.5782 274.86 67.9201C270.441 68.3582 266.181 69.8054 262.41 72.1501C258.448 74.6066 255.164 78.0172 252.86 82.0701C249.369 88.1741 248.26 95.3542 249.748 102.227C251.235 109.1 255.213 115.179 260.916 119.293C266.618 123.407 273.642 125.266 280.633 124.51C287.624 123.754 294.088 120.438 298.78 115.2C298.78 115.2 298.78 115.2 298.84 115.2L305.84 114.03L307.67 113.73L308.31 113.63L307.72 113.76L305.94 114.1L298.87 115.43H298.94C295.79 119.032 291.783 121.783 287.29 123.43C281.715 125.473 275.645 125.747 269.909 124.215C264.172 122.683 259.047 119.42 255.233 114.869C251.418 110.319 249.1 104.703 248.593 98.7874C248.086 92.8714 249.415 86.943 252.4 81.8101L253.33 80.2601C253.67 79.7701 254.03 79.2601 254.38 78.8101C255.095 77.8607 255.863 76.9526 256.68 76.0901C257.07 75.6501 257.54 75.2801 257.96 74.8801C258.376 74.4669 258.817 74.0795 259.28 73.7201C260.185 72.992 261.137 72.3239 262.13 71.7201C265.969 69.3375 270.304 67.8697 274.8 67.4301C278.866 67.088 282.959 67.6048 286.813 68.9468C290.667 70.2889 294.196 72.4262 297.17 75.2201C299.742 77.6454 301.841 80.5277 303.36 83.7201C304.059 85.1712 304.641 86.676 305.1 88.2201C305.518 89.6566 305.819 91.1248 306 92.6101C306.586 97.3217 305.991 102.105 304.27 106.53L304.09 106.43C304.111 106.413 304.138 106.404 304.165 106.404C304.192 106.404 304.219 106.413 304.24 106.43L307.24 111.8L308.01 113.16L308.31 113.59Z" fill="#263238"/>
<path d="M277.06 107.99L263 98.59L266.28 93.69L275.71 99.99L287.43 84.47L292.14 88.03L277.06 107.99Z" fill="#4EB3E2"/>
<path d="M145.59 110.82L150.3 101.55C148.357 96.3012 147.852 90.6288 148.837 85.1193C149.821 79.6099 152.259 74.4634 155.899 70.2119C159.539 65.9604 164.248 62.7583 169.54 60.9366C174.832 59.1149 180.514 58.7398 186 59.85C190.904 60.8307 195.502 62.9674 199.415 66.0825C203.327 69.1977 206.439 73.2013 208.493 77.7609C210.547 82.3204 211.483 87.3043 211.224 92.2984C210.965 97.2925 209.518 102.153 207.003 106.475C204.488 110.798 200.978 114.458 196.765 117.151C192.551 119.845 187.756 121.494 182.777 121.962C177.798 122.43 172.779 121.703 168.138 119.842C163.496 117.98 159.366 115.038 156.09 111.26L145.59 110.82Z" fill="white"/>
<path d="M145.59 110.82H146.29L148.29 110.88L156.05 111.14L155.95 111.3C155.934 111.275 155.929 111.244 155.935 111.215C155.942 111.186 155.96 111.161 155.985 111.145C156.01 111.129 156.041 111.124 156.07 111.13C156.099 111.137 156.124 111.155 156.14 111.18C159.588 115.108 163.959 118.115 168.86 119.93C170.378 120.499 171.94 120.944 173.53 121.26C175.237 121.579 176.965 121.773 178.7 121.84C183.025 122.009 187.338 121.273 191.363 119.681C195.389 118.089 199.038 115.675 202.077 112.593C205.117 109.511 207.48 105.829 209.017 101.782C210.553 97.7353 211.228 93.4125 211 89.0899C210.95 88.4799 210.95 87.8599 210.88 87.2499C210.81 86.6399 210.69 86.0299 210.59 85.4199L210.45 84.4999C210.39 84.1999 210.3 83.8999 210.23 83.5999L209.76 81.7799C209.6 81.1799 209.34 80.5999 209.14 80.0099C208.944 79.4116 208.718 78.8241 208.46 78.2499C207.944 77.0893 207.36 75.9606 206.71 74.8699C206.37 74.3299 206.07 73.7699 205.71 73.2399L204.58 71.7099L204 70.9999L203.37 70.2999L202.11 68.8899C200.357 67.1325 198.407 65.5823 196.3 64.2699C192.213 61.7439 187.608 60.1748 182.83 59.6799C178.493 59.2754 174.12 59.7778 169.988 61.1551C165.856 62.5324 162.056 64.7544 158.83 67.6799C156.009 70.2344 153.68 73.2849 151.96 76.6799C151.59 77.4899 151.13 78.2599 150.85 79.0799L149.97 81.4899C149.519 83.0478 149.158 84.6304 148.89 86.2299C148.114 91.3997 148.65 96.6816 150.45 101.59C150.46 101.619 150.46 101.651 150.45 101.68C148.9 104.68 147.71 106.94 146.9 108.51L145.97 110.28C145.76 110.68 145.64 110.89 145.64 110.89L145.92 110.31C146.12 109.89 146.41 109.31 146.79 108.54L150.25 101.54V101.63C148.387 96.6958 147.805 91.3698 148.56 86.1499C148.821 84.531 149.175 82.9283 149.62 81.3499L150.51 78.9099C150.833 78.0776 151.2 77.2631 151.61 76.4699C153.342 73.0256 155.691 69.9279 158.54 67.3299C164.615 61.8224 172.582 58.872 180.779 59.0937C188.976 59.3154 196.771 62.6921 202.54 68.5199L203.82 69.9499L204.47 70.6599L205.04 71.4299L206.1 72.9999C206.46 73.5299 206.78 74.0999 207.1 74.6599C207.766 75.7345 208.364 76.85 208.89 77.9999C209.19 78.5699 209.35 79.1999 209.59 79.7899C209.83 80.3799 210.06 80.9799 210.22 81.5899L210.69 83.4399C210.76 83.7399 210.86 84.0499 210.92 84.3599L211.06 85.2899C211.16 85.9099 211.25 86.5299 211.35 87.1499C211.45 87.7699 211.43 88.3999 211.47 89.0199C211.697 93.4021 211.008 97.7836 209.447 101.885C207.886 105.986 205.487 109.716 202.404 112.839C199.32 115.961 195.62 118.406 191.538 120.017C187.457 121.629 183.085 122.373 178.7 122.2C176.943 122.134 175.195 121.93 173.47 121.59C166.67 120.201 160.525 116.592 156 111.33L156.18 111.21C156.197 111.231 156.206 111.258 156.206 111.285C156.206 111.312 156.197 111.339 156.18 111.36H156.12L148.29 110.95L146.29 110.84L145.59 110.82Z" fill="#263238"/>
<path d="M181.05 105.58H165.68V74.25H181.05V105.58ZM166.68 104.58H180.05V75.25H166.68V104.58Z" fill="#263238"/>
<path d="M172.2 78.8699H169.04V82.6899H172.2V78.8699Z" fill="#263238"/>
<path d="M177.69 78.8699H174.53V82.6899H177.69V78.8699Z" fill="#263238"/>
<path d="M172.2 84.8298H169.04V88.6498H172.2V84.8298Z" fill="#263238"/>
<path d="M177.69 84.8298H174.53V88.6498H177.69V84.8298Z" fill="#263238"/>
<path d="M172.2 90.7998H169.04V94.6198H172.2V90.7998Z" fill="#263238"/>
<path d="M177.69 90.7998H174.53V94.6198H177.69V90.7998Z" fill="#263238"/>
<path d="M172.2 96.95H169.04V100.77H172.2V96.95Z" fill="#263238"/>
<path d="M177.69 96.95H174.53V100.77H177.69V96.95Z" fill="#263238"/>
<path d="M186.34 93.51H183.18V97.33H186.34V93.51Z" fill="#263238"/>
<path d="M191.83 93.51H188.67V97.33H191.83V93.51Z" fill="#263238"/>
<path d="M186.34 98.8599H183.18V102.68H186.34V98.8599Z" fill="#263238"/>
<path d="M191.83 98.8599H188.67V102.68H191.83V98.8599Z" fill="#263238"/>
<path d="M195 105.58H180V90H195V105.58ZM181 104.58H194V91H181V104.58Z" fill="#263238"/>
<path d="M192.19 77.95H185.14V87.98H192.19V77.95Z" fill="#455A64"/>
<path d="M188.66 79.6599H183.63L186.15 76.4999L188.66 73.3499L191.18 76.4999L193.7 79.6599H188.66Z" fill="#455A64"/>
<path d="M349.62 453.72V454.86C349.62 454.86 330.49 462.75 330.32 466.4L368.44 465.84L367.74 453.16C364.937 454.548 361.868 455.317 358.741 455.414C355.615 455.51 352.504 454.933 349.62 453.72Z" fill="#263238"/>
<path d="M368.451 465.84L368.281 462.84L331.811 464.49C331.811 464.49 330.121 465.25 330.331 466.49L368.451 465.84Z" fill="#455A64"/>
<path d="M349.501 455C349.501 455.18 350.441 455.25 351.361 455.84C352.281 456.43 352.781 457.2 352.951 457.12C353.121 457.04 352.831 455.97 351.701 455.29C350.571 454.61 349.451 454.8 349.501 455Z" fill="white"/>
<path d="M345.521 456.68C345.521 456.86 346.291 457.16 346.941 457.94C347.591 458.72 347.771 459.55 347.941 459.54C348.111 459.53 348.231 458.47 347.411 457.54C346.591 456.61 345.521 456.5 345.521 456.68Z" fill="white"/>
<path d="M343.32 461.5C343.49 461.5 343.74 460.6 343.24 459.59C342.74 458.58 341.87 458.18 341.8 458.34C341.73 458.5 342.27 459.03 342.66 459.87C343.05 460.71 343.14 461.48 343.32 461.5Z" fill="white"/>
<path d="M376.881 442.23L360.651 446.77L364.701 455.97L360.491 479.26C360.375 479.899 360.498 480.558 360.838 481.111C361.177 481.665 361.709 482.074 362.331 482.26C362.814 482.396 363.326 482.395 363.808 482.255C364.291 482.115 364.725 481.843 365.061 481.47C368.641 477.47 381.741 462.61 381.431 460.8L380.911 455.96C380.801 454.96 379.831 452.57 379.831 452.35L376.881 442.23Z" fill="#263238"/>
<path d="M362.811 482.38L381.281 459.14L381.371 460.2C381.436 460.635 381.403 461.08 381.273 461.5C381.143 461.921 380.92 462.307 380.621 462.63C379.171 464.97 375.051 470.28 365.131 481.5C364.843 481.822 364.482 482.07 364.078 482.223C363.674 482.377 363.239 482.43 362.811 482.38Z" fill="#455A64"/>
<path d="M367.68 470.92C366.988 470.19 366.164 469.6 365.25 469.18C364.276 468.904 363.259 468.809 362.25 468.9C362.25 468.84 362.53 468.61 363.13 468.48C363.908 468.319 364.716 468.381 365.46 468.66C366.203 468.93 366.853 469.409 367.33 470.04C367.66 470.52 367.74 470.89 367.68 470.92Z" fill="white"/>
<path d="M366.15 474.43C365.378 474.094 364.586 473.804 363.78 473.56C362.939 473.487 362.094 473.46 361.25 473.48C361.625 473.202 362.061 473.016 362.521 472.936C362.981 472.856 363.453 472.885 363.9 473.02C365.45 473.32 366.28 474.35 366.15 474.43Z" fill="white"/>
<path d="M370.69 466.31C369.541 465.7 368.348 465.175 367.12 464.74C365.838 464.475 364.538 464.301 363.23 464.22C364.525 463.763 365.936 463.763 367.23 464.22C368.596 464.484 369.822 465.224 370.69 466.31Z" fill="white"/>
<path d="M364.51 452.81C364.672 453.845 364.736 454.893 364.7 455.94C364.5 457.29 364.21 459.02 363.89 460.89C363.5 463.1 363.12 465.1 362.82 466.55C362.706 467.341 362.512 468.118 362.24 468.87C362.243 468.07 362.327 467.273 362.49 466.49C362.7 465.03 363.02 463.02 363.41 460.8C363.74 458.93 364.06 457.21 364.33 455.88C364.307 454.854 364.367 453.827 364.51 452.81Z" fill="#455A64"/>
<path d="M387.601 302.88C388.881 296.71 392.121 285.55 390.851 280.41C387.851 268.5 382.701 261.61 375.611 246.49H370.341L319.761 245.61L315.621 254.79C311.021 267.16 307.881 274.54 306.621 283.59C305.131 294.01 307.741 309.11 313.541 324.36C326.041 357.27 333.021 383.59 333.541 390.68C334.061 397.77 334.771 405.09 341.351 427.54C346.141 443.93 349.691 453.72 349.691 453.72C354.691 456.54 359.961 457.3 364.771 454.56L379.451 448.9C379.451 448.9 374.951 410.25 369.701 399.99C365.921 392.61 359.701 389.11 362.621 379.49C365.541 369.87 383.681 321.83 387.601 302.88Z" fill="#263238"/>
<path d="M328.4 271.67C328.475 271.751 328.542 271.838 328.6 271.93L329.16 272.7L331.3 275.75L339.3 287.28V287.33V287.38C338.91 291.7 338.76 296.71 338.49 302.3C338.22 307.89 337.93 314.03 337.62 320.63C337.31 327.23 336.9 334.29 336.52 341.68C336.14 349.07 335.7 356.81 334.96 364.76C334.19 371.37 333.51 377.87 334.07 384.11C334.22 385.67 334.41 387.21 334.7 388.72C334.956 390.215 335.324 391.69 335.8 393.13C336.8 395.93 338.06 398.65 339.21 401.29C343.88 411.86 348.21 421.29 351.89 429.24L360.61 448L362.96 453.12C363.21 453.69 363.41 454.12 363.56 454.45C363.71 454.78 363.75 454.91 363.75 454.91C363.75 454.91 363.66 454.77 363.51 454.47L362.87 453.16C362.3 451.98 361.49 450.27 360.44 448.09L351.63 429.36C347.95 421.44 343.54 412.01 338.85 401.45C337.69 398.8 336.47 396.12 335.4 393.26C334.919 391.8 334.548 390.306 334.29 388.79C333.99 387.26 333.79 385.71 333.64 384.14C333.07 377.83 333.75 371.29 334.52 364.68C335.26 356.77 335.64 349.02 336.09 341.68C336.54 334.34 336.88 327.23 337.23 320.63C337.58 314.03 337.88 307.88 338.17 302.3C338.46 296.72 338.64 291.7 339.06 287.38V287.47C335.68 282.47 333 278.56 331.15 275.86L329.07 272.77L328.55 271.97C328.489 271.876 328.439 271.775 328.4 271.67Z" fill="#455A64"/>
<path d="M335.14 163.62L338.25 155.77L356.76 154.77L364.32 155.77L365.15 157.95L370.28 248.73C370.28 248.73 352.35 252.35 343.39 251.09C334.43 249.83 323.88 245.74 323.88 245.74V194.11L335.14 163.62Z" fill="#F5F5F5"/>
<path d="M363 167.31C363 167.31 363 167.37 362.87 167.47L362.47 167.92C362.12 168.31 361.59 168.92 360.89 169.56C358.982 171.454 356.958 173.227 354.83 174.87L354.74 174.94L354.67 174.85C352.668 172.656 350.811 170.335 349.11 167.9C348.92 167.63 348.74 167.35 348.56 167.1H348.79C347.2 169.23 345.7 171.25 344.34 173.1C344.165 173.336 343.956 173.545 343.72 173.72C343.6 173.815 343.462 173.886 343.315 173.927C343.167 173.968 343.013 173.979 342.86 173.96C342.577 173.898 342.319 173.752 342.12 173.54C341.92 173.34 341.77 173.13 341.61 172.94L339.85 170.74L337.33 167.55L336.66 166.68C336.579 166.582 336.506 166.479 336.44 166.37L336.7 166.65L337.41 167.49L340 170.62L341.78 172.8C342.1 173.18 342.42 173.64 342.9 173.72C343.38 173.8 343.81 173.38 344.14 172.95L348.57 166.95L348.68 166.79L348.79 166.95L349.33 167.74C351.029 170.165 352.873 172.486 354.85 174.69H354.68C356.813 173.069 358.853 171.33 360.79 169.48C361.5 168.8 362.04 168.26 362.42 167.89L362.85 167.47C362.894 167.411 362.944 167.357 363 167.31Z" fill="#263238"/>
<g opacity="0.3">
<path d="M341.851 173.07C341.851 173.07 344.201 175.96 344.851 175.23C345.501 174.5 348.991 169.12 349.401 168.9C349.811 168.68 354.021 176.22 355.671 175.7C357.321 175.18 363.201 169.29 363.201 169.29L363.311 166.98L354.751 174.77L348.681 167L343.561 173.65C343.561 173.65 342.481 174.53 341.851 173.07Z" fill="black"/>
</g>
<path d="M345.791 251.64C345.766 251.357 345.766 251.073 345.791 250.79C345.791 250.19 345.791 249.37 345.871 248.35C345.961 246.19 346.081 243.14 346.231 239.35C346.551 231.78 346.981 221.35 347.381 209.78C347.781 198.21 348.071 187.78 348.281 180.2C348.381 176.45 348.471 173.4 348.531 171.2C348.571 170.18 348.601 169.37 348.621 168.77C348.62 168.485 348.644 168.201 348.691 167.92C348.715 168.203 348.715 168.487 348.691 168.77V171.21C348.691 173.38 348.641 176.43 348.601 180.21C348.491 187.78 348.251 198.21 347.861 209.8C347.471 221.39 346.971 231.8 346.561 239.37C346.341 243.11 346.161 246.16 346.031 248.37C345.961 249.37 345.901 250.2 345.851 250.81C345.849 251.088 345.829 251.365 345.791 251.64Z" fill="#263238"/>
<g opacity="0.3">
<path d="M329.481 215L319.761 278.81L320.511 285.72C321.361 286.72 323.071 286.37 323.931 285.41C324.709 284.368 325.173 283.126 325.271 281.83C329.001 259.76 331.001 237.32 329.481 215Z" fill="black"/>
</g>
<path d="M315.801 163.86C314.016 164.435 312.398 165.434 311.085 166.772C309.772 168.109 308.803 169.745 308.261 171.54L296.681 212.39L306.181 240.39L316.101 223.51L323.101 162.42L315.801 163.86Z" fill="#4EB3E2"/>
<path d="M329.18 161.24L318.18 163.39L315.1 221.78C315.1 222.5 315.82 233.78 315.82 233.78L296.82 276.2C301.06 283.76 312.52 287.31 320.6 289.2C320.6 289.2 328.78 231.2 329.31 218.42C329.84 205.64 338.05 155.95 338.05 155.95L329.18 161.24Z" fill="#4EB3E2"/>
<path d="M299.2 271.39L299.27 271.2L299.51 270.64L300.43 268.5C301.24 266.63 302.43 263.93 303.89 260.56L315.73 233.68V233.74C315.64 230.85 315.53 227.85 315.39 224.74C315.07 217.83 314.69 211.24 314.44 205.25C314.19 199.26 314.03 193.85 313.98 189.31C313.93 184.77 313.98 181.1 313.98 178.57C313.98 177.31 314.03 176.33 314.05 175.65C314.05 175.32 314.05 175.07 314.05 174.89C314.05 174.71 314.05 174.63 314.05 174.63C314.05 174.63 314.05 174.72 314.05 174.89V175.65C314.05 176.33 314.05 177.31 314.05 178.57C314.05 181.1 314.05 184.78 314.12 189.31C314.19 193.84 314.36 199.24 314.64 205.24C314.92 211.24 315.26 217.82 315.64 224.73C315.78 227.8 315.89 230.81 315.97 233.73V233.79L304.05 260.64C302.55 263.99 301.35 266.64 300.51 268.54C300.1 269.46 299.77 270.17 299.51 270.66C299.4 270.9 299.32 271.08 299.25 271.21C299.241 271.272 299.224 271.332 299.2 271.39Z" fill="#263238"/>
<path d="M328.79 212.08C328.79 212.08 328.79 212.03 328.74 211.94L328.64 211.53C328.55 211.15 328.43 210.63 328.28 209.96C327.99 208.59 327.59 206.6 327.21 204.11C326.83 201.62 326.47 198.67 326.21 195.36C325.95 192.05 325.69 188.42 325.51 184.6C325.45 183.17 325.38 181.77 325.32 180.4L325.23 178.4C325.23 178.07 325.23 177.74 325.23 177.4V176.9V176.65C325.23 176.65 325.23 176.57 325.23 176.52C325.23 176.47 325.23 176.52 325.23 176.43V176.37C325.23 176.37 325.35 176.32 325.37 176.37C325.39 176.42 325.44 176.37 325.47 176.45H325.28L328.22 174.39V174.61L325 173H324.91V172.91C325.39 171.1 325.97 169.48 326.47 168.06C326.97 166.64 327.47 165.4 327.84 164.39C328.21 163.38 328.55 162.6 328.77 162.06C328.88 161.81 328.97 161.61 329.03 161.45C329.09 161.29 329.13 161.25 329.13 161.25C329.116 161.326 329.093 161.4 329.06 161.47L328.84 162.09C328.63 162.65 328.34 163.44 327.96 164.44C327.58 165.44 327.14 166.69 326.65 168.12C326.16 169.55 325.6 171.12 325.13 172.97L325.07 172.84L328.27 174.31L328.47 174.4L328.29 174.53L325.36 176.59H325.17C325.17 176.59 325.27 176.52 325.26 176.52C325.268 176.524 325.276 176.527 325.285 176.527C325.294 176.527 325.303 176.524 325.31 176.52H325.36V176.89V177.38L325.41 178.38C325.41 179.04 325.47 179.72 325.5 180.38C325.56 181.75 325.63 183.15 325.69 184.58C325.87 188.4 326.09 192.03 326.37 195.33C326.65 198.63 326.99 201.6 327.37 204.08C327.75 206.56 328.1 208.55 328.37 209.93C328.5 210.6 328.61 211.13 328.68 211.51C328.68 211.68 328.74 211.82 328.76 211.92C328.78 212.02 328.79 212.08 328.79 212.08Z" fill="#263238"/>
<path d="M383.261 239.07L390.261 168.42L370.591 161.21C370.591 161.21 365.981 156.97 363.531 154.78L362.661 165.86C362.661 165.86 360.001 211.21 364.191 234.05C368.381 256.89 367.791 256.11 370.851 270.97C373.081 281.78 373.451 291.22 376.851 292.17C380.251 293.12 397.211 286.91 397.211 286.91L383.261 239.07Z" fill="#4EB3E2"/>
<path d="M390.25 168.42C390.25 168.42 397.95 171.35 399.11 181.26C399.96 188.58 404.46 230.39 399.75 235.6C394.117 241.656 387.956 247.197 381.34 252.16L370.34 237.85L380.78 226.37L386.67 175.72L390.25 168.42Z" fill="#4EB3E2"/>
<path d="M368.42 209.65C368.416 209.603 368.416 209.556 368.42 209.51C368.42 209.41 368.42 209.28 368.49 209.12C368.564 208.76 368.664 208.26 368.79 207.62C369.03 206.32 369.39 204.43 369.72 202.08C370.42 197.38 371.02 190.85 371.36 183.61C371.44 181.903 371.52 180.237 371.6 178.61C371.6 177.8 371.67 177.01 371.71 176.23L371.77 175.08C371.77 174.89 371.77 174.7 371.77 174.51V174.24C371.776 174.197 371.776 174.153 371.77 174.11C371.796 174.118 371.824 174.118 371.85 174.11H371.93H371.75L368.82 172.04L368.65 171.93L368.84 171.84L372.04 170.37L371.98 170.49C371.699 169.202 371.482 167.9 371.33 166.59C371.18 165.43 371.04 164.44 370.88 163.64C370.72 162.84 370.55 162.22 370.43 161.8L370.27 161.33C370.27 161.23 370.22 161.17 370.27 161.17C370.297 161.218 370.321 161.268 370.34 161.32C370.34 161.43 370.45 161.58 370.52 161.78C370.732 162.377 370.903 162.989 371.03 163.61C371.21 164.42 371.37 165.41 371.54 166.56C371.705 167.864 371.936 169.159 372.23 170.44V170.52H372.15L369 172.09V171.89L371.94 173.94H371.75C371.779 173.915 371.813 173.898 371.85 173.89C371.883 173.882 371.918 173.882 371.95 173.89C371.95 173.89 371.95 173.95 371.95 173.98V174.42C371.95 174.61 371.95 174.8 371.95 174.99C371.95 175.37 371.95 175.75 371.9 176.14C371.9 176.92 371.83 177.71 371.8 178.52C371.72 180.13 371.65 181.8 371.57 183.52C371.314 189.709 370.736 195.881 369.84 202.01C369.48 204.36 369.09 206.24 368.84 207.54C368.69 208.17 368.58 208.67 368.49 209.03C368.45 209.19 368.42 209.32 368.4 209.42C368.44 209.61 368.43 209.65 368.42 209.65Z" fill="#263238"/>
<path d="M395.511 228.06C395.511 228.06 394.821 227.6 393.641 227.06C392.945 226.723 392.223 226.446 391.481 226.23C390.568 225.977 389.634 225.81 388.691 225.73C387.747 225.67 386.799 225.696 385.861 225.81C385.094 225.909 384.338 226.076 383.601 226.31C382.341 226.7 381.601 227.11 381.601 227.06C381.752 226.933 381.92 226.829 382.101 226.75C382.298 226.642 382.502 226.545 382.711 226.46C382.984 226.33 383.264 226.217 383.551 226.12C384.295 225.862 385.061 225.674 385.841 225.56C387.756 225.282 389.709 225.429 391.561 225.99C392.309 226.221 393.036 226.518 393.731 226.88C394 227.017 394.26 227.171 394.511 227.34C394.708 227.455 394.898 227.582 395.081 227.72C395.237 227.816 395.381 227.93 395.511 228.06Z" fill="#263238"/>
<g opacity="0.3">
<path d="M370.601 162.12C370.601 162.12 374.151 170.4 373.601 171.12C373.051 171.84 371.241 172.3 371.241 172.3C371.241 172.3 374.301 173.63 374.301 174.8C374.301 177.14 371.011 190.98 371.011 190.98L371.821 174.07L368.891 172.07L372.091 170.58L370.601 162.12Z" fill="black"/>
</g>
<path d="M384.76 185.43C384.786 185.622 384.786 185.817 384.76 186.01C384.76 186.44 384.7 187.01 384.66 187.66C384.55 189.17 384.39 191.22 384.2 193.73C383.75 198.92 383.15 205.96 382.48 213.73C382.25 216.15 382.04 218.5 381.83 220.73C381.723 221.85 381.603 222.94 381.47 224C381.372 225.036 381.191 226.063 380.93 227.07L373.3 235L371.14 237.16C370.899 237.433 370.631 237.681 370.34 237.9C370.547 237.602 370.781 237.324 371.04 237.07L373.1 234.81L380.54 226.9V226.98C380.775 225.993 380.939 224.99 381.03 223.98C381.15 222.93 381.26 221.84 381.37 220.72C381.57 218.48 381.78 216.13 382 213.72C382.73 205.95 383.39 198.91 383.87 193.72C384.13 191.21 384.35 189.16 384.5 187.66C384.58 187 384.65 186.45 384.7 186.02C384.695 185.822 384.715 185.623 384.76 185.43Z" fill="#263238"/>
<path d="M298.76 205.06L291.13 222.06L283.93 213.99L274.32 220.77L285.61 238.88C289.16 243.43 292.55 246.53 296.41 246.04C297.187 245.933 297.95 245.749 298.69 245.49C303.99 243.68 307.64 240.12 309.02 234.69L313.39 212.78L298.76 205.06Z" fill="#4EB3E2"/>
<path d="M299.55 235.42C299.484 235.183 299.434 234.943 299.4 234.7C299.32 234.24 299.18 233.57 298.99 232.75C298.8 231.93 298.54 230.97 298.2 229.91C297.86 228.85 297.43 227.71 296.92 226.54C296.41 225.37 295.84 224.28 295.3 223.31C294.76 222.34 294.21 221.5 293.74 220.81C293.27 220.12 292.86 219.56 292.58 219.19C292.424 219.003 292.281 218.806 292.15 218.6C292.33 218.765 292.494 218.945 292.64 219.14C292.95 219.5 293.37 220.04 293.86 220.72C294.35 221.4 294.86 222.25 295.47 223.21C296.074 224.261 296.625 225.343 297.12 226.45C297.63 227.63 298.05 228.79 298.39 229.85C298.73 230.91 298.97 231.85 299.14 232.72C299.31 233.59 299.42 234.22 299.48 234.72C299.524 234.951 299.548 235.185 299.55 235.42Z" fill="#263238"/>
<path d="M341.621 96.79L341.561 97.05C341.611 97 341.611 96.88 341.621 96.79Z" fill="#263238"/>
<path d="M323.13 145.7C323.26 142.98 322.24 140.35 321.38 137.76C320.52 135.17 319.81 132.37 320.54 129.76C321.46 126.46 324.43 124.16 326.03 121.12C327.63 118.08 327.75 114.49 328.03 111.06C328.31 107.63 328.89 103.99 331.17 101.4C334.05 98.1201 341.59 97.5301 345.17 100.06C345.72 119.58 345.55 138.91 341.37 157.99C331.84 158.4 327.01 156.54 318.7 151.88C321.35 151.31 323 148.43 323.13 145.7Z" fill="#263238"/>
<path d="M364.001 158.07L367.451 110.67C367.5 109.624 367.156 108.597 366.486 107.792C365.816 106.986 364.869 106.461 363.831 106.32L341.831 100.09C334.751 99.09 329.781 107.75 329.131 114.86C328.411 122.76 327.841 132.44 328.611 138.37C330.161 150.3 339.221 152.07 339.221 152.07C339.031 157.95 339.101 158.07 339.101 158.07L348.811 166.95L364.001 158.07Z" fill="#FFBF9D"/>
<path d="M332.34 125.18C332.324 125.577 332.463 125.964 332.728 126.259C332.994 126.555 333.364 126.734 333.76 126.76C333.954 126.781 334.149 126.763 334.336 126.707C334.522 126.651 334.695 126.558 334.845 126.434C334.995 126.31 335.119 126.157 335.209 125.985C335.299 125.813 335.354 125.624 335.37 125.43C335.384 125.034 335.244 124.648 334.979 124.353C334.714 124.059 334.345 123.878 333.95 123.85C333.757 123.829 333.561 123.848 333.375 123.904C333.188 123.96 333.015 124.052 332.865 124.176C332.715 124.3 332.592 124.453 332.501 124.625C332.411 124.798 332.356 124.986 332.34 125.18Z" fill="#263238"/>
<path d="M331.07 120C331.25 120.2 332.43 119.38 334.07 119.43C335.71 119.48 336.89 120.34 337.07 120.14C337.25 119.94 336.98 119.69 336.47 119.29C335.772 118.78 334.934 118.497 334.07 118.48C333.219 118.453 332.382 118.698 331.68 119.18C331.16 119.51 331 119.87 331.07 120Z" fill="#263238"/>
<path d="M346.321 125.47C346.304 125.867 346.443 126.254 346.709 126.549C346.974 126.844 347.344 127.024 347.741 127.05C347.934 127.071 348.13 127.052 348.316 126.996C348.502 126.94 348.676 126.848 348.826 126.724C348.976 126.6 349.099 126.447 349.189 126.275C349.28 126.102 349.334 125.914 349.351 125.72C349.367 125.323 349.228 124.936 348.962 124.641C348.697 124.345 348.327 124.166 347.931 124.14C347.737 124.118 347.541 124.135 347.354 124.191C347.167 124.246 346.993 124.339 346.843 124.463C346.693 124.587 346.569 124.74 346.479 124.913C346.389 125.086 346.336 125.276 346.321 125.47Z" fill="#263238"/>
<path d="M347.17 120.72C347.36 120.92 348.54 120.1 350.17 120.15C351.8 120.2 352.99 121.06 353.17 120.86C353.35 120.66 353.08 120.41 352.57 120.02C351.874 119.505 351.035 119.219 350.17 119.2C349.319 119.173 348.482 119.418 347.78 119.9C347.27 120.27 347.08 120.63 347.17 120.72Z" fill="#263238"/>
<path d="M340.88 132.71C340.025 132.408 339.134 132.22 338.23 132.15C337.81 132.1 337.42 132 337.36 131.71C337.334 131.278 337.442 130.848 337.67 130.48C338.09 129.48 338.54 128.48 339 127.33C340.85 122.84 342.2 119.15 342 119.07C341.8 118.99 340.17 122.58 338.32 127.07C337.88 128.17 337.45 129.23 337.05 130.24C336.769 130.737 336.673 131.319 336.78 131.88C336.839 132.027 336.93 132.16 337.045 132.269C337.161 132.378 337.299 132.46 337.45 132.51C337.681 132.579 337.919 132.619 338.16 132.63C339.06 132.766 339.974 132.793 340.88 132.71Z" fill="#263238"/>
<path d="M339.2 152.07C344.781 152.309 350.319 150.997 355.2 148.28C355.91 146.64 352.02 154.21 339.11 155.18L339.2 152.07Z" fill="#FF9A6C"/>
<path d="M341 136.61C341.382 136.077 341.889 135.645 342.476 135.354C343.064 135.063 343.714 134.921 344.37 134.94C344.799 134.959 345.217 135.081 345.588 135.297C345.959 135.513 346.272 135.816 346.5 136.18C346.724 136.59 346.831 137.055 346.81 137.522C346.789 137.989 346.64 138.441 346.38 138.83C346.071 139.229 345.65 139.526 345.17 139.683C344.69 139.84 344.175 139.849 343.69 139.71C342.787 139.385 341.975 138.85 341.32 138.15C341.111 137.977 340.941 137.763 340.82 137.52C340.76 137.386 340.737 137.239 340.753 137.093C340.769 136.947 340.823 136.808 340.91 136.69" fill="#FF9A6C"/>
<path d="M345.671 134C345.401 134 345.351 135.75 343.791 137C342.231 138.25 340.351 138 340.321 138.22C340.291 138.44 340.741 138.58 341.541 138.62C342.581 138.663 343.603 138.341 344.431 137.71C345.223 137.098 345.747 136.201 345.891 135.21C346.001 134.42 345.791 134 345.671 134Z" fill="#263238"/>
<path d="M346.64 114C346.79 114.45 348.43 114.29 350.35 114.57C352.27 114.85 353.81 115.43 354.07 115.04C354.19 114.85 353.93 114.42 353.32 113.97C352.499 113.424 351.56 113.081 350.58 112.97C349.601 112.822 348.6 112.908 347.66 113.22C346.94 113.4 346.58 113.74 346.64 114Z" fill="#E0E0E0"/>
<path d="M331.811 114.33C332.091 114.71 333.231 114.33 334.581 114.33C335.931 114.33 337.081 114.65 337.361 114.27C337.481 114.08 337.311 113.71 336.821 113.34C336.163 112.886 335.38 112.648 334.581 112.66C333.781 112.656 332.999 112.897 332.341 113.35C331.851 113.77 331.691 114.15 331.811 114.33Z" fill="#263238"/>
<path d="M339.19 100C341.19 95.12 345.64 94.09 350.37 93.58C355.1 93.07 362.12 95.03 366.03 97.58C369.282 99.5605 372.204 102.037 374.69 104.92C376.79 107.63 377.69 110.72 379.03 113.84C381.03 118.7 380.93 124.07 381.21 129.29C381.573 135.848 382.622 142.35 384.34 148.69C384.96 150.97 385.59 153.69 382.34 155C381.736 155.234 381.104 155.389 380.46 155.46C375.46 156.06 370.62 157.69 365.05 158.04H361.62C357.27 158.04 355.04 155.24 355.19 151.69C355.64 140.96 360.87 123.34 361.45 119.96C361.48 120 363.29 96.84 339.19 100Z" fill="#263238"/>
<path d="M340.761 99.9C341.487 100.506 342.083 101.252 342.512 102.094C342.942 102.936 343.197 103.857 343.261 104.8C343.521 106.67 343.411 108.59 343.761 110.44C344.127 112.299 344.935 114.043 346.117 115.524C347.298 117.005 348.819 118.18 350.551 118.95C351.661 119.42 353.171 119.62 353.861 118.63C353.82 119.949 354.18 121.248 354.895 122.357C355.609 123.466 356.643 124.332 357.861 124.84C359.621 125.55 361.591 125.43 363.441 125.84C365.291 126.25 367.231 127.52 367.331 129.42L368.111 116.23L364.401 104.57L353.001 97.8L340.761 99.9Z" fill="#263238"/>
<path d="M361 121.64C360.616 121.373 360.252 121.079 359.91 120.76C359.052 119.81 358.435 118.668 358.11 117.43C357.654 115.592 357.39 113.712 357.32 111.82C357.231 109.486 356.96 107.162 356.51 104.87C356.05 102.554 354.98 100.403 353.41 98.6401C352.707 97.8841 351.861 97.2756 350.92 96.8501C350.098 96.4859 349.218 96.2693 348.32 96.2101C347.02 96.1052 345.721 96.417 344.61 97.1001C344.435 97.2 344.271 97.3173 344.12 97.4501C343.999 97.5374 343.889 97.6381 343.79 97.7501C343.7 97.8374 343.617 97.931 343.54 98.0301C343.883 97.7105 344.255 97.4226 344.65 97.1701C345.758 96.5324 347.037 96.2529 348.31 96.3701C350.223 96.5074 352.011 97.3694 353.31 98.7801C354.831 100.528 355.865 102.646 356.31 104.92C356.755 107.2 357.029 109.51 357.13 111.83C357.208 113.739 357.493 115.633 357.98 117.48C358.321 118.734 358.971 119.882 359.87 120.82C360.198 121.155 360.58 121.433 361 121.64Z" fill="white"/>
<path d="M370.86 120.05C370.263 119.98 369.678 119.832 369.12 119.61C367.639 118.893 366.381 117.787 365.48 116.41C364.829 115.487 364.269 114.502 363.81 113.47C363.317 112.269 363.004 111.002 362.88 109.71C362.71 108.35 362.66 106.9 362.5 105.4C362.41 104.66 362.31 103.89 362.14 103.13C361.959 102.357 361.705 101.604 361.38 100.88C360.099 98.1053 357.822 95.9136 355 94.7398C352.703 93.7994 350.163 93.6275 347.76 94.2498C346.146 94.6479 344.633 95.3804 343.32 96.3998C342.841 96.7691 342.398 97.1844 342 97.6398C342.035 97.6191 342.065 97.592 342.09 97.5598L342.35 97.3298C342.46 97.2198 342.6 97.0898 342.77 96.9498C342.94 96.8098 343.14 96.6298 343.38 96.4698C344.697 95.4879 346.201 94.7868 347.8 94.4099C350.168 93.8235 352.662 94.0056 354.92 94.9298C357.673 96.0899 359.899 98.227 361.17 100.93C361.484 101.642 361.731 102.382 361.91 103.14C362.068 103.883 362.188 104.634 362.27 105.39C362.43 106.87 362.49 108.32 362.66 109.7C362.803 111.009 363.14 112.29 363.66 113.5C364.131 114.553 364.704 115.558 365.37 116.5C366.301 117.885 367.595 118.989 369.11 119.69C369.529 119.849 369.965 119.956 370.41 120.01H370.76L370.86 120.05Z" fill="#455A64"/>
<path d="M353.86 118.63C353.86 118.63 353.86 118.63 353.86 118.74C353.86 118.85 353.86 118.93 353.86 119.06C353.86 119.19 353.86 119.39 353.93 119.6C354 119.81 354.02 120.05 354.08 120.32C354.242 120.978 354.495 121.611 354.83 122.2C355.287 122.983 355.9 123.664 356.63 124.2C358.653 125.523 361.065 126.119 363.47 125.89C364.903 125.82 366.324 125.599 367.71 125.23C369.223 124.851 370.677 124.265 372.03 123.49L372.3 123.33H371.99C370.253 123.085 368.565 122.565 366.99 121.79H366.9L366.83 122C370.363 122.57 373.985 121.921 377.1 120.16L377.31 120.04L377.08 119.97C374.883 119.309 372.821 118.263 370.99 116.88C369.56 115.79 368.46 114.326 367.81 112.65C367.434 111.543 367.258 110.378 367.29 109.21C367.29 108.82 367.34 108.51 367.36 108.28V108V107.92C367.363 107.947 367.363 107.973 367.36 108V108.24C367.36 108.46 367.3 108.77 367.25 109.17C367.193 110.352 367.352 111.535 367.72 112.66C368.386 114.385 369.522 115.889 371 117C372.846 118.403 374.924 119.469 377.14 120.15V119.96C374.064 121.686 370.493 122.32 367.01 121.76L366.24 121.63L366.94 121.97H367.03C368.605 122.749 370.292 123.275 372.03 123.53V123.32C370.691 124.085 369.255 124.667 367.76 125.05C366.391 125.419 364.987 125.641 363.57 125.71C361.206 125.949 358.831 125.382 356.83 124.1C356.101 123.565 355.492 122.884 355.04 122.1C354.706 121.517 354.444 120.896 354.26 120.25C354.2 119.98 354.14 119.75 354.1 119.54C354.06 119.33 354.04 119.15 354.01 119.01C353.98 118.87 354.01 118.77 353.96 118.69C353.929 118.667 353.895 118.647 353.86 118.63Z" fill="#455A64"/>
<path d="M378.241 151.09C378.301 151.09 377.581 144.73 376.631 136.91C375.681 129.09 374.851 122.75 374.791 122.75C374.731 122.75 375.451 129.11 376.401 136.93C377.351 144.75 378.171 151.09 378.241 151.09Z" fill="#455A64"/>
<path d="M354.16 240.83C353.219 240.635 352.247 240.639 351.307 240.841C350.367 241.042 349.479 241.437 348.7 242C346.22 243.82 341.97 246.24 337.7 245.4C331.07 244.09 327.47 237.87 328.95 230.4C330.43 222.93 336.1 218.47 342.74 219.78C347.03 220.62 350.05 224.46 351.66 227.09C352.17 227.902 352.842 228.601 353.633 229.143C354.424 229.684 355.319 230.058 356.26 230.24C357.169 230.419 358.104 230.417 359.012 230.234C359.92 230.052 360.783 229.692 361.552 229.176C362.321 228.659 362.981 227.996 363.494 227.225C364.006 226.454 364.362 225.589 364.54 224.68L371.9 180.42L302.58 168.31L255.2 160.1L247.8 202.1C247.05 205.92 250.26 209.31 254.08 210.1C255.021 210.293 255.991 210.287 256.93 210.084C257.868 209.881 258.754 209.484 259.53 208.92C262.01 207.1 266.27 204.68 270.53 205.52C277.17 206.83 280.77 213.05 279.29 220.57C277.81 228.09 272.13 232.5 265.49 231.19C261.21 230.35 258.18 226.51 256.57 223.88C256.061 223.066 255.39 222.365 254.599 221.822C253.807 221.278 252.913 220.903 251.97 220.72C251.062 220.536 250.126 220.533 249.216 220.714C248.307 220.894 247.442 221.254 246.673 221.771C245.904 222.288 245.245 222.953 244.734 223.727C244.224 224.501 243.873 225.369 243.7 226.28L234.82 275.74L304.54 288.01L345.44 295.21L350.44 296.1L359.69 249.17C359.885 248.258 359.896 247.317 359.723 246.401C359.549 245.486 359.194 244.614 358.679 243.837C358.164 243.06 357.499 242.394 356.723 241.878C355.947 241.361 355.076 241.005 354.16 240.83Z" fill="#455A64"/>
<path d="M285.111 212.72C285.121 212.47 285.079 212.221 284.987 211.988C284.895 211.755 284.756 211.544 284.578 211.368C284.4 211.192 284.188 211.055 283.954 210.966C283.72 210.877 283.471 210.837 283.221 210.85C282.641 210.85 281.891 210.92 280.971 211.01C278.581 211.25 271.511 214.73 271.321 216.13C271.192 216.631 271.196 217.157 271.331 217.656C271.466 218.156 271.728 218.612 272.091 218.98C272.091 218.98 270.711 220.81 271.211 222.33C271.651 223.62 273.731 224.07 273.731 224.07C273.731 224.07 272.191 225.86 273.731 227.14C274.281 227.58 275.391 228.43 275.641 228.72C275.741 229.103 275.889 229.473 276.081 229.82C276.428 230.307 276.875 230.715 277.392 231.015C277.91 231.315 278.485 231.501 279.081 231.56H279.481C280.247 231.636 281.013 231.414 281.621 230.94C284.381 228.83 292.201 222.71 292.351 221.01C292.351 221.01 293.841 219.85 293.261 218.64C292.681 217.43 290.451 217.95 290.451 217.95C290.754 217.706 290.972 217.372 291.073 216.997C291.173 216.621 291.152 216.223 291.011 215.86C290.501 214.58 286.551 214.69 284.761 214.93C283.331 215.11 279.351 215.76 279.351 215.76C279.351 215.76 284.651 213.94 284.961 213.04C285.025 212.94 285.075 212.833 285.111 212.72Z" fill="#FFBF9D"/>
<path d="M292.43 221.05C292.264 221.176 292.087 221.286 291.9 221.38C291.55 221.57 291.04 221.84 290.39 222.16C289.11 222.8 287.29 223.6 285.25 224.39C283.21 225.18 281.32 225.81 279.95 226.25C279.27 226.47 278.72 226.63 278.33 226.75C278.134 226.814 277.934 226.864 277.73 226.9C277.918 226.809 278.112 226.733 278.31 226.67L279.91 226.12C281.27 225.65 283.13 224.99 285.18 224.21C287.23 223.43 289.03 222.64 290.33 222.04L291.87 221.31C292.051 221.211 292.238 221.124 292.43 221.05Z" fill="#FF9A6C"/>
<path d="M290.771 217.94C290.583 218.005 290.388 218.049 290.191 218.07C289.821 218.14 289.281 218.24 288.611 218.39C287.281 218.68 285.471 219.18 283.491 219.81C282.491 220.12 281.551 220.4 280.701 220.69C279.851 220.98 279.101 221.3 278.481 221.56C277.861 221.82 277.361 222.07 277.011 222.23C276.839 222.328 276.658 222.408 276.471 222.47L276.601 222.38L276.981 222.16C277.311 221.98 277.801 221.72 278.421 221.44C279.041 221.16 279.791 220.83 280.641 220.52C281.491 220.21 282.441 219.93 283.431 219.62C285.126 219.074 286.848 218.617 288.591 218.25C289.251 218.12 289.801 218.04 290.181 217.99L290.771 217.94Z" fill="#FF9A6C"/>
<path d="M279.43 215.8C279.164 215.98 278.879 216.131 278.58 216.25C278.04 216.5 277.28 216.82 276.44 217.17C275.6 217.52 274.86 217.85 274.32 218.1C274.036 218.249 273.742 218.379 273.44 218.49C273.691 218.286 273.967 218.115 274.26 217.98C274.943 217.605 275.648 217.272 276.37 216.98C277.21 216.63 277.97 216.33 278.52 216.11C278.814 215.981 279.119 215.877 279.43 215.8Z" fill="#FF9A6C"/>
<path d="M289.941 224.15C289.834 224.301 289.714 224.442 289.581 224.57C289.331 224.82 288.961 225.18 288.491 225.57C287.551 226.44 286.191 227.57 284.711 228.8C284.351 229.11 284.001 229.44 283.631 229.72C283.288 230 282.927 230.257 282.551 230.49C281.916 230.896 281.22 231.2 280.491 231.39C279.999 231.523 279.488 231.567 278.981 231.52C278.843 231.514 278.706 231.497 278.571 231.47H278.431C278.614 231.459 278.798 231.459 278.981 231.47C279.478 231.482 279.974 231.414 280.451 231.27C281.159 231.068 281.833 230.761 282.451 230.36C282.818 230.123 283.172 229.866 283.511 229.59C283.871 229.31 284.211 228.99 284.581 228.67C286.061 227.41 287.441 226.32 288.401 225.49L289.521 224.49C289.652 224.367 289.793 224.253 289.941 224.15Z" fill="#FF9A6C"/>
<path d="M368.351 240.66C368.351 240.66 365.871 238 363.781 237.57C361.691 237.14 358.781 237.51 358.291 237.15C357.801 236.79 356.701 235.37 355.711 236.25C354.721 237.13 353.121 240.64 357.351 242.36L360.351 242.85C359.955 244.264 359.352 245.612 358.561 246.85C357.641 247.92 345.271 259.18 345.271 259.18C345.271 259.18 343.781 260.26 344.211 261.65C344.641 263.04 347.511 262.75 347.511 262.75C347.99 263.33 348.608 263.779 349.307 264.055C350.007 264.331 350.765 264.426 351.511 264.33C352.665 264.126 353.793 263.791 354.871 263.33C355.494 263.988 356.315 264.424 357.209 264.57C358.103 264.716 359.021 264.565 359.821 264.14C362.701 262.63 374.981 251.67 374.981 251.67L371.891 240.78L368.351 240.66Z" fill="#FFBF9D"/>
<path d="M371.221 238.52L368.141 240.67C371.961 244.52 374.861 247.94 374.071 252.56L380.011 250.15C380.011 250.15 380.521 240.91 371.221 238.52Z" fill="#FFBF9D"/>
<path d="M356.841 256.62C355.677 258.083 354.257 259.323 352.651 260.28C351.14 261.374 349.447 262.19 347.651 262.69C347.591 262.54 349.841 261.52 352.371 259.84C354.901 258.16 356.731 256.51 356.841 256.62Z" fill="#FF9A6C"/>
<path d="M361.15 259C360.362 260.231 359.337 261.293 358.135 262.125C356.934 262.958 355.58 263.544 354.15 263.85C354.1 263.7 355.9 263.04 357.82 261.69C359.74 260.34 361 258.92 361.15 259Z" fill="#FF9A6C"/>
<path d="M184.67 183.78L188.43 181.53L193.38 194.87L189.37 197.35L184.67 183.78Z" fill="#F5F5F5"/>
<path d="M118.81 97.74C118.596 92.5699 116.445 87.6695 112.784 84.0123C109.123 80.3552 104.22 78.209 99.05 78H97.99C86.45 78.19 80.18 88.1 80.69 99.62L82.15 146.02L100.38 153.02L107.43 146.54C107.43 143.29 107.43 136.54 107.5 136.54C107.57 136.54 118.63 135.28 119.22 124.23C119.51 118.78 119.2 107.73 118.81 97.74Z" fill="#FFBF9D"/>
<path d="M107.5 136.43C102.389 136.211 97.4496 134.528 93.2695 131.58C93.2695 131.58 96.3895 140.04 107.47 139.5L107.5 136.43Z" fill="#FF9A6C"/>
<path d="M115 107.28C114.989 107.693 114.816 108.085 114.519 108.371C114.221 108.658 113.823 108.815 113.41 108.81C113.208 108.819 113.007 108.788 112.818 108.717C112.629 108.646 112.456 108.538 112.31 108.399C112.165 108.26 112.049 108.092 111.969 107.907C111.89 107.721 111.849 107.521 111.85 107.32C111.86 106.909 112.031 106.518 112.327 106.232C112.622 105.946 113.018 105.787 113.43 105.79C113.631 105.782 113.832 105.814 114.021 105.885C114.21 105.956 114.383 106.064 114.529 106.203C114.676 106.342 114.793 106.509 114.873 106.694C114.954 106.879 114.997 107.078 115 107.28Z" fill="#263238"/>
<path d="M116.26 102.53C116.05 102.73 114.89 101.79 113.19 101.73C111.49 101.67 110.19 102.46 110.04 102.24C109.89 102.02 110.17 101.78 110.73 101.41C111.484 100.93 112.368 100.696 113.26 100.74C114.145 100.774 114.997 101.089 115.69 101.64C116.2 102.06 116.36 102.44 116.26 102.53Z" fill="#263238"/>
<path d="M100.22 107.28C100.207 107.692 100.033 108.082 99.7359 108.368C99.4388 108.654 99.0418 108.813 98.6296 108.81C98.428 108.818 98.2268 108.785 98.0379 108.714C97.8491 108.643 97.6763 108.535 97.53 108.396C97.3836 108.257 97.2666 108.091 97.1858 107.906C97.105 107.721 97.0621 107.522 97.0596 107.32C97.0751 106.909 97.2495 106.519 97.546 106.234C97.8425 105.949 98.2381 105.789 98.6496 105.79C98.8512 105.782 99.0524 105.814 99.2412 105.885C99.4301 105.956 99.6028 106.064 99.7491 106.203C99.8955 106.342 100.013 106.509 100.093 106.694C100.174 106.879 100.217 107.078 100.22 107.28Z" fill="#263238"/>
<path d="M99.5801 102.24C99.3801 102.43 98.2201 101.5 96.5201 101.43C94.8201 101.36 93.5201 102.17 93.3601 101.95C93.2001 101.73 93.4901 101.49 94.0501 101.12C94.8073 100.64 95.6946 100.405 96.5901 100.45C97.4726 100.489 98.3214 100.8 99.0201 101.34C99.5201 101.77 99.6801 102.15 99.5801 102.24Z" fill="#263238"/>
<path d="M105.14 115.55C106.046 115.302 106.98 115.171 107.92 115.16C108.36 115.16 108.77 115.07 108.86 114.77C108.911 114.325 108.827 113.876 108.62 113.48C108.26 112.41 107.87 111.29 107.47 110.12C105.88 105.34 104.75 101.42 104.95 101.35C105.15 101.28 106.58 105.11 108.17 109.89C108.55 111.07 108.92 112.19 109.26 113.27C109.517 113.802 109.574 114.409 109.42 114.98C109.349 115.13 109.246 115.263 109.118 115.368C108.99 115.474 108.841 115.549 108.68 115.59C108.436 115.64 108.188 115.663 107.94 115.66C107.005 115.736 106.065 115.699 105.14 115.55Z" fill="#263238"/>
<path d="M100.349 96.94C100.099 97.37 98.4693 96.84 96.4693 96.72C94.4693 96.6 92.7693 96.83 92.5893 96.38C92.5093 96.16 92.8593 95.78 93.5893 95.46C94.5421 95.0767 95.5698 94.9161 96.5941 94.9907C97.6184 95.0652 98.6121 95.3728 99.4993 95.89C100.169 96.32 100.459 96.74 100.349 96.94Z" fill="#263238"/>
<path d="M116.539 97.5399C116.179 97.9099 114.809 97.4799 113.139 97.4099C111.469 97.3399 110.059 97.5899 109.749 97.1799C109.609 96.9799 109.839 96.5999 110.469 96.2499C111.331 95.8313 112.285 95.6384 113.242 95.6891C114.199 95.7398 115.127 96.0326 115.939 96.5399C116.519 96.9999 116.699 97.3499 116.539 97.5399Z" fill="#263238"/>
<path d="M81.2602 107.76C81.0702 107.67 73.7502 105.2 73.6802 112.76C73.6102 120.32 81.2202 118.84 81.2402 118.62C81.2602 118.4 81.2602 107.76 81.2602 107.76Z" fill="#FFBF9D"/>
<path d="M78.9998 115.74C78.9998 115.74 78.8698 115.83 78.6498 115.93C78.4916 115.997 78.3216 116.032 78.1498 116.032C77.978 116.032 77.8079 115.997 77.6498 115.93C77.163 115.617 76.7689 115.179 76.5086 114.662C76.2484 114.145 76.1313 113.567 76.1698 112.99C76.1553 112.343 76.2851 111.701 76.5498 111.11C76.6252 110.876 76.7552 110.663 76.9291 110.489C77.103 110.315 77.3157 110.185 77.5498 110.11C77.7011 110.074 77.86 110.092 78.0001 110.159C78.1402 110.226 78.2531 110.34 78.3198 110.48C78.4198 110.7 78.3198 110.85 78.4098 110.86C78.4998 110.87 78.5698 110.73 78.5198 110.42C78.4775 110.23 78.3717 110.061 78.2198 109.94C78.0146 109.783 77.7566 109.711 77.4998 109.74C77.187 109.799 76.8948 109.938 76.6513 110.143C76.4078 110.347 76.2213 110.612 76.1098 110.91C75.7802 111.56 75.6154 112.281 75.6298 113.01C75.6298 114.54 76.4298 116.01 77.5198 116.3C77.7229 116.361 77.9369 116.375 78.1463 116.342C78.3557 116.309 78.5551 116.23 78.7298 116.11C78.9398 115.92 78.9998 115.76 78.9998 115.74Z" fill="#FF9A6C"/>
<path d="M99.8 116.6C100.06 116.6 100.07 118.32 101.57 119.6C103.07 120.88 104.91 120.6 104.92 120.87C104.93 121.14 104.51 121.21 103.73 121.23C102.708 121.239 101.715 120.885 100.93 120.23C100.17 119.616 99.6783 118.73 99.56 117.76C99.49 117 99.68 116.59 99.8 116.6Z" fill="#263238"/>
<path d="M134.09 87.7799C133.955 87.3503 133.657 86.991 133.26 86.7799C132.381 86.3653 131.407 86.1927 130.44 86.2799C128.027 86.2113 125.663 85.5886 123.53 84.4599C124.282 84.1027 124.973 83.6304 125.58 83.0599C126.233 82.4748 126.711 81.7204 126.961 80.8803C127.212 80.0402 127.225 79.1471 127 78.2999C126.97 78.1403 126.901 77.9903 126.8 77.8632C126.699 77.736 126.568 77.6353 126.42 77.5699C125.93 77.4099 125.49 77.8899 125.14 78.2699C124.696 78.8571 124.103 79.3145 123.422 79.5942C122.741 79.8739 121.998 79.9656 121.27 79.8599C120.261 79.7822 119.284 79.4779 118.41 78.9699C118.371 78.9382 118.338 78.9012 118.31 78.8599L117.17 77.6799C114.35 74.8199 111.92 72.8399 109.41 71.7899C105.73 70.2599 99.5596 69.5899 95.6896 70.5599C91.8196 71.5299 88.3296 74.5599 87.7496 78.5599C85.6096 76.6999 82.3596 76.6799 79.7496 77.7099H79.6796C76.7396 78.7099 75.0396 81.7999 74.1396 84.7799C74.1396 84.9399 74.0496 85.1099 73.9996 85.2699C72.9913 86.8425 71.6194 88.1493 69.9996 89.0799C69.7196 89.2399 69.3896 89.4399 69.3496 89.7699C69.3638 89.9306 69.4168 90.0855 69.5038 90.2213C69.5909 90.3571 69.7095 90.4699 69.8496 90.5499C70.5541 91.051 71.3595 91.3923 72.2096 91.5499C71.9331 92.2435 71.5986 92.9125 71.2096 93.5499C70.8796 94.1099 70.4796 94.7799 70.7596 95.3599C70.8771 95.5796 71.0586 95.7585 71.2801 95.8727C71.5015 95.987 71.7524 96.0314 71.9996 95.9999C72.4929 95.8969 72.9594 95.6926 73.3696 95.3999L72.3696 97.7399C73.4326 97.9266 74.5244 97.865 75.5596 97.5599C76.1496 100.36 76.5596 105.56 77.2596 107.45C79.2596 107.51 79.7596 107.3 80.7696 107.64C82.0796 108.09 81.5496 110.41 83.2596 109.77C84.1296 109.44 85.5096 106.17 85.8096 105.28C87.8084 99.4068 88.5245 93.1733 87.9096 86.9999C89.1472 85.7359 90.613 84.718 92.2296 83.9999L92.0996 84.1199C95.2096 83.1199 98.7196 82.0599 101.64 83.5399C103.91 84.6999 105.22 87.0799 106.9 88.9799C108.316 90.7186 110.085 92.1373 112.089 93.1422C114.094 94.1472 116.289 94.7156 118.53 94.8099C118.93 98.1499 118.99 103.62 119.12 106.74L121.86 100.53C122.08 100.16 122.26 99.7899 122.44 99.4299L122.5 99.3199C122.766 98.7185 123.063 98.1311 123.39 97.5599C123.756 97.8106 124.196 97.9319 124.64 97.9048C125.083 97.8777 125.505 97.7037 125.839 97.4102C126.173 97.1167 126.399 96.7205 126.482 96.284C126.566 95.8475 126.502 95.3957 126.3 94.9999C126.043 94.6207 125.729 94.2834 125.37 93.9999C125.747 94.3759 126.215 94.6473 126.729 94.7876C127.242 94.9279 127.784 94.9321 128.3 94.7999C128.804 94.643 129.243 94.3255 129.55 93.8958C129.857 93.4661 130.015 92.9477 130 92.4199C129.964 92.0605 129.835 91.7168 129.624 91.4235C129.413 91.1303 129.129 90.8979 128.8 90.7499C130.185 90.8801 131.577 90.5947 132.8 89.9299C133.57 89.4899 134.35 88.7699 134.09 87.7799Z" fill="#263238"/>
<path d="M91.2198 79.8699C90.8202 80.1726 90.4457 80.507 90.0998 80.8699C89.2129 81.9188 88.6134 83.1799 88.3598 84.5299C88.1549 85.4527 88.0476 86.3946 88.0398 87.3399C88.0398 88.3399 88.0998 89.4599 88.1598 90.6099C88.2354 91.8187 88.2354 93.031 88.1598 94.2399C88.1189 94.8858 88.0287 95.5277 87.8898 96.1599C87.7828 96.834 87.5077 97.4703 87.0898 98.0099C86.8947 98.2236 86.6474 98.383 86.3722 98.4724C86.097 98.5618 85.8032 98.5782 85.5198 98.5199C84.9783 98.4069 84.4875 98.123 84.1198 97.7099C83.5452 96.87 83.2004 95.8943 83.1198 94.8799H83.3598C83.0155 95.7103 82.5505 96.4853 81.9798 97.1799C81.4333 97.8306 80.655 98.243 79.8098 98.3299C79.4178 98.363 79.0242 98.2905 78.6698 98.1199C78.3485 97.9405 78.085 97.6734 77.9098 97.3499C77.7414 97.0445 77.6617 96.6981 77.6798 96.3499C77.6991 96.0288 77.83 95.7247 78.0498 95.4899L78.1598 95.5999C77.4935 96.35 76.6754 96.9499 75.7598 97.3599C75.4498 97.4999 75.1898 97.5799 75.0198 97.6399C74.9348 97.6666 74.8479 97.6867 74.7598 97.6999L75.0098 97.5899C75.1698 97.5299 75.4198 97.4299 75.7298 97.2799C76.6141 96.8472 77.4029 96.242 78.0498 95.4999L78.1598 95.5999C77.9731 95.8305 77.8639 96.1141 77.8477 96.4103C77.8316 96.7065 77.9093 97.0003 78.0698 97.2499C78.2308 97.5373 78.47 97.7731 78.7598 97.9299C79.072 98.075 79.4165 98.137 79.7598 98.1099C80.5406 98.0135 81.2556 97.6238 81.7598 97.0199C82.3087 96.3357 82.7535 95.5741 83.0798 94.7599L83.2498 94.4099L83.3198 94.7899C83.4071 95.7658 83.7522 96.7011 84.3198 97.4999C84.6471 97.8694 85.0859 98.1222 85.5698 98.2199C85.8112 98.2718 86.0621 98.2595 86.2972 98.184C86.5324 98.1085 86.7436 97.9726 86.9098 97.7899C87.2998 97.2857 87.5546 96.6902 87.6498 96.0599C87.7838 95.4437 87.874 94.8188 87.9198 94.1899C87.9952 92.9877 87.9952 91.782 87.9198 90.5799C87.8598 89.4299 87.7998 88.3299 87.8298 87.2999C87.847 86.3403 87.9643 85.3851 88.1798 84.4499C88.4551 83.0944 89.0829 81.8355 89.9998 80.7999C90.3481 80.42 90.7612 80.1052 91.2198 79.8699Z" fill="#455A64"/>
<path d="M125.38 90.9998L125.29 91.0698L125.01 91.2698C124.859 91.3786 124.702 91.4787 124.54 91.5698C124.32 91.6951 124.093 91.8086 123.86 91.9098C122.369 92.57 120.735 92.845 119.11 92.7098C116.691 92.5275 114.377 91.6449 112.45 90.1698C110.124 88.3495 108.194 86.0729 106.78 83.4798C105.99 82.1298 105.34 80.7498 104.64 79.4798C103.991 78.2374 103.169 77.0928 102.2 76.0798C101.329 75.157 100.238 74.469 99.0301 74.0798C98.4843 73.9234 97.9176 73.8525 97.3501 73.8698C96.8233 73.8936 96.302 73.9877 95.8001 74.1498C94.9379 74.4374 94.1445 74.9004 93.4701 75.5098C92.9651 75.9742 92.5395 76.518 92.2101 77.1198C91.9409 77.6446 91.7425 78.2028 91.6201 78.7798C91.6201 78.7798 91.6201 78.7798 91.6201 78.6598C91.6201 78.5398 91.6201 78.4598 91.6701 78.3198C91.7665 77.8871 91.9142 77.4675 92.1101 77.0698C92.433 76.449 92.859 75.8877 93.3701 75.4098C94.0515 74.7774 94.8593 74.2969 95.7401 73.9998C96.258 73.8302 96.7959 73.7293 97.3401 73.6998C97.9309 73.6775 98.5214 73.7484 99.0901 73.9098C100.333 74.2926 101.461 74.9801 102.37 75.9098C103.359 76.9364 104.197 78.098 104.86 79.3598C105.58 80.6398 106.22 82.0198 107 83.3598C108.404 85.9224 110.304 88.1797 112.59 89.9998C114.478 91.4572 116.744 92.3423 119.12 92.5498C120.721 92.6943 122.333 92.4508 123.82 91.8398C124.355 91.5887 124.876 91.3083 125.38 90.9998Z" fill="#455A64"/>
<path d="M126.439 86.18C126.439 86.18 126.309 86.29 126.039 86.45C125.662 86.6769 125.267 86.8742 124.859 87.04C124.253 87.288 123.628 87.4853 122.989 87.63C122.202 87.7935 121.403 87.8905 120.599 87.92C119.795 87.9262 118.992 87.8626 118.199 87.73C117.556 87.6106 116.924 87.4367 116.309 87.21C115.897 87.0636 115.496 86.8864 115.109 86.68C114.958 86.6137 114.816 86.5262 114.689 86.42C114.689 86.42 115.319 86.7 116.369 87.04C116.984 87.2364 117.612 87.3868 118.249 87.49C119.027 87.611 119.813 87.6679 120.599 87.66C121.386 87.6362 122.168 87.5459 122.939 87.39C123.568 87.2617 124.186 87.0879 124.789 86.87C125.819 86.48 126.419 86.14 126.439 86.18Z" fill="#455A64"/>
<path d="M114.4 433L114.56 454.45C114.56 454.45 136.41 461.45 136.83 465.45L95.2499 467.25L93.6299 433.84L114.4 433Z" fill="#263238"/>
<path d="M101.619 453.23C101.224 453.371 100.894 453.653 100.693 454.022C100.492 454.391 100.434 454.821 100.529 455.23C100.655 455.637 100.933 455.98 101.307 456.185C101.68 456.39 102.118 456.442 102.529 456.33C102.947 456.182 103.296 455.884 103.508 455.495C103.72 455.105 103.781 454.651 103.679 454.22C103.509 453.814 103.186 453.491 102.781 453.319C102.376 453.147 101.92 453.14 101.509 453.3" fill="#E0E0E0"/>
<path d="M95.25 467.28V463.91L135.13 463.44C135.13 463.44 137.01 464.17 136.86 465.44L95.25 467.28Z" fill="#455A64"/>
<path d="M115.22 454.24C115.22 454.44 114.22 454.58 113.22 455.24C112.22 455.9 111.76 456.81 111.57 456.74C111.38 456.67 111.63 455.48 112.82 454.66C114.01 453.84 115.26 454.05 115.22 454.24Z" fill="white"/>
<path d="M119.659 455.85C119.719 456.05 118.849 456.43 118.199 457.32C117.549 458.21 117.389 459.12 117.199 459.12C117.009 459.12 116.819 457.98 117.659 456.89C118.499 455.8 119.649 455.66 119.659 455.85Z" fill="white"/>
<path d="M122.36 461C122.18 461.05 121.86 460.05 122.36 458.92C122.86 457.79 123.76 457.3 123.86 457.46C123.96 457.62 123.39 458.25 123.01 459.19C122.63 460.13 122.57 460.93 122.36 461Z" fill="white"/>
<path d="M114.64 449.35C114.57 449.54 113.64 449.3 112.48 449.43C111.32 449.56 110.48 449.96 110.34 449.79C110.2 449.62 111.06 448.86 112.41 448.72C113.76 448.58 114.74 449.19 114.64 449.35Z" fill="white"/>
<path d="M66.1896 437.59L63.9296 463.45L68.0496 484.45C68.1196 484.808 68.1152 485.176 68.0368 485.532C67.9584 485.888 67.8076 486.225 67.5938 486.52C67.38 486.816 67.1077 487.064 66.7939 487.25C66.4801 487.435 66.1314 487.555 65.7696 487.6C65.3485 487.653 64.9207 487.605 64.5222 487.459C64.1236 487.313 63.7661 487.073 63.4796 486.76C59.7796 482.76 46.2096 467.76 46.4796 465.89C46.7896 463.71 47.0396 438.47 47.0396 438.47L66.1896 437.59Z" fill="#263238"/>
<path d="M65.7695 487.56L46.5895 464.11L46.5195 465.2C46.4566 466.148 46.7331 467.087 47.2995 467.85C48.8195 469.85 53.1395 475.43 63.4095 486.72C63.7026 487.044 64.0716 487.291 64.4836 487.438C64.8955 487.584 65.3374 487.626 65.7695 487.56Z" fill="#455A64"/>
<g opacity="0.6">
<path d="M52.4399 456.09C52.7437 456.345 52.9424 456.704 52.9978 457.097C53.0532 457.491 52.9613 457.89 52.7399 458.22C52.4979 458.533 52.1448 458.74 51.7539 458.8C51.3629 458.859 50.9641 458.766 50.6399 458.54C50.3199 458.269 50.1112 457.89 50.054 457.474C49.9968 457.059 50.095 456.637 50.3299 456.29C50.6149 455.988 51.0067 455.81 51.4215 455.793C51.8364 455.776 52.2413 455.922 52.5499 456.2" fill="white"/>
</g>
<path d="M60.5802 475.86C61.26 475.09 62.0816 474.459 63.0002 474C63.9663 473.681 64.985 473.552 66.0002 473.62C66.0002 473.55 65.7102 473.33 65.1102 473.21C64.3183 473.065 63.5013 473.155 62.7602 473.47C62.0071 473.783 61.3659 474.316 60.9202 475C60.5802 475.46 60.5102 475.84 60.5802 475.86Z" fill="white"/>
<path d="M62.2001 479.45C62.9699 479.071 63.7612 478.737 64.5701 478.45C65.4166 478.351 66.2678 478.297 67.1201 478.29C66.7373 478.015 66.2941 477.836 65.8277 477.768C65.3612 477.7 64.8853 477.745 64.4401 477.9C62.8801 478.28 62.0701 479.37 62.2001 479.45Z" fill="white"/>
<path d="M57.4297 471.2C58.5741 470.531 59.7675 469.949 60.9997 469.46C62.2816 469.146 63.5853 468.929 64.8997 468.81C63.5591 468.459 62.1464 468.497 60.8269 468.921C59.5074 469.344 58.3359 470.135 57.4497 471.2H57.4297Z" fill="white"/>
<path d="M57.46 463.28C57.52 463.44 58.99 462.94 60.85 462.99C62.71 463.04 64.16 463.58 64.23 463.43C63.2622 462.704 62.0667 462.35 60.86 462.43C59.6622 462.309 58.4598 462.609 57.46 463.28Z" fill="white"/>
<path d="M57.93 455.68C59.0785 455.381 60.2637 455.246 61.45 455.28C62.6207 455.484 63.758 455.847 64.83 456.36C64.83 456.31 64.61 455.96 64.04 455.58C63.2765 455.096 62.4099 454.798 61.51 454.71C60.6106 454.615 59.7016 454.739 58.86 455.07C58.22 455.33 57.89 455.62 57.93 455.68Z" fill="white"/>
<path d="M61.5001 453.83C61.6022 453.507 61.6362 453.167 61.6001 452.83C61.5698 451.924 61.359 451.033 60.9801 450.21C60.7591 449.584 60.3371 449.05 59.7801 448.69C59.585 448.588 59.3631 448.548 59.1448 448.577C58.9264 448.606 58.7222 448.701 58.5601 448.85C58.2682 449.16 58.0978 449.564 58.0801 449.99C58.0815 450.864 58.388 451.71 58.9467 452.381C59.5054 453.053 60.2812 453.509 61.1401 453.67C61.9922 453.815 62.8682 453.701 63.6556 453.345C64.4431 452.989 65.1062 452.405 65.5601 451.67C65.6758 451.486 65.7501 451.278 65.7777 451.062C65.8053 450.847 65.7857 450.627 65.7201 450.42C65.6296 450.219 65.4789 450.052 65.289 449.941C65.0991 449.83 64.8793 449.78 64.6601 449.8C64.0123 449.895 63.4016 450.161 62.8901 450.57C62.1497 451.083 61.5092 451.727 61.0001 452.47C60.7895 452.726 60.633 453.022 60.5401 453.34C61.2799 452.411 62.1487 451.593 63.1201 450.91C63.5778 450.575 64.1095 450.356 64.6701 450.27C64.7907 450.254 64.9131 450.279 65.0181 450.341C65.123 450.402 65.2046 450.497 65.2501 450.61C65.284 450.748 65.2882 450.891 65.2624 451.031C65.2365 451.171 65.1812 451.303 65.1001 451.42C64.6886 452.042 64.1066 452.532 63.4238 452.832C62.741 453.131 61.9864 453.228 61.2501 453.11C60.5249 452.972 59.8679 452.593 59.3866 452.033C58.9052 451.474 58.6279 450.767 58.6001 450.03C58.607 449.729 58.7164 449.44 58.9101 449.21C58.9975 449.125 59.1097 449.071 59.2303 449.055C59.3508 449.039 59.4734 449.061 59.5801 449.12C60.0344 449.432 60.3831 449.875 60.5801 450.39C61.0877 451.473 61.3991 452.638 61.5001 453.83Z" fill="white"/>
<path d="M136.39 255.21C138.389 264.095 139.063 273.227 138.39 282.31C137.94 288.07 118.51 447.4 118.51 447.4H92.2798L99.6498 297.65L97.5098 298.12C97.5098 298.12 83.1798 362 81.9998 372.33C80.9998 381.62 68.0998 454.68 68.0998 454.68L43.3398 454.41L52.5499 360.11L61.4698 274.41L64.8198 249.41L136.39 255.21Z" fill="#263238"/>
<path d="M184.7 181.53L159.21 194.14L144.79 156.58C143.477 153.365 141.402 150.518 138.743 148.285C136.085 146.051 132.922 144.498 129.53 143.76C128.659 143.578 127.777 143.461 126.89 143.41L137.2 203.41C139.225 208.319 141.917 212.926 145.2 217.1C147.35 219.69 151.63 222.41 161.1 219.44L191.56 199.05L184.7 181.53Z" fill="#263238"/>
<path d="M80.8498 136.1L93.4698 146.59L99.9098 151.59L103.17 151.13L104.97 146.21L107.4 136.62L110.8 141.11L120 160.64L130.33 255.11C130.33 255.11 112.33 260.39 102.99 261.02C93.6498 261.65 78.7998 259.11 78.7998 259.11V209.4L73.5098 160.17L79.8998 141.31L80.8498 136.1Z" fill="#F5F5F5"/>
<path d="M107.519 260.39C107.507 260.304 107.507 260.216 107.519 260.13C107.519 259.93 107.519 259.68 107.519 259.35C107.519 258.64 107.459 257.64 107.409 256.35C107.319 253.72 107.199 249.97 107.039 245.35C106.719 236.05 106.209 223.21 105.479 209.04C104.749 194.87 103.919 182.04 103.279 172.76L102.519 161.76C102.429 160.48 102.359 159.48 102.319 158.76C102.319 158.43 102.319 158.18 102.319 157.98C102.319 157.78 102.319 157.72 102.319 157.71C102.33 157.8 102.33 157.89 102.319 157.98C102.319 158.17 102.319 158.43 102.409 158.75C102.469 159.46 102.559 160.46 102.679 161.75C102.909 164.34 103.219 168.09 103.569 172.75C104.279 182.02 105.139 194.84 105.869 209.02C106.599 223.2 107.069 236.02 107.319 245.34C107.449 249.99 107.539 253.75 107.569 256.34C107.569 257.63 107.569 258.63 107.569 259.34V260.12C107.529 260.3 107.519 260.39 107.519 260.39Z" fill="#263238"/>
<path d="M74.6 145.8L75.5 145.32L57.5 154.75L64.3 201.31L68.08 225.31L54 282.23C54 282.23 64.58 289.14 69.88 287.78C72.71 287.05 75.13 281.36 77 276.88C80.7428 267.944 83.1713 258.512 84.21 248.88C85.21 239.19 86.21 226.88 85.52 218.46C84.2 202.79 82.13 176.94 81.94 170.14C81.75 163.34 80.15 138.29 80.15 138.29L74.6 145.8Z" fill="#263238"/>
<path d="M107.819 136.17L118.279 141.84L127.459 143.41L139.839 170.51L137.479 219.51L149.839 280C149.839 280 140.779 283.21 137.189 281.89C133.599 280.57 128.699 272.45 128.509 267.54C128.319 262.63 121.339 215.07 121.339 215.07L115.399 159.16C114.838 153.829 113.349 148.638 110.999 143.82L107.819 136.17Z" fill="#263238"/>
<path d="M118.28 143.41C118.4 143.528 118.51 143.655 118.61 143.79L119.55 144.93L123.01 149.27L123.08 149.36L122.99 149.43L120.05 151.66V151.42L123.5 152.51H123.6V152.63C123.54 158.76 123.46 166.49 123.37 174.87C123.22 185.1 123.08 194.35 122.98 201.09C122.92 204.42 122.86 207.09 122.82 209.03C122.82 209.94 122.82 210.67 122.76 211.19C122.76 211.42 122.76 211.6 122.76 211.75C122.76 211.9 122.76 211.94 122.76 211.94C122.76 211.94 122.76 211.88 122.76 211.75C122.76 211.62 122.76 211.42 122.76 211.19C122.76 210.66 122.76 209.94 122.76 209.03C122.76 207.12 122.76 204.41 122.76 201.08C122.83 194.35 122.92 185.08 123.03 174.86C123.15 166.49 123.26 158.76 123.34 152.62L123.45 152.77L120.02 151.65L119.76 151.57L119.98 151.41L122.98 149.21V149.38L119.6 144.98L118.71 143.8C118.557 143.681 118.414 143.551 118.28 143.41Z" fill="#455A64"/>
<path d="M84.7097 208.71C84.6771 208.654 84.6535 208.593 84.6397 208.53L84.4597 207.98L83.7697 205.86C83.1697 204.03 82.2697 201.38 81.1197 198.12L79.2197 192.8C78.4689 190.768 77.8247 188.699 77.2897 186.6C76.1284 181.785 75.2238 176.911 74.5797 172C73.6497 165.2 73.0397 158.78 72.6797 153.27V153.19L72.7397 153.13L75.7397 150.27V150.51L72.9197 148.37L72.8197 148.28L72.8997 148.17L77.9797 141.28L79.3697 139.42L79.7497 138.95C79.7892 138.893 79.8327 138.84 79.8797 138.79C79.8797 138.79 79.8797 138.86 79.7797 138.97L79.4397 139.47L78.0997 141.38L73.0997 148.38V148.18L75.9297 150.3L76.0797 150.41L75.9497 150.53L72.9497 153.42L72.9997 153.28C73.3997 158.79 73.9997 165.2 74.9997 171.99C75.6367 176.895 76.5245 181.765 77.6597 186.58C78.233 188.786 78.863 190.846 79.5497 192.76L81.4097 198.1C82.5297 201.37 83.4097 204.03 83.9397 205.88C84.2197 206.81 84.4297 207.53 84.5597 208.02C84.6197 208.25 84.6697 208.44 84.6997 208.58C84.7297 208.72 84.7097 208.71 84.7097 208.71Z" fill="#455A64"/>
<path d="M130.99 242.84L133.24 249.83L145.98 248.66L142.01 241.97L130.99 242.84Z" fill="#263238"/>
<path d="M131 242.84C131 242.84 131.25 242.84 131.76 242.74L133.99 242.52C135.92 242.34 138.7 242.08 141.99 241.8H142.09L142.15 241.9L146.15 248.57L146.3 248.83H146L145.34 248.89L133.26 250H133.14V249.89C132.45 247.7 131.92 245.89 131.56 244.71C131.4 244.14 131.26 243.71 131.15 243.32C131.1 243.166 131.06 243.009 131.03 242.85C131.108 243.015 131.175 243.185 131.23 243.36L131.72 244.77C132.15 246.02 132.72 247.77 133.43 249.77L133.27 249.66L145.35 248.5L146 248.44L145.85 248.73L141.9 242.04L142.06 242.13C138.84 242.37 136.06 242.54 134.16 242.66L131.88 242.79C131.31 242.84 131 242.85 131 242.84Z" fill="#455A64"/>
<g opacity="0.3">
<path d="M123.409 152.65L125.509 155.55C125.509 155.55 124.919 199.49 122.689 210.4L123.409 152.65Z" fill="black"/>
</g>
<path d="M80.8496 145.31C81.0698 145.654 81.3355 145.967 81.6396 146.24C82.1796 146.81 82.9696 147.62 83.9596 148.62C85.9596 150.62 88.6896 153.31 91.7696 156.27L93.7696 158.27L94.1096 158.6L94.2696 158.16C95.2696 155.38 96.2696 152.86 96.9896 150.78L96.6196 150.86L99.2196 153.2C99.519 153.503 99.8549 153.769 100.22 153.99C99.9814 153.621 99.6956 153.284 99.3696 152.99C98.7996 152.4 97.9596 151.55 96.9096 150.51L96.6696 150.27L96.5396 150.59C95.7396 152.66 94.7596 155.16 93.6796 157.92L94.1796 157.81L92.1796 155.81C89.0996 152.81 86.2896 150.19 84.2296 148.29C83.2296 147.29 82.3696 146.57 81.7796 146.06C81.5033 145.771 81.1907 145.519 80.8496 145.31Z" fill="#263238"/>
<path d="M104.439 153.06C105.17 151.78 105.792 150.442 106.299 149.06L105.889 149.13C107.383 151.077 108.614 153.212 109.549 155.48C109.719 155.87 109.859 156.26 109.999 156.63L110.339 157.55L110.599 156.61C111.265 154.16 111.631 151.638 111.689 149.1C111.766 148.069 111.698 147.032 111.489 146.02C111.362 147.035 111.289 148.057 111.269 149.08C111.086 151.569 110.657 154.034 109.989 156.44H110.589C110.449 156.06 110.299 155.66 110.129 155.26C109.175 152.937 107.873 150.772 106.269 148.84L105.999 148.52L105.849 148.9C105.268 150.246 104.797 151.637 104.439 153.06Z" fill="#263238"/>
<path d="M106.71 155.6L104.219 159.27H100.479L98.4795 155.6L100.389 151.57L103.649 151.11L106.71 155.6Z" fill="#4EB3E2"/>
<path d="M104.36 157.4L115.64 242.57L106 255.64L96.3496 241.78L100.62 157.4H104.36Z" fill="#4EB3E2"/>
<path d="M126.32 250C126.306 250.629 126.346 251.258 126.44 251.88C126.59 253.2 126.78 254.88 127.01 256.97C127.24 259.06 127.59 261.71 127.94 264.52C128.38 267.614 129.141 270.654 130.21 273.59C131.38 276.66 132.9 279.68 135.49 281.28C136.713 281.957 138.092 282.302 139.49 282.28C140.684 282.289 141.875 282.189 143.05 281.98C144.746 281.699 146.418 281.288 148.05 280.75C148.66 280.585 149.251 280.354 149.81 280.06C149.191 280.176 148.58 280.33 147.98 280.52C146.334 280.949 144.665 281.283 142.98 281.52C141.829 281.694 140.664 281.768 139.5 281.74C138.19 281.758 136.897 281.434 135.75 280.8C133.4 279.33 131.89 276.4 130.75 273.38C128.42 267.23 128.11 261.19 127.4 256.93C127.09 254.87 126.83 253.17 126.63 251.86C126.578 251.233 126.474 250.61 126.32 250Z" fill="#455A64"/>
<path d="M84.8794 252.5C84.8762 252.69 84.8459 252.879 84.7894 253.06L84.3994 254.66C84.0594 256.04 83.5194 258.03 82.8194 260.48C81.0362 266.872 78.8757 273.153 76.3494 279.29C75.6083 281.042 74.7566 282.746 73.7994 284.39C73.3406 285.182 72.8083 285.928 72.2094 286.62L71.7394 287.1C71.5594 287.25 71.3694 287.38 71.1894 287.52C70.9911 287.648 70.78 287.756 70.5594 287.84C70.3494 287.91 70.1294 287.93 69.9194 287.98C68.3044 288.219 66.6568 288.107 65.0894 287.65C63.7214 287.293 62.3838 286.829 61.0894 286.26C59.2436 285.455 57.4559 284.523 55.7394 283.47C55.1294 283.1 54.6594 282.79 54.3594 282.58C54.1929 282.482 54.0385 282.364 53.8994 282.23C54.0797 282.295 54.2511 282.382 54.4094 282.49L55.8394 283.29C57.5856 284.27 59.385 285.151 61.2294 285.93C62.503 286.457 63.8131 286.892 65.1494 287.23C66.6521 287.65 68.227 287.745 69.7694 287.51C70.5716 287.378 71.2898 286.936 71.7694 286.28C72.3446 285.608 72.8568 284.885 73.2994 284.12C74.2364 282.507 75.0714 280.837 75.7994 279.12C78.3165 273 80.5194 266.755 82.3994 260.41C83.1194 258.03 83.7094 256.08 84.1394 254.64C84.3327 254.013 84.4927 253.493 84.6194 253.08C84.6844 252.878 84.7716 252.683 84.8794 252.5Z" fill="#455A64"/>
<path d="M65.0994 151C65.0994 151 49.6294 154.47 47.6594 167.77C45.3894 183.08 43.3994 218.12 43.3994 218.12L69.9194 182.61" fill="#263238"/>
<path d="M60.1699 154.05C60.1699 154.05 60.8499 154.66 61.8699 155.71C64.5374 158.46 66.3865 161.898 67.2099 165.64C67.5199 167.07 67.5899 167.98 67.6499 167.98C67.6854 167.765 67.6854 167.545 67.6499 167.33C67.621 166.746 67.5508 166.164 67.4399 165.59C66.7378 161.757 64.8488 158.241 62.0399 155.54C61.6189 155.131 61.1712 154.75 60.6999 154.4C60.5393 154.26 60.3611 154.143 60.1699 154.05Z" fill="#263238"/>
<path d="M139.339 161.83C139.169 161.83 138.629 174.2 138.149 189.47C137.669 204.74 137.409 217.12 137.589 217.12C137.769 217.12 138.29 204.76 138.78 189.49C139.27 174.22 139.509 161.84 139.339 161.83Z" fill="#455A64"/>
<path d="M57.5298 154.75C57.5298 154.75 50.3298 159.61 49.5298 163.54C48.8498 166.72 43.1598 214.54 42.4298 220.48C41.6998 226.42 38.8698 238.8 46.1298 243.73C51.0098 247.04 66.4298 250.36 66.4298 250.36C64.9098 243.25 68.0198 238.05 75.6098 234.11L65.2998 224.38L69.9198 182.61L57.5298 154.75Z" fill="#263238"/>
<path d="M68.1098 225.29C67.9298 225.29 65.4098 212.29 62.4798 196.2C59.5498 180.11 57.3098 167 57.4798 167C57.6498 167 60.1798 180 63.1198 196.09C66.0598 212.18 68.2798 225.25 68.1098 225.29Z" fill="#455A64"/>
<path d="M66.1203 215.71C66.1714 216.537 66.148 217.367 66.0503 218.19C65.9503 219.74 65.7703 221.91 65.5503 224.41L65.4803 224.2L67.4803 226.06C69.7703 228.23 71.8203 230.22 73.2903 231.68C74.121 232.427 74.8902 233.239 75.5903 234.11C74.685 233.454 73.8324 232.729 73.0403 231.94C71.5003 230.56 69.4103 228.61 67.1203 226.44L65.1203 224.57L65.0303 224.48V224.36C65.2803 221.87 65.5103 219.7 65.7003 218.16C65.7644 217.332 65.905 216.512 66.1203 215.71Z" fill="#455A64"/>
<path d="M55 230.55C56.0564 228.793 57.5889 227.372 59.42 226.45C61.1644 225.374 63.181 224.823 65.23 224.86C63.3084 225.319 61.4436 225.99 59.67 226.86C57.9838 227.917 56.4179 229.154 55 230.55Z" fill="#455A64"/>
<path d="M90.0499 189.52C89.9952 190.441 89.759 191.342 89.355 192.171C88.951 193 88.3871 193.741 87.6957 194.352C87.0043 194.962 86.1991 195.43 85.3263 195.728C84.4535 196.027 83.5304 196.15 82.6099 196.09C81.6472 196.04 80.7054 195.79 79.8445 195.357C78.9836 194.923 78.2226 194.314 77.6099 193.57C75.6799 191.19 72.1899 187.79 67.8499 187.57C61.1299 187.15 56.0999 192.24 55.6199 199.86C55.1399 207.48 59.5099 213.15 66.2399 213.57C70.5799 213.84 74.4599 210.9 76.6699 208.78C77.3639 208.121 78.1869 207.613 79.087 207.287C79.9872 206.962 80.9449 206.827 81.8999 206.89C82.8207 206.945 83.7215 207.181 84.5507 207.585C85.3799 207.989 86.121 208.553 86.7316 209.244C87.3421 209.936 87.81 210.741 88.1083 211.614C88.4066 212.486 88.5295 213.409 88.4699 214.33L85.4699 261.87L191.26 266.37L193.55 216.37C193.605 215.449 193.841 214.548 194.245 213.719C194.649 212.89 195.213 212.149 195.904 211.538C196.596 210.928 197.401 210.46 198.274 210.162C199.146 209.863 200.069 209.74 200.99 209.8C201.953 209.85 202.894 210.099 203.755 210.533C204.616 210.967 205.377 211.576 205.99 212.32C207.92 214.7 211.41 218.1 215.75 218.37C222.47 218.79 227.51 213.7 227.98 206.08C228.45 198.46 224.09 192.79 217.37 192.37C213.03 192.1 209.14 195.04 206.93 197.16C206.237 197.82 205.414 198.329 204.513 198.654C203.613 198.98 202.655 199.114 201.7 199.05C197.83 198.81 194.23 195.88 194.47 192.05L196.27 149.61L91.5099 145.15L90.0499 189.52Z" fill="#4EB3E2"/>
<path d="M77.1501 237.57C77.1501 237.57 80.2701 235.15 82.5901 235.05C84.9101 234.95 87.9301 235.86 88.5301 235.56C89.1301 235.26 90.5301 233.93 91.4501 235.04C92.3701 236.15 93.4501 240.19 88.6301 241.3H85.3101C85.4801 242.895 85.888 244.455 86.5201 245.93C87.3201 247.24 98.6001 261.44 98.6001 261.44C98.6001 261.44 100.01 262.85 99.3101 264.26C98.6101 265.67 95.5801 264.86 95.5801 264.86C94.9716 265.397 94.2366 265.77 93.4443 265.945C92.6519 266.12 91.8281 266.09 91.0501 265.86C89.8517 265.457 88.704 264.917 87.6301 264.25C86.8497 264.848 85.8936 265.173 84.9101 265.173C83.9266 265.173 82.9706 264.848 82.1901 264.25C79.3701 262.14 68.1201 248.25 68.1201 248.25L73.3201 237.14L77.1501 237.57Z" fill="#FFBF9D"/>
<path d="M73.9996 235L77.1996 237.55C72.4496 241.01 69.9796 245.25 70.0096 250.34L65.9196 247.51C65.9196 247.51 65.1796 237.07 73.9996 235Z" fill="#F5F5F5"/>
<path d="M86.8701 255.64C87.0001 255.54 88.6901 257.8 91.1001 260.27C93.5101 262.74 95.7701 264.45 95.6601 264.59C95.0943 264.334 94.5688 263.997 94.1001 263.59C92.9055 262.695 91.7791 261.712 90.7301 260.65C89.688 259.582 88.7254 258.439 87.8501 257.23C87.4425 256.754 87.1118 256.218 86.8701 255.64Z" fill="#FF9A6C"/>
<path d="M81.2803 258.46C81.4103 258.35 82.6603 259.86 84.5103 261.35C85.7282 262.168 86.8026 263.182 87.6903 264.35C86.4589 263.57 85.2888 262.698 84.1903 261.74C82.992 260.872 81.9986 259.753 81.2803 258.46Z" fill="#FF9A6C"/>
<path d="M190.51 171.23C190.51 171.23 191.01 167.81 198.2 168.97C202.71 169.7 200.35 172.62 200.35 172.62C200.686 172.911 200.948 173.279 201.111 173.694C201.274 174.108 201.334 174.556 201.286 174.998C201.237 175.441 201.082 175.865 200.834 176.235C200.586 176.604 200.251 176.908 199.86 177.12L200.33 177.47C200.33 177.47 203.92 179.27 200.82 182.47C201.134 183.04 201.263 183.693 201.19 184.34C201.116 184.987 200.844 185.595 200.41 186.08C198.87 187.63 195 185.57 195 185.57C195 185.57 189.53 185.48 189.22 184.03C189.124 183.59 189.179 183.13 189.377 182.725C189.575 182.321 189.903 181.994 190.31 181.8C191.569 181.566 192.841 181.413 194.12 181.34C194.12 181.34 189.34 181.29 188.91 180.34C188.14 178.67 188.34 176.96 194.12 177.18C194.12 177.18 189.82 177.09 189.33 176.18C188.84 175.27 189.44 173.89 190.99 173.18C191.903 172.743 192.908 172.534 193.92 172.57C193.92 172.57 189.9 173.39 190.51 171.23Z" fill="#FFBF9D"/>
<path d="M200.13 172.64C198.839 172.792 197.538 172.839 196.24 172.78C194.945 172.875 193.645 172.875 192.35 172.78C193.596 172.35 194.913 172.16 196.23 172.22C197.544 172.118 198.867 172.26 200.13 172.64Z" fill="#FF9A6C"/>
<path d="M199.94 177.29C198.718 177.388 197.491 177.388 196.27 177.29C195.046 177.361 193.819 177.334 192.6 177.21C193.785 176.822 195.036 176.672 196.28 176.77C197.522 176.692 198.768 176.868 199.94 177.29Z" fill="#FF9A6C"/>
<path d="M200.91 182.71C200.85 182.85 199.22 182.14 197.09 181.8C194.96 181.46 193.2 181.59 193.18 181.43C194.478 181.034 195.856 180.982 197.18 181.28C198.528 181.417 199.815 181.911 200.91 182.71Z" fill="#FF9A6C"/>
</svg>
