<svg width="200" height="200" viewBox="0 0 200 200" fill="none" xmlns="http://www.w3.org/2000/svg">
<path d="M117.887 150.459C124.445 150.731 140.848 155.973 140.456 163.474C140.229 167.806 134.561 170.781 131.138 172.346C117.75 178.464 99.9688 178.93 85.3778 176.843C78.9235 175.919 58.6465 171.771 59.4883 162.36C60.1223 155.271 77.1755 150.025 82.0255 150.447L82.1485 150.459L82.2477 150.577C83.0782 151.58 83.7696 152.725 84.4797 153.815L87.5922 158.597C89.6247 161.713 91.8067 164.702 94.0079 167.699C95.7356 170.052 98.7094 175.372 102.235 172.419C104.78 170.287 111.563 160.084 113.511 157.159L116.588 152.455C117.007 151.81 117.409 151.056 117.887 150.459Z" fill="#4EB3E2"/>
<path d="M82.1483 150.459C81.2624 148.158 79.5401 145.956 78.23 143.863C70.0276 130.756 61.5733 116.379 55.3722 102.343C47.5257 84.5837 43.5854 70.7302 52.1124 51.5009C63.5347 25.7403 94.3249 12.936 120.355 24.4938C133.539 30.3482 144.41 40.9552 149.646 54.5571C156.477 72.3059 152.914 83.8094 145.542 100.297C140.217 112.206 133.988 123.528 127.322 134.716L117.887 150.459C117.409 151.056 117.007 151.81 116.587 152.456L113.511 157.159C111.563 160.084 104.78 170.287 102.235 172.419C98.7093 175.372 95.7354 170.052 94.0077 167.699C91.8065 164.702 89.6245 161.713 87.5921 158.597L84.4796 153.815C83.7694 152.725 83.078 151.58 82.2476 150.577L82.1483 150.459Z" fill="#303030"/>
<path d="M98.4259 28.6129C124.544 26.9206 149.21 53.4024 143.958 79.3391C143.056 83.7938 141.095 88.4708 139.379 92.6743C129.966 115.732 114.849 139.022 100.985 159.835C100.707 160.276 100.404 160.703 100.109 161.133C99.1012 160.013 98.2766 158.603 97.429 157.357C84.8399 138.849 58.0223 97.8403 55.7536 75.2446C54.7606 65.3587 59.368 52.7157 65.6196 45.0954C74.3149 34.4959 85.1919 29.8744 98.4259 28.6129Z" fill="#EA715D"/>
<path d="M99.665 41.7914C115.297 41.1113 128.289 54.5449 128.445 69.8917C128.601 85.364 116.004 98.3421 100.523 98.457C84.6607 99.2718 71.6795 85.5167 71.6373 70.0195C71.5963 54.7757 84.4178 41.8269 99.665 41.7914Z" fill="#303030"/>
<path d="M99.7357 50.4073C104.462 49.8963 109.764 52.2413 113.212 55.3639C126.443 67.3471 118.499 89.1893 100.594 89.9311L100.505 89.9338C89.7232 90.2295 80.3998 81.4741 80.2271 70.6479C80.0537 59.787 88.8353 50.5706 99.7357 50.4073Z" fill="#FEFEFE"/>
</svg>
