<svg width="440" height="500" viewBox="0 0 440 500" fill="none" xmlns="http://www.w3.org/2000/svg">
<path d="M133.91 322.65H65.1201V453.2H133.91V322.65Z" fill="#E0E0E0"/>
<path d="M133.91 322.65H101.66V453.2H133.91V322.65Z" fill="#EBEBEB"/>
<path d="M85.7298 334.93H79.5498V349.96H85.7298V334.93Z" fill="#F5F5F5"/>
<path d="M85.7298 393.74H79.5498V408.77H85.7298V393.74Z" fill="#F5F5F5"/>
<path d="M101.66 355.86C101.66 355.99 93.4801 356.09 83.3901 356.09C73.3001 356.09 65.1201 355.99 65.1201 355.86C65.1201 355.73 73.3001 355.62 83.3901 355.62C93.4801 355.62 101.66 355.73 101.66 355.86Z" fill="#F5F5F5"/>
<path d="M85.7298 364.56H79.5498V379.59H85.7298V364.56Z" fill="#F5F5F5"/>
<path d="M101.66 385.49C101.66 385.61 93.4801 385.72 83.3901 385.72C73.3001 385.72 65.1201 385.61 65.1201 385.49C65.1201 385.37 73.3001 385.25 83.3901 385.25C93.4801 385.25 101.66 385.36 101.66 385.49Z" fill="#F5F5F5"/>
<path d="M114.69 334.93H108.51V349.96H114.69V334.93Z" fill="#E0E0E0"/>
<path d="M128.11 334.93H121.93V349.96H128.11V334.93Z" fill="#E0E0E0"/>
<path d="M114.69 363.45H108.51V378.48H114.69V363.45Z" fill="#E0E0E0"/>
<path d="M128.11 363.45H121.93V378.48H128.11V363.45Z" fill="#E0E0E0"/>
<path d="M114.69 391.96H108.51V406.99H114.69V391.96Z" fill="#E0E0E0"/>
<path d="M128.11 391.96H121.93V406.99H128.11V391.96Z" fill="#E0E0E0"/>
<path d="M139.08 319.49H59.9502V322.76H139.08V319.49Z" fill="#E0E0E0"/>
<path d="M134.39 323.07C134.39 323.2 119.02 323.3 100.06 323.3C81.1002 323.3 65.7202 323.2 65.7202 323.07C65.7202 322.94 81.0902 322.84 100.06 322.84C119.03 322.84 134.39 322.94 134.39 323.07Z" fill="#EBEBEB"/>
<path d="M81.4999 371.61H19.9199V452.83H81.4999V371.61Z" fill="#EBEBEB"/>
<path d="M81.4999 371.61H52.6299V452.83H81.4999V371.61Z" fill="#E0E0E0"/>
<path d="M38.3701 382.61H32.8301V396.06H38.3701V382.61Z" fill="#F5F5F5"/>
<path d="M38.3701 435.26H32.8301V448.71H38.3701V435.26Z" fill="#F5F5F5"/>
<path d="M52.6299 401.34C52.6299 401.49 45.2999 401.61 36.2699 401.61C27.2399 401.61 19.9199 401.49 19.9199 401.34C19.9199 401.19 27.2399 401.06 36.2699 401.06C45.2999 401.06 52.6299 401.19 52.6299 401.34Z" fill="#F5F5F5"/>
<path d="M38.3701 409.13H32.8301V422.58H38.3701V409.13Z" fill="#F5F5F5"/>
<path d="M52.6299 427.86C52.6299 428.01 45.2999 428.14 36.2699 428.14C27.2399 428.14 19.9199 428.01 19.9199 427.86C19.9199 427.71 27.2399 427.59 36.2699 427.59C45.2999 427.59 52.6299 427.71 52.6299 427.86Z" fill="#F5F5F5"/>
<path d="M64.3003 382.61H58.7603V396.06H64.3003V382.61Z" fill="#F5F5F5"/>
<path d="M76.31 382.61H70.77V396.06H76.31V382.61Z" fill="#F5F5F5"/>
<path d="M64.3003 408.13H58.7603V421.58H64.3003V408.13Z" fill="#F5F5F5"/>
<path d="M76.31 408.13H70.77V421.58H76.31V408.13Z" fill="#F5F5F5"/>
<path d="M64.3003 433.66H58.7603V447.11H64.3003V433.66Z" fill="#F5F5F5"/>
<path d="M76.31 433.66H70.77V447.11H76.31V433.66Z" fill="#F5F5F5"/>
<path d="M86.13 368.78H15.29V371.71H86.13V368.78Z" fill="#E0E0E0"/>
<path d="M81.9302 372C81.9302 372.15 68.1702 372.27 51.1902 372.27C34.2102 372.27 20.4502 372.15 20.4502 372C20.4502 371.85 34.2102 371.72 51.1902 371.72C68.1702 371.72 81.9302 371.84 81.9302 372Z" fill="#EBEBEB"/>
<path d="M52.4702 66.27C52.4702 66.27 42.6702 69.27 51.7102 90.27C60.7502 111.27 67.2902 121.9 67.2902 121.9C67.2902 121.9 68.8202 126.75 64.7902 127.22C60.7602 127.69 52.0802 125.71 49.9902 130.47C47.8102 135.4 51.1702 140.41 58.3302 145.08C65.4902 149.75 80.8102 160.57 82.2002 161.55C83.5902 162.53 84.8302 164.82 82.1302 165.55C79.4302 166.28 59.5802 167.1 60.5002 176.5C61.4202 185.9 83.5002 195.64 85.9202 196.75C88.3402 197.86 88.8302 198.94 88.5402 200.28C88.2502 201.62 81.5402 201.28 75.9202 201.68C70.3002 202.08 63.8202 203.63 64.8002 209C65.7802 214.37 78.4702 226.38 110.8 231.73L125.96 233.23L135.1 221C153 193.52 152.71 176.07 149.41 171.71C146.11 167.35 140.64 171.09 136.5 174.95C132.36 178.81 128.12 184 126.94 183.32C125.76 182.64 125.31 181.51 126.11 179C126.91 176.49 134.64 153.6 128.33 146.58C122.02 139.56 108.06 153.68 105.68 155.16C103.3 156.64 102.47 154.16 102.68 152.49C102.89 150.82 105.26 132.2 106.68 123.76C108.1 115.32 106.68 109.47 101.54 107.76C96.6101 106.09 92.2102 113.83 89.1502 116.48C86.0902 119.13 83.5302 114.73 83.5302 114.73C83.5302 114.73 80.1502 102.73 70.7302 81.89C61.3102 61.05 52.2702 66.34 52.2702 66.34" fill="#EBEBEB"/>
<path d="M126.53 236.87C119.67 221.5 107.93 193.97 97.7301 170.39C87.5301 146.81 78.2901 125.49 71.5001 110.08L63.5001 91.8501C62.5601 89.7101 61.8201 88.0401 61.3201 86.8501L60.7601 85.5501L60.5801 85.1001C60.663 85.2383 60.7365 85.382 60.8001 85.5301C60.9501 85.8401 61.1501 86.2601 61.4001 86.8101L63.6701 91.7301C65.6701 96.0101 68.4301 102.22 71.8601 109.91C78.7201 125.28 88.0201 146.59 98.2201 170.16C108.42 193.73 120.1 221.29 126.89 236.69" fill="#E0E0E0"/>
<path d="M62 133.73C62.346 133.816 62.6814 133.94 63 134.1C63.66 134.36 64.6 134.76 65.76 135.27C68.07 136.27 71.23 137.8 74.68 139.52L83.51 143.95L86.2 145.27C86.5544 145.404 86.8904 145.582 87.2 145.8C86.8549 145.715 86.5198 145.595 86.2 145.44C85.54 145.18 84.6 144.77 83.45 144.25C81.15 143.2 78.01 141.66 74.55 139.94L65.69 135.58L63 134.27C62.6477 134.128 62.3123 133.946 62 133.73Z" fill="#E0E0E0"/>
<path d="M88.3201 144.9C88.2001 144.84 91.0001 138.2 94.5801 130.05C98.1601 121.9 101.16 115.34 101.28 115.39C101.4 115.44 98.5901 122.09 95.0101 130.24C91.4301 138.39 88.4401 145 88.3201 144.9Z" fill="#E0E0E0"/>
<path d="M102.34 181.81C102.536 181.488 102.764 181.187 103.02 180.91L105.02 178.57C106.68 176.57 108.95 173.84 111.35 170.72C113.75 167.6 115.83 164.72 117.35 162.61L119.11 160.11C119.313 159.793 119.544 159.496 119.8 159.22C119.663 159.575 119.481 159.911 119.26 160.22C118.89 160.84 118.33 161.73 117.62 162.81C116.2 164.96 114.16 167.9 111.75 171.02C109.34 174.14 107.03 176.87 105.31 178.8C104.44 179.8 103.73 180.53 103.23 181.04C102.965 181.331 102.666 181.589 102.34 181.81Z" fill="#E0E0E0"/>
<path d="M76.3301 177C76.6654 176.985 77.0014 177.012 77.3301 177.08L80.1301 177.49C82.4901 177.86 85.7401 178.4 89.3201 179.02C92.9001 179.64 96.1501 180.23 98.5001 180.68L101.27 181.24C101.615 181.282 101.951 181.373 102.27 181.51C101.934 181.518 101.599 181.487 101.27 181.42L98.4801 181.01C96.1201 180.65 92.8701 180.11 89.2801 179.48C85.6901 178.85 82.4501 178.27 80.1101 177.82L77.3401 177.26C76.9946 177.212 76.6558 177.125 76.3301 177Z" fill="#E0E0E0"/>
<path d="M84.5698 211.1C85.0127 211.106 85.4542 211.15 85.8898 211.23L89.4798 211.74C92.4798 212.19 96.6798 212.85 101.28 213.6C105.88 214.35 110.05 215.07 113.06 215.6L116.62 216.26C117.058 216.323 117.49 216.427 117.91 216.57C117.467 216.563 117.025 216.52 116.59 216.44L113 215.93C110 215.48 105.81 214.82 101.2 214.07C96.5898 213.32 92.4398 212.61 89.4198 212.07L85.8598 211.41C85.42 211.353 84.9876 211.249 84.5698 211.1Z" fill="#E0E0E0"/>
<path d="M117.15 216.21C117.402 215.804 117.682 215.416 117.99 215.05L120.37 211.99C122.37 209.41 125.13 205.83 128.07 201.79C131.01 197.75 133.57 194.03 135.41 191.32C136.3 190.02 137.03 188.94 137.59 188.11C137.843 187.705 138.127 187.321 138.44 186.96C138.243 187.394 138.012 187.812 137.75 188.21C137.28 189 136.58 190.12 135.69 191.5C133.92 194.26 131.4 198.02 128.45 202.07C125.5 206.12 122.7 209.67 120.63 212.2C119.63 213.47 118.73 214.48 118.13 215.2C117.833 215.564 117.505 215.902 117.15 216.21Z" fill="#E0E0E0"/>
<path d="M344.8 275.76C324.54 261.61 319.95 235.34 320.75 211.76C320.88 207.82 320.45 203.66 322.32 200.2C324.19 196.74 328.57 194.38 332.1 196.04C335.03 197.42 336.31 200.83 337.94 203.64C340.127 207.399 343.334 210.46 347.19 212.47C349.7 213.77 352.8 214.57 355.28 213.2C358.68 211.33 359.08 206.63 359.06 202.71C359.014 195.377 358.967 188.07 358.92 180.79C358.92 176.87 358.92 172.87 360.1 169.15C361.28 165.43 364.02 161.97 367.75 160.93C371.48 159.89 376.09 162.03 376.87 165.87C377.2 167.47 376.87 169.12 376.99 170.75C377.11 172.38 377.85 174.18 379.4 174.63C380.95 175.08 382.53 173.98 383.7 172.83C387.75 168.83 390.5 163.78 393.06 158.7C395.62 153.62 398.12 148.44 401.79 144.12C405.46 139.8 410.54 136.39 416.15 136.07C421.76 135.75 427.75 139.22 429.15 144.73C430.55 150.24 427.35 155.86 423.84 160.34C418.633 166.972 412.497 172.819 405.62 177.7C404.38 178.58 403.04 179.53 402.57 180.98C401.72 183.59 404.2 186.19 406.78 187.05C409.7 188.05 412.87 187.72 415.93 188.05C418.99 188.38 422.29 189.76 423.45 192.64C425.06 196.64 421.71 200.85 418.45 203.64C411.844 209.152 404.338 213.486 396.26 216.45C393.38 217.5 390.34 218.45 388.02 220.45C385.7 222.45 384.29 226 385.69 228.76C387.09 231.52 390.69 232.4 393.69 231.84C396.69 231.28 399.41 229.64 402.29 228.56C407.68 226.56 414.63 226.9 418.09 231.56C420.35 234.62 420.55 238.88 419.41 242.56C418.27 246.24 415.93 249.35 413.46 252.25C404.83 262.38 393.77 270.54 381.28 274.87C368.79 279.2 357.2 280.38 344.78 275.87" fill="#F5F5F5"/>
<path d="M344.49 293.27C345.594 282.334 347.74 271.528 350.9 261C354.814 248.135 359.469 235.508 364.84 223.18C366.25 219.9 367.63 216.65 369 213.46C370.37 210.27 371.74 207.1 373.26 204.09C376.202 198.317 379.457 192.708 383.01 187.29C386.37 182.1 389.75 177.29 392.94 172.82C396.13 168.35 399.2 164.25 402.15 160.63C406.781 154.89 411.857 149.523 417.33 144.58C419.26 142.84 420.81 141.58 421.87 140.66L423.08 139.66C423.212 139.538 423.356 139.431 423.51 139.34C423.395 139.474 423.268 139.598 423.13 139.71L421.96 140.71C420.96 141.62 419.42 142.96 417.52 144.71C412.128 149.722 407.114 155.127 402.52 160.88C399.61 164.51 396.58 168.62 393.4 173.1C390.22 177.58 386.88 182.39 383.55 187.58C380.021 192.986 376.789 198.581 373.87 204.34C372.36 207.34 371.02 210.47 369.64 213.67C368.26 216.87 366.89 220.11 365.48 223.39C360.113 235.692 355.439 248.285 351.48 261.11C348.313 271.619 346.144 282.404 345 293.32" fill="#E0E0E0"/>
<path d="M373.47 204C373.284 203.455 373.157 202.892 373.09 202.32C372.88 201.24 372.64 199.66 372.36 197.71C371.81 193.81 371.22 188.39 370.61 182.42C370 176.45 369.33 171.05 368.72 167.16C368.42 165.22 368.16 163.65 367.97 162.57C367.833 162.014 367.759 161.443 367.75 160.87C367.97 161.398 368.135 161.948 368.24 162.51C368.52 163.58 368.85 165.14 369.24 167.08C369.98 170.95 370.72 176.36 371.34 182.34C371.96 188.32 372.47 193.57 372.89 197.65C373.08 199.49 373.25 201.04 373.38 202.28C373.475 202.848 373.505 203.425 373.47 204Z" fill="#E0E0E0"/>
<path d="M423.87 194.61C423.212 194.75 422.543 194.831 421.87 194.85C420.58 194.96 418.71 195.12 416.4 195.39C411.78 195.88 405.4 196.8 398.47 198.11C391.54 199.42 385.25 200.9 380.76 202.11C378.51 202.69 376.7 203.21 375.45 203.56C374.799 203.782 374.13 203.946 373.45 204.05C374.05 203.735 374.68 203.481 375.33 203.29C376.56 202.86 378.33 202.29 380.59 201.62C385.06 200.29 391.32 198.74 398.3 197.41C404.253 196.263 410.261 195.422 416.3 194.89C418.62 194.69 420.51 194.61 421.81 194.58C422.496 194.514 423.187 194.524 423.87 194.61Z" fill="#E0E0E0"/>
<path d="M351.52 260C351.52 260 351.37 259.8 351.17 259.39L350.31 257.57C349.57 255.98 348.55 253.65 347.31 250.77C344.88 244.99 341.77 236.91 338.46 227.95C335.15 218.99 332.12 210.88 329.81 205.06L327.06 198.18L326.32 196.31C326.222 196.093 326.151 195.865 326.11 195.63C326.251 195.82 326.365 196.029 326.45 196.25C326.69 196.74 326.97 197.34 327.32 198.07C328.06 199.66 329.07 201.98 330.32 204.87C332.76 210.64 335.86 218.72 339.17 227.69C342.48 236.66 345.51 244.75 347.82 250.57L350.57 257.45C350.87 258.2 351.11 258.82 351.31 259.33C351.404 259.545 351.475 259.77 351.52 260Z" fill="#E0E0E0"/>
<path d="M418.49 238.45C418.283 238.57 418.061 238.661 417.83 238.72L415.88 239.37L408.71 241.7C402.65 243.7 394.32 246.47 385.12 249.59C375.92 252.71 367.54 255.44 361.45 257.28C358.4 258.2 355.92 258.92 354.2 259.38L352.2 259.9C351.975 259.979 351.739 260.023 351.5 260.03C351.709 259.915 351.93 259.825 352.16 259.76L354.1 259.11L361.28 256.78C367.33 254.78 375.67 252.01 384.87 248.89C394.07 245.77 402.44 243.04 408.54 241.2C411.59 240.28 414.06 239.56 415.78 239.1L417.78 238.58C418.008 238.499 418.248 238.455 418.49 238.45Z" fill="#E0E0E0"/>
<path d="M440.24 454.64C440.24 454.78 341.63 454.9 220.01 454.9C98.3898 454.9 -0.240234 454.78 -0.240234 454.64C-0.240234 454.5 98.3498 454.37 220.01 454.37C341.67 454.37 440.24 454.49 440.24 454.64Z" fill="#263238"/>
<path d="M121.32 299.36C137.21 283.36 137.04 258.94 132.46 237.84C131.69 234.31 131.4 230.5 129.15 227.7C126.9 224.9 122.57 223.49 119.67 225.56C117.26 227.28 116.67 230.56 115.67 233.35C114.322 237.09 111.939 240.371 108.8 242.81C106.8 244.39 104.1 245.61 101.65 244.81C98.2802 243.68 97.1502 239.52 96.5302 235.99C95.3835 229.41 94.2268 222.833 93.0602 216.26C92.4402 212.73 91.8002 209.13 90.0602 205.98C88.3202 202.83 85.3702 200.17 81.8402 199.84C78.3102 199.51 74.5202 202.2 74.4402 205.78C74.5749 207.264 74.8088 208.737 75.1402 210.19C75.3102 211.67 74.9202 213.41 73.6102 214.07C72.3002 214.73 70.6802 214 69.4402 213.16C65.1502 210.26 61.8502 206.16 58.7102 201.99C55.5702 197.82 52.4802 193.59 48.4702 190.31C44.4602 187.03 39.3402 184.78 34.2402 185.41C29.1402 186.04 24.3202 190.15 23.9502 195.33C23.5802 200.51 27.4002 205.05 31.2802 208.5C37.0458 213.618 43.5233 217.872 50.5102 221.13C51.8365 221.577 52.9857 222.435 53.7902 223.58C54.9802 225.79 53.1802 228.53 51.0002 229.73C48.5302 231.08 45.6302 231.33 42.9402 232.15C40.2502 232.97 37.5002 234.73 36.9402 237.52C36.1502 241.39 39.8502 244.61 43.2702 246.52C50.098 250.388 57.5396 253.053 65.2702 254.4C68.0402 254.88 70.9202 255.21 73.3402 256.65C75.7602 258.09 77.6002 261.03 76.7902 263.75C75.9802 266.47 72.8802 267.85 70.0702 267.84C67.2602 267.83 64.5702 266.84 61.8002 266.29C56.6202 265.35 50.4202 266.82 48.0802 271.57C46.5502 274.7 47.0802 278.57 48.6902 281.66C50.4628 284.675 52.8228 287.304 55.6302 289.39C64.9861 297.218 76.2539 302.418 88.2802 304.46C100.22 306.31 110.83 305.46 121.28 299.35" fill="#4EB3E2"/>
<path d="M124.46 315.05C121.683 305.384 117.983 296.007 113.41 287.05C107.776 276.124 101.519 265.53 94.6702 255.32L89.3402 247.26C87.5802 244.61 85.8302 241.99 83.9702 239.54C80.3825 234.818 76.5366 230.298 72.4502 226C68.5802 221.88 64.7602 218.12 61.1602 214.62C57.5602 211.12 54.1602 207.93 50.8702 205.16C45.7722 200.75 40.328 196.757 34.5902 193.22C32.5902 191.96 30.9602 191.04 29.8702 190.43L28.6202 189.74C28.4818 189.654 28.3342 189.583 28.1802 189.53C28.3092 189.631 28.4464 189.721 28.5902 189.8L29.8002 190.55C30.8802 191.19 32.4602 192.15 34.4602 193.44C40.125 197.058 45.5102 201.096 50.5702 205.52C53.7902 208.31 57.1902 211.52 60.7802 215.01C64.3702 218.5 68.1602 222.31 72.0102 226.43C76.0708 230.71 79.8932 235.21 83.4602 239.91C85.3102 242.36 87.0302 244.91 88.7902 247.61C90.5502 250.31 92.3202 252.95 94.1302 255.67C100.961 265.856 107.218 276.416 112.87 287.3C117.445 296.224 121.171 305.559 124 315.18" fill="#263238"/>
<path d="M83.7801 239.54C83.8653 239.025 83.8888 238.501 83.8501 237.98C83.8501 236.98 83.8501 235.51 83.7501 233.71C83.6101 230.11 83.2401 225.14 82.8201 219.71C82.4001 214.28 82.1101 209.28 82.0201 205.71C82.0201 203.92 81.9501 202.46 81.9401 201.46C81.9792 200.936 81.9523 200.408 81.8601 199.89C81.7524 200.403 81.6955 200.926 81.6901 201.45C81.6101 202.45 81.5701 203.91 81.5601 205.71C81.5601 209.32 81.7401 214.3 82.1701 219.79C82.6001 225.28 82.9901 230.07 83.2801 233.79C83.4101 235.47 83.5101 236.89 83.5901 238.04C83.5968 238.546 83.6605 239.049 83.7801 239.54Z" fill="#263238"/>
<path d="M36.9102 239.33C37.5288 239.346 38.1477 239.309 38.7602 239.22C39.9402 239.11 41.6502 238.94 43.7602 238.81C47.9902 238.5 53.8502 238.28 60.3302 238.32C66.8102 238.36 72.6702 238.66 76.9102 239C79.0302 239.15 80.7402 239.32 81.9102 239.43C82.5213 239.531 83.1413 239.568 83.7602 239.54C83.165 239.366 82.5562 239.242 81.9402 239.17C80.7702 238.99 79.0602 238.74 76.9402 238.53C72.7002 238.07 66.8202 237.7 60.3202 237.65C54.7753 237.596 49.2314 237.826 43.7102 238.34C41.5902 238.53 39.8802 238.77 38.7102 238.96C38.0989 239.021 37.4957 239.145 36.9102 239.33Z" fill="#263238"/>
<path d="M112.7 286.32C112.792 286.125 112.862 285.92 112.91 285.71L113.39 283.93C113.79 282.38 114.32 280.12 114.94 277.33C116.18 271.73 117.65 263.96 119.16 255.33C120.67 246.7 122.07 238.95 123.16 233.33C123.71 230.6 124.16 228.33 124.51 226.69C124.65 225.97 124.77 225.37 124.87 224.88C124.922 224.67 124.949 224.456 124.95 224.24C124.95 224.24 124.85 224.44 124.74 224.85L124.26 226.63C123.85 228.18 123.32 230.43 122.7 233.23C121.46 238.82 119.99 246.6 118.48 255.23C116.97 263.86 115.58 271.62 114.48 277.23C113.92 279.95 113.48 282.23 113.13 283.86C112.98 284.59 112.87 285.19 112.77 285.67C112.722 285.883 112.698 286.101 112.7 286.32Z" fill="#263238"/>
<path d="M48.9302 277.88C49.1384 277.946 49.3529 277.989 49.5702 278.01L51.4302 278.28L58.2602 279.2C64.0302 279.97 71.9802 281.13 80.7702 282.42C89.5602 283.71 97.5302 284.81 103.32 285.42C106.21 285.75 108.55 285.99 110.17 286.13L112.04 286.27C112.259 286.299 112.481 286.299 112.7 286.27C112.495 286.192 112.279 286.145 112.06 286.13L110.2 285.86L103.37 284.95C97.6002 284.17 89.6502 283.01 80.8602 281.72C72.0702 280.43 64.1002 279.33 58.3202 278.72C55.4202 278.39 53.0802 278.15 51.4602 278.01L49.5902 277.87C49.3713 277.834 49.1478 277.838 48.9302 277.88Z" fill="#263238"/>
<path d="M303.32 118.08C304.827 116.822 305.975 115.189 306.647 113.345C307.32 111.501 307.493 109.513 307.15 107.58C306.769 105.657 306.01 103.828 304.917 102.201C303.823 100.573 302.417 99.1796 300.78 98.1001C299.29 97.1001 297.44 96.2601 295.71 96.7801C294.911 97.0655 294.204 97.5605 293.662 98.2132C293.12 98.8659 292.764 99.6524 292.63 100.49C292.374 102.179 292.574 103.905 293.21 105.49C295.1 110.97 297.94 115.92 303.32 118.1" fill="#455A64"/>
<path d="M308.39 127.44C311.473 124.687 315.167 122.707 319.166 121.664C323.165 120.621 327.355 120.544 331.39 121.44C333.44 121.91 335.74 123 336.08 125.07C336.42 127.14 334.56 128.91 332.74 129.96C328.901 132.095 324.515 133.044 320.137 132.688C315.759 132.332 311.584 130.687 308.14 127.96" fill="#455A64"/>
<path d="M337.75 84.1101C336.042 83.7034 334.269 83.647 332.538 83.9443C330.807 84.2416 329.155 84.8865 327.68 85.8401C324.735 87.7613 322.271 90.3343 320.48 93.3601C316.85 99.0901 315.58 106.78 315.42 113.55C322.93 113.25 329.36 107.34 332.42 104.14C337.27 99.0801 342.97 86.9801 337.74 84.1401" fill="#455A64"/>
<path d="M297 137.67C297.684 136.768 298.309 135.823 298.87 134.84C300.821 131.026 302.247 126.966 303.11 122.77C303.953 118.516 303.629 114.114 302.17 110.03C301.708 108.809 301.097 107.651 300.35 106.58C299.81 105.83 299.46 105.47 299.42 105.5C300.293 107.012 301.045 108.59 301.67 110.22C302.935 114.234 303.172 118.501 302.36 122.63C301.488 126.769 300.146 130.795 298.36 134.63" fill="#263238"/>
<path d="M297 137.76L300.91 132.76C304.21 128.49 308.77 122.6 313.91 116.17C319.05 109.74 323.76 103.97 327.19 99.8L331.24 94.86C331.765 94.2767 332.237 93.6475 332.65 92.98C332.057 93.4819 331.506 94.0303 331 94.62C330 95.73 328.54 97.37 326.77 99.41C323.23 103.48 318.44 109.2 313.31 115.64C308.18 122.08 303.67 128.03 300.48 132.39C298.89 134.57 297.62 136.39 296.76 137.59" fill="#263238"/>
<path d="M326.71 125.87C326.295 125.675 325.854 125.54 325.4 125.47C324.885 125.332 324.36 125.232 323.83 125.17C323.132 125.055 322.427 124.978 321.72 124.94C319.878 124.829 318.029 124.899 316.2 125.15C311.7 125.77 307.406 127.43 303.66 130C302.137 131.049 300.723 132.248 299.44 133.58C298.943 134.083 298.476 134.614 298.04 135.17C297.672 135.572 297.337 136.003 297.04 136.46C296.55 137.19 296.62 137.53 296.66 137.56C297.634 136.308 298.673 135.106 299.77 133.96C301.076 132.71 302.492 131.578 304 130.58C305.856 129.394 307.822 128.389 309.87 127.58C311.936 126.8 314.072 126.224 316.25 125.86C318.036 125.578 319.843 125.455 321.65 125.49C324.79 125.56 326.68 126 326.71 125.87Z" fill="#263238"/>
<path d="M268.42 454.51L134.55 453.89C118.45 453.82 105.46 440.35 105.55 423.8L107 78.94C107.07 62.39 120.18 49.02 136.29 49.1L270.16 49.72C286.26 49.79 299.25 63.26 299.16 79.81L297.7 424.67C297.64 441.22 284.53 454.59 268.42 454.51Z" fill="#263238"/>
<path d="M288.55 364.13C288.55 364.714 288.377 365.285 288.052 365.77C287.727 366.255 287.266 366.633 286.726 366.856C286.187 367.079 285.593 367.137 285.021 367.023C284.448 366.908 283.923 366.626 283.51 366.212C283.098 365.799 282.818 365.272 282.705 364.699C282.593 364.126 282.653 363.533 282.877 362.994C283.102 362.455 283.482 361.995 283.968 361.672C284.455 361.349 285.026 361.178 285.61 361.18C286.391 361.183 287.138 361.495 287.689 362.048C288.24 362.6 288.55 363.349 288.55 364.13Z" fill="#E0E0E0"/>
<path d="M285.61 370.6C285.263 368.457 285.263 366.273 285.61 364.13C285.956 366.273 285.956 368.457 285.61 370.6Z" fill="#E0E0E0"/>
<path d="M272.83 61.1L246.06 61C245.187 61.0156 244.325 61.2031 243.524 61.5518C242.723 61.9005 241.999 62.4036 241.392 63.0322C240.786 63.6609 240.309 64.4029 239.99 65.2158C239.67 66.0287 239.514 66.8966 239.53 67.77V72.62C239.557 74.3803 238.884 76.0794 237.66 77.3448C236.436 78.6101 234.76 79.3384 233 79.37L180.81 79.13C179.047 79.0802 177.376 78.3332 176.163 77.0528C174.95 75.7724 174.294 74.0631 174.34 72.3V67.45C174.364 66.5766 174.215 65.7071 173.903 64.8911C173.591 64.0751 173.121 63.3286 172.52 62.6943C171.919 62.06 171.199 61.5503 170.401 61.1944C169.604 60.8385 168.743 60.6433 167.87 60.62H158.45L135 60.47C132.231 60.4568 129.486 60.9898 126.924 62.0386C124.361 63.0873 122.03 64.6311 120.065 66.5817C118.099 68.5322 116.538 70.8512 115.47 73.4059C114.402 75.9607 113.848 78.7009 113.84 81.47L112.41 419.36C112.397 422.129 112.93 424.873 113.978 427.436C115.027 429.999 116.571 432.33 118.522 434.295C120.472 436.261 122.791 437.822 125.346 438.89C127.901 439.958 130.641 440.512 133.41 440.52L271.22 441.16C273.989 441.172 276.732 440.638 279.295 439.589C281.857 438.539 284.187 436.996 286.152 435.045C288.117 433.095 289.679 430.777 290.747 428.222C291.816 425.668 292.371 422.929 292.38 420.16L293.8 82.26C293.821 76.6744 291.625 71.3087 287.693 67.3412C283.761 63.3738 278.415 61.1291 272.83 61.1Z" fill="#FAFAFA"/>
<path d="M121.58 327.74C122.76 326.86 180.39 301.47 180.39 301.47L113.07 267.89L112.84 322L121.58 327.74Z" fill="#EBEBEB"/>
<path d="M125.1 266.85L174.21 241.89L121.44 212.63L113.3 214.67L113.1 262.01L125.1 266.85Z" fill="#4EB3E2"/>
<path opacity="0.7" d="M125.1 266.85L174.21 241.89L121.44 212.63L113.3 214.67L113.1 262.01L125.1 266.85Z" fill="white"/>
<path d="M115.07 209.23L266.44 138.53L116.47 89.52L115.07 209.23Z" fill="#EBEBEB"/>
<path d="M113.31 393.35L182.48 357.85L285.45 418.43L260.92 439.94H173.05L113.31 403.43V393.35Z" fill="#EBEBEB"/>
<path d="M196.1 354.01L281.64 404.73L291.18 403.65V354.88L244.3 330.07L196.1 354.01Z" fill="#EBEBEB"/>
<path d="M210.16 305.58L290.81 350.95V291.64L261.63 279.14L210.16 305.58Z" fill="#EBEBEB"/>
<path d="M124.02 330.58L171.33 356.54L228.75 326.8L183.13 303.6L124.02 330.58Z" fill="#EBEBEB"/>
<path d="M195.04 241.56L262.06 274.77L293.14 258.9L293.34 236.64L248.07 214.67L195.04 241.56Z" fill="#EBEBEB"/>
<path d="M126.5 270.53L193.52 303.74L224.6 287.87L224.8 265.61L179.52 243.64L126.5 270.53Z" fill="#EBEBEB"/>
<path d="M135.78 210.84L190.4 238.19L241.34 210.84L188.56 186.76L135.78 210.84Z" fill="#EBEBEB"/>
<path d="M241.34 385.62C240.993 385.481 240.659 385.314 240.34 385.12L237.52 383.53L226.67 377.26L186.51 353.71L185.68 353.22L186.54 352.78L239.23 326V327.22L199.89 306.22L198.65 305.56L199.9 304.9L254.54 276.22V277.61L248.02 274.31L125.62 212.21L124.47 211.63L125.64 211.07L190.64 180.07L208.64 171.58L213.38 169.4L214.61 168.86C214.747 168.795 214.892 168.745 215.04 168.71C214.922 168.808 214.79 168.889 214.65 168.95L213.47 169.57L208.78 172L190.9 180.81L126.19 212.28V211.1L248.72 272.93L255.24 276.23L256.59 276.92L255.25 277.62L200.57 306.24V304.92L239.86 326L241.02 326.62L239.85 327.21L187 353.73V352.8L226.92 376.8L237.62 383.31L240.37 385.03C240.712 385.194 241.037 385.391 241.34 385.62Z" fill="#4EB3E2"/>
<path d="M229.59 136.64C229.59 126.64 219.11 120.34 208.42 125.34C206.005 126.47 204.03 128.365 202.8 130.73C200.11 135.94 201.3 141.89 203.73 146.83L212.05 167.91C212.31 168.585 212.768 169.164 213.365 169.573C213.961 169.982 214.667 170.201 215.39 170.201C216.113 170.201 216.819 169.982 217.415 169.573C218.011 169.164 218.469 168.585 218.73 167.91L226.88 146.72C229.71 140.24 229.59 136.64 229.59 136.64ZM219.59 145.32C212.4 149.5 205.12 141.78 209.06 134.16C209.577 133.155 210.367 132.316 211.34 131.74C218.53 127.56 225.81 135.28 221.87 142.9C221.342 143.911 220.537 144.75 219.55 145.32H219.59Z" fill="#4EB3E2"/>
<path d="M213.63 245.78L213.39 234L244.1 248.87V261.11L213.63 245.78Z" fill="#F5F5F5"/>
<path d="M244.1 248.87L282.24 229.92V243.11L244.1 261.11V248.87Z" fill="#E0E0E0"/>
<path d="M213.39 234L250.82 215.28L282.24 229.92L244.1 248.87L213.39 234Z" fill="#F5F5F5"/>
<path d="M217.4 239.09V244.8L220.4 246.15V240.69L217.4 239.09Z" fill="#FAFAFA"/>
<path d="M222.2 241.2V246.92L225.21 248.27V242.81L222.2 241.2Z" fill="#FAFAFA"/>
<path d="M117.01 171.45V156.12L153.36 173.73V188.21L117.01 171.45Z" fill="#E0E0E0"/>
<path d="M153.36 173.73L198.52 151.29V166.91L153.36 188.21V173.73Z" fill="#F5F5F5"/>
<path d="M117.01 156.12L161.31 133.97L198.52 151.29L153.36 173.73L117.01 156.12Z" fill="#FAFAFA"/>
<path d="M121.76 162.14V168.91L125.31 170.51V164.04L121.76 162.14Z" fill="#FAFAFA"/>
<path d="M127.44 164.65V171.41L131 173.02V166.55L127.44 164.65Z" fill="#FAFAFA"/>
<path d="M226.59 299.59V311.67L239.59 318.06V305.58L226.59 299.59Z" fill="#E0E0E0"/>
<path d="M256.09 297.67L239.54 305.58V318.06L256.09 308.82V297.67Z" fill="#E0E0E0"/>
<path d="M226.59 299.59L242.99 291.64L256.09 297.67L239.54 305.58L226.59 299.59Z" fill="#F5F5F5"/>
<path d="M231.19 308.26V313.97L234.19 315.33V309.87L231.19 308.26Z" fill="#FAFAFA"/>
<path d="M121.94 293.34V305.42L134.89 311.81V299.33L121.94 293.34Z" fill="#E0E0E0"/>
<path d="M151.45 291.42L134.89 299.33V311.81L151.45 302.57V291.42Z" fill="#E0E0E0"/>
<path d="M121.94 293.34L138.35 285.39L151.45 291.42L134.89 299.33L121.94 293.34Z" fill="#F5F5F5"/>
<path d="M126.54 302.01V307.72L129.54 309.08V303.62L126.54 302.01Z" fill="#FAFAFA"/>
<path d="M175.65 213.6V225.69L188.6 232.08V219.6L175.65 213.6Z" fill="#F5F5F5"/>
<path d="M205.16 211.69L188.6 219.6V232.08L205.16 222.84V211.69Z" fill="#E0E0E0"/>
<path d="M175.65 213.6L192.06 205.66L205.16 211.69L188.6 219.6L175.65 213.6Z" fill="#F5F5F5"/>
<path d="M180.25 222.28V227.99L183.25 229.35V223.88L180.25 222.28Z" fill="#E0E0E0"/>
<path d="M161.25 317.13V329.22L174.2 335.6V323.13L161.25 317.13Z" fill="#E0E0E0"/>
<path d="M190.76 315.21L174.21 323.13V335.6L190.76 326.37V315.21Z" fill="#EBEBEB"/>
<path d="M161.25 317.13L177.66 309.19L190.76 315.21L174.21 323.13L161.25 317.13Z" fill="#F5F5F5"/>
<path d="M165.85 325.8V331.52L168.85 332.87V327.41L165.85 325.8Z" fill="#FAFAFA"/>
<path d="M214.73 346.32V361.47L242 377.54V361.9L214.73 346.32Z" fill="#F5F5F5"/>
<path d="M262.79 350.72L242.03 361.9V377.54L262.79 365.96V350.72Z" fill="#E0E0E0"/>
<path d="M214.73 346.31L235.31 336.35L262.79 350.72L242.03 361.9L214.73 346.31Z" fill="#FAFAFA"/>
<path d="M225.04 360.33V367.49L228.81 369.75V362.67L225.04 360.33Z" fill="#FAFAFA"/>
<path d="M149.06 377.5V392.65L176.36 408.73V393.08L149.06 377.5Z" fill="#E0E0E0"/>
<path d="M208.94 375.43L176.36 393.08V408.73L209.03 390.62L208.94 375.43Z" fill="#FAFAFA"/>
<path d="M149.06 377.5L183.52 360.81L209.03 375.49L176.36 393.08L149.06 377.5Z" fill="#F5F5F5"/>
<path d="M159.37 391.51V398.68L163.13 400.94V393.85L159.37 391.51Z" fill="#FAFAFA"/>
<path d="M252.4 320.85V381.36L269.44 390.17V328.9L252.4 320.85Z" fill="#F5F5F5"/>
<path d="M264.99 315.05L252.4 320.85L269.44 328.9L280.9 322.44L264.99 315.05Z" fill="#FAFAFA"/>
<path d="M269.44 328.9V390.17L279.81 384.59L280.9 322.44L269.44 328.9Z" fill="#E0E0E0"/>
<path d="M180.39 271.84V332.35L197.43 341.16V279.89L180.39 271.84Z" fill="#F5F5F5"/>
<path d="M192.97 266.03L180.39 271.84L197.43 279.89L208.89 273.43L192.97 266.03Z" fill="#FAFAFA"/>
<path d="M197.43 279.89V341.16L207.79 336.05L208.89 273.43L197.43 279.89Z" fill="#E0E0E0"/>
<path d="M188.12 386.91V402.06L215.43 418.14V402.5L188.12 386.91Z" fill="#E0E0E0"/>
<path d="M236.18 391.32L215.43 402.5V418.14L236.18 406.56V391.32Z" fill="#FAFAFA"/>
<path d="M188.12 386.91L208.94 375.43L236.18 391.32L215.43 402.5L188.12 386.91Z" fill="#F5F5F5"/>
<path d="M198.43 400.92V408.09L202.2 410.35V403.26L198.43 400.92Z" fill="#FAFAFA"/>
<path d="M248.84 206.28L199.12 183.87L268.36 148.63L291.08 182.51L248.84 206.28Z" fill="#EBEBEB"/>
<path d="M293.1 226.86L293.44 188.06L254.89 210L293.1 226.86Z" fill="#4EB3E2"/>
<path d="M263.81 265.72C263.8 266.301 263.619 266.867 263.288 267.345C262.958 267.824 262.494 268.194 261.954 268.41C261.415 268.625 260.823 268.676 260.254 268.557C259.685 268.438 259.164 268.153 258.757 267.738C258.349 267.324 258.073 266.798 257.963 266.227C257.853 265.657 257.915 265.066 258.139 264.53C258.364 263.994 258.742 263.536 259.226 263.214C259.71 262.892 260.278 262.72 260.86 262.72C261.647 262.733 262.397 263.055 262.949 263.616C263.501 264.177 263.81 264.933 263.81 265.72Z" fill="#E0E0E0"/>
<path d="M260.86 272.19C260.513 270.047 260.513 267.863 260.86 265.72C261.206 267.863 261.206 270.047 260.86 272.19Z" fill="#E0E0E0"/>
<path d="M183.34 258.49C183.34 259.083 183.164 259.663 182.834 260.157C182.505 260.65 182.036 261.034 181.488 261.262C180.94 261.489 180.337 261.548 179.755 261.432C179.173 261.317 178.638 261.031 178.219 260.611C177.799 260.192 177.513 259.657 177.397 259.075C177.282 258.493 177.341 257.89 177.568 257.342C177.795 256.794 178.18 256.325 178.673 255.996C179.166 255.666 179.746 255.49 180.34 255.49C180.736 255.483 181.129 255.556 181.496 255.705C181.863 255.853 182.196 256.074 182.476 256.354C182.756 256.633 182.977 256.967 183.125 257.334C183.274 257.701 183.347 258.094 183.34 258.49Z" fill="#E0E0E0"/>
<path d="M180.39 265C180.043 262.857 180.043 260.673 180.39 258.53C180.736 260.673 180.736 262.857 180.39 265Z" fill="#E0E0E0"/>
<path d="M143.92 299.67C143.92 300.253 143.747 300.824 143.422 301.309C143.098 301.794 142.637 302.172 142.098 302.395C141.559 302.619 140.966 302.677 140.394 302.563C139.822 302.449 139.296 302.168 138.884 301.756C138.471 301.343 138.19 300.818 138.076 300.245C137.962 299.673 138.021 299.08 138.244 298.541C138.467 298.002 138.845 297.541 139.331 297.217C139.816 296.893 140.386 296.72 140.97 296.72C141.752 296.72 142.502 297.031 143.055 297.584C143.609 298.137 143.92 298.888 143.92 299.67Z" fill="#E0E0E0"/>
<path d="M141 306.14C140.653 303.997 140.653 301.813 141 299.67C141.346 301.813 141.346 303.997 141 306.14Z" fill="#E0E0E0"/>
<path d="M146.87 267.89C146.87 268.471 146.698 269.04 146.376 269.523C146.054 270.007 145.596 270.386 145.06 270.61C144.524 270.835 143.933 270.896 143.362 270.786C142.792 270.676 142.266 270.4 141.851 269.993C141.437 269.585 141.152 269.064 141.033 268.495C140.913 267.927 140.965 267.335 141.18 266.795C141.396 266.255 141.766 265.791 142.245 265.461C142.723 265.131 143.288 264.95 143.87 264.94C144.261 264.933 144.65 265.005 145.014 265.15C145.378 265.295 145.709 265.511 145.988 265.786C146.267 266.061 146.489 266.388 146.64 266.749C146.792 267.111 146.87 267.498 146.87 267.89Z" fill="#E0E0E0"/>
<path d="M143.92 274.36C143.573 272.217 143.573 270.033 143.92 267.89C144.266 270.033 144.266 272.217 143.92 274.36Z" fill="#E0E0E0"/>
<path d="M219.67 265C219.682 265.598 219.515 266.186 219.19 266.688C218.866 267.19 218.398 267.584 217.848 267.819C217.298 268.053 216.691 268.119 216.104 268.006C215.516 267.893 214.976 267.607 214.553 267.184C214.129 266.762 213.841 266.223 213.726 265.636C213.611 265.05 213.674 264.442 213.907 263.891C214.14 263.34 214.532 262.872 215.034 262.545C215.535 262.219 216.122 262.05 216.72 262.06C217.5 262.06 218.249 262.369 218.802 262.92C219.355 263.472 219.667 264.219 219.67 265Z" fill="#E0E0E0"/>
<path d="M216.72 271.44C216.373 269.297 216.373 267.113 216.72 264.97C217.066 267.113 217.066 269.297 216.72 271.44Z" fill="#E0E0E0"/>
<path d="M266.26 287.07C266.26 287.653 266.087 288.224 265.763 288.709C265.439 289.194 264.978 289.572 264.439 289.795C263.9 290.019 263.307 290.077 262.734 289.963C262.162 289.849 261.636 289.568 261.224 289.156C260.811 288.743 260.53 288.218 260.417 287.645C260.303 287.073 260.361 286.48 260.584 285.941C260.808 285.402 261.186 284.941 261.671 284.617C262.156 284.293 262.726 284.12 263.31 284.12C264.092 284.12 264.843 284.431 265.396 284.984C265.949 285.537 266.26 286.287 266.26 287.07Z" fill="#E0E0E0"/>
<path d="M263.31 293.54C262.963 291.397 262.963 289.213 263.31 287.07C263.656 289.213 263.656 291.397 263.31 293.54Z" fill="#E0E0E0"/>
<path d="M268.14 304.42C268.14 305.003 267.967 305.574 267.643 306.059C267.318 306.544 266.858 306.922 266.319 307.145C265.78 307.369 265.186 307.427 264.614 307.313C264.042 307.199 263.516 306.918 263.104 306.506C262.691 306.093 262.41 305.568 262.296 304.995C262.183 304.423 262.241 303.83 262.464 303.291C262.688 302.752 263.066 302.291 263.551 301.967C264.036 301.643 264.606 301.47 265.19 301.47C265.972 301.47 266.722 301.781 267.276 302.334C267.829 302.887 268.14 303.638 268.14 304.42Z" fill="#E0E0E0"/>
<path d="M265.19 310.89C264.843 308.747 264.843 306.563 265.19 304.42C265.536 306.563 265.536 308.747 265.19 310.89Z" fill="#E0E0E0"/>
<path d="M185.43 340.42C185.43 341.001 185.258 341.57 184.936 342.054C184.614 342.538 184.156 342.916 183.62 343.14C183.084 343.365 182.493 343.426 181.922 343.316C181.352 343.207 180.826 342.93 180.411 342.523C179.997 342.115 179.712 341.594 179.593 341.025C179.473 340.457 179.525 339.865 179.74 339.325C179.956 338.785 180.326 338.321 180.805 337.991C181.283 337.661 181.849 337.48 182.43 337.47C182.821 337.463 183.21 337.535 183.574 337.68C183.938 337.825 184.269 338.041 184.548 338.316C184.827 338.591 185.049 338.918 185.201 339.279C185.352 339.641 185.43 340.028 185.43 340.42Z" fill="#E0E0E0"/>
<path d="M182.48 346.89C182.133 344.747 182.133 342.563 182.48 340.42C182.826 342.563 182.826 344.747 182.48 346.89Z" fill="#E0E0E0"/>
<path d="M279.39 394.8C281.019 394.8 282.34 393.479 282.34 391.85C282.34 390.221 281.019 388.9 279.39 388.9C277.761 388.9 276.44 390.221 276.44 391.85C276.44 393.479 277.761 394.8 279.39 394.8Z" fill="#E0E0E0"/>
<path d="M279.39 398.32C279.043 396.177 279.043 393.993 279.39 391.85C279.736 393.993 279.736 396.177 279.39 398.32Z" fill="#E0E0E0"/>
<path d="M226 424.11C226.009 424.708 225.841 425.294 225.515 425.795C225.189 426.296 224.721 426.688 224.171 426.922C223.621 427.155 223.013 427.219 222.427 427.104C221.84 426.99 221.301 426.704 220.879 426.281C220.456 425.858 220.169 425.319 220.055 424.733C219.941 424.146 220.005 423.539 220.238 422.989C220.471 422.439 220.863 421.971 221.364 421.645C221.865 421.319 222.452 421.15 223.05 421.16C223.832 421.16 224.582 421.471 225.136 422.024C225.689 422.577 226 423.328 226 424.11Z" fill="#E0E0E0"/>
<path d="M223 430.58C222.653 428.437 222.653 426.253 223 424.11C223.346 426.253 223.346 428.437 223 430.58Z" fill="#E0E0E0"/>
<path d="M203.26 415.2C203.26 415.783 203.087 416.354 202.763 416.839C202.439 417.324 201.978 417.702 201.439 417.925C200.9 418.149 200.307 418.207 199.734 418.093C199.162 417.979 198.636 417.699 198.224 417.286C197.811 416.873 197.53 416.348 197.417 415.776C197.303 415.203 197.361 414.61 197.584 414.071C197.808 413.532 198.186 413.071 198.671 412.747C199.156 412.423 199.726 412.25 200.31 412.25C201.092 412.25 201.843 412.561 202.396 413.114C202.949 413.667 203.26 414.418 203.26 415.2Z" fill="#E0E0E0"/>
<path d="M200.31 421.67C199.963 419.527 199.963 417.343 200.31 415.2C200.67 417.342 200.67 419.528 200.31 421.67Z" fill="#E0E0E0"/>
<path d="M255.35 408.73C255.35 409.323 255.174 409.903 254.844 410.397C254.514 410.89 254.046 411.274 253.498 411.502C252.949 411.729 252.346 411.788 251.764 411.672C251.182 411.557 250.648 411.271 250.228 410.851C249.809 410.432 249.523 409.897 249.407 409.315C249.291 408.733 249.351 408.13 249.578 407.582C249.805 407.034 250.19 406.565 250.683 406.236C251.176 405.906 251.756 405.73 252.35 405.73C252.745 405.723 253.139 405.796 253.506 405.944C253.873 406.093 254.206 406.314 254.486 406.594C254.766 406.873 254.987 407.207 255.135 407.574C255.283 407.941 255.356 408.334 255.35 408.73Z" fill="#E0E0E0"/>
<path d="M252.4 415.2C252.053 413.057 252.053 410.873 252.4 408.73C252.746 410.873 252.746 413.057 252.4 415.2Z" fill="#E0E0E0"/>
<path d="M207.99 354.87C209.619 354.87 210.94 353.549 210.94 351.92C210.94 350.291 209.619 348.97 207.99 348.97C206.36 348.97 205.04 350.291 205.04 351.92C205.04 353.549 206.36 354.87 207.99 354.87Z" fill="#E0E0E0"/>
<path d="M208 358.39C207.653 356.247 207.653 354.063 208 351.92C208.346 354.063 208.346 356.247 208 358.39Z" fill="#E0E0E0"/>
<path d="M218.38 323.13C218.38 323.713 218.207 324.284 217.883 324.769C217.559 325.254 217.098 325.632 216.559 325.855C216.02 326.079 215.427 326.137 214.854 326.023C214.282 325.909 213.757 325.628 213.344 325.216C212.931 324.803 212.65 324.278 212.537 323.705C212.423 323.133 212.481 322.54 212.705 322.001C212.928 321.462 213.306 321.001 213.791 320.677C214.276 320.353 214.847 320.18 215.43 320.18C216.212 320.18 216.963 320.491 217.516 321.044C218.069 321.597 218.38 322.348 218.38 323.13Z" fill="#E0E0E0"/>
<path d="M215.43 329.6C215.083 327.457 215.083 325.273 215.43 323.13C215.776 325.273 215.776 327.457 215.43 329.6Z" fill="#E0E0E0"/>
<path d="M146.87 326.37C146.87 326.951 146.698 327.519 146.376 328.003C146.054 328.487 145.596 328.866 145.06 329.09C144.524 329.315 143.933 329.376 143.362 329.266C142.792 329.156 142.266 328.88 141.851 328.473C141.437 328.065 141.152 327.544 141.033 326.975C140.913 326.406 140.965 325.815 141.18 325.275C141.396 324.735 141.766 324.271 142.245 323.941C142.723 323.611 143.288 323.43 143.87 323.42C144.261 323.413 144.65 323.485 145.014 323.63C145.378 323.775 145.709 323.991 145.988 324.266C146.267 324.541 146.489 324.868 146.64 325.229C146.792 325.59 146.87 325.978 146.87 326.37Z" fill="#E0E0E0"/>
<path d="M143.92 332.84C143.573 330.697 143.573 328.513 143.92 326.37C144.266 328.513 144.266 330.697 143.92 332.84Z" fill="#E0E0E0"/>
<path d="M283.09 299.67C283.09 300.253 282.917 300.824 282.593 301.309C282.269 301.794 281.808 302.172 281.269 302.395C280.73 302.619 280.137 302.677 279.564 302.563C278.992 302.449 278.467 302.168 278.054 301.756C277.641 301.343 277.36 300.818 277.247 300.245C277.133 299.673 277.191 299.08 277.415 298.541C277.638 298.002 278.016 297.541 278.501 297.217C278.986 296.893 279.557 296.72 280.14 296.72C280.922 296.72 281.673 297.031 282.226 297.584C282.779 298.137 283.09 298.888 283.09 299.67Z" fill="#E0E0E0"/>
<path d="M280.14 306.14C279.793 303.997 279.793 301.813 280.14 299.67C280.486 301.813 280.486 303.997 280.14 306.14Z" fill="#E0E0E0"/>
<path d="M275.18 255.54C275.18 256.123 275.007 256.694 274.683 257.179C274.358 257.664 273.898 258.042 273.359 258.265C272.82 258.489 272.227 258.547 271.654 258.433C271.082 258.319 270.556 258.038 270.144 257.626C269.731 257.213 269.45 256.688 269.336 256.115C269.223 255.543 269.281 254.95 269.504 254.411C269.728 253.872 270.106 253.411 270.591 253.087C271.076 252.763 271.646 252.59 272.23 252.59C273.012 252.59 273.763 252.901 274.316 253.454C274.869 254.007 275.18 254.757 275.18 255.54Z" fill="#E0E0E0"/>
<path d="M272.23 262C271.883 259.857 271.883 257.673 272.23 255.53C272.576 257.673 272.576 259.857 272.23 262Z" fill="#E0E0E0"/>
<path d="M212.5 219.49C214.129 219.49 215.45 218.169 215.45 216.54C215.45 214.911 214.129 213.59 212.5 213.59C210.871 213.59 209.55 214.911 209.55 216.54C209.55 218.169 210.871 219.49 212.5 219.49Z" fill="#E0E0E0"/>
<path d="M212.5 223C212.14 220.858 212.14 218.672 212.5 216.53C212.846 218.673 212.846 220.857 212.5 223Z" fill="#E0E0E0"/>
<path d="M159.05 272.19C159.05 272.771 158.878 273.34 158.556 273.824C158.234 274.308 157.776 274.686 157.24 274.91C156.704 275.135 156.113 275.196 155.543 275.086C154.972 274.977 154.446 274.701 154.032 274.293C153.617 273.885 153.332 273.364 153.213 272.795C153.093 272.227 153.145 271.635 153.36 271.095C153.576 270.555 153.946 270.091 154.425 269.761C154.903 269.431 155.469 269.25 156.05 269.24C156.441 269.233 156.83 269.305 157.194 269.45C157.558 269.595 157.889 269.811 158.168 270.086C158.448 270.361 158.669 270.688 158.821 271.049C158.972 271.411 159.05 271.798 159.05 272.19Z" fill="#E0E0E0"/>
<path d="M156.1 278.66C155.753 276.517 155.753 274.333 156.1 272.19C156.46 274.332 156.46 276.518 156.1 278.66Z" fill="#E0E0E0"/>
<path d="M193.71 195.49C193.71 196.083 193.534 196.663 193.204 197.157C192.875 197.65 192.406 198.035 191.858 198.262C191.31 198.489 190.707 198.548 190.125 198.432C189.543 198.317 189.008 198.031 188.589 197.611C188.169 197.192 187.883 196.657 187.768 196.075C187.652 195.493 187.711 194.89 187.938 194.342C188.165 193.794 188.55 193.325 189.043 192.996C189.537 192.666 190.117 192.49 190.71 192.49C191.106 192.483 191.499 192.556 191.866 192.705C192.233 192.853 192.566 193.074 192.846 193.354C193.126 193.633 193.347 193.967 193.495 194.334C193.644 194.701 193.717 195.094 193.71 195.49Z" fill="#E0E0E0"/>
<path d="M190.76 202C190.413 199.857 190.413 197.673 190.76 195.53C191.107 197.673 191.107 199.857 190.76 202Z" fill="#E0E0E0"/>
<path d="M253.86 189C253.85 189.581 253.668 190.147 253.338 190.625C253.008 191.104 252.544 191.474 252.004 191.69C251.464 191.905 250.873 191.957 250.304 191.837C249.735 191.718 249.214 191.433 248.807 191.018C248.399 190.604 248.123 190.078 248.013 189.507C247.903 188.937 247.965 188.346 248.189 187.81C248.414 187.274 248.792 186.816 249.276 186.494C249.76 186.172 250.328 186 250.91 186C251.301 186 251.689 186.078 252.05 186.229C252.411 186.381 252.739 186.602 253.013 186.882C253.288 187.161 253.504 187.492 253.65 187.856C253.795 188.219 253.866 188.608 253.86 189Z" fill="#E0E0E0"/>
<path d="M250.91 195.49C250.563 193.347 250.563 191.163 250.91 189.02C251.256 191.163 251.256 193.347 250.91 195.49Z" fill="#E0E0E0"/>
<path d="M270.49 186.3C270.49 186.895 270.312 187.477 269.98 187.972C269.649 188.466 269.177 188.851 268.626 189.076C268.075 189.302 267.469 189.358 266.886 189.238C266.303 189.118 265.768 188.828 265.351 188.403C264.933 187.978 264.651 187.439 264.541 186.854C264.431 186.269 264.498 185.664 264.733 185.117C264.967 184.57 265.36 184.105 265.86 183.781C266.36 183.458 266.944 183.29 267.54 183.3C267.931 183.3 268.319 183.378 268.68 183.529C269.042 183.681 269.369 183.902 269.644 184.182C269.918 184.461 270.134 184.792 270.28 185.156C270.425 185.519 270.496 185.908 270.49 186.3Z" fill="#E0E0E0"/>
<path d="M267.54 192.77C267.193 190.627 267.193 188.443 267.54 186.3C267.886 188.443 267.886 190.627 267.54 192.77Z" fill="#E0E0E0"/>
<path d="M263.81 164.54C263.81 165.123 263.637 165.694 263.313 166.179C262.988 166.664 262.528 167.042 261.989 167.265C261.45 167.489 260.856 167.547 260.284 167.433C259.712 167.319 259.186 167.038 258.774 166.626C258.361 166.213 258.08 165.688 257.966 165.115C257.853 164.543 257.911 163.95 258.134 163.411C258.358 162.872 258.736 162.411 259.221 162.087C259.706 161.763 260.276 161.59 260.86 161.59C261.638 161.603 262.381 161.918 262.931 162.468C263.482 163.019 263.797 163.761 263.81 164.54Z" fill="#E0E0E0"/>
<path d="M260.86 171C260.513 168.857 260.513 166.673 260.86 164.53C261.206 166.673 261.206 168.857 260.86 171Z" fill="#E0E0E0"/>
<path d="M171.18 214.67C171.18 215.251 171.008 215.82 170.686 216.304C170.364 216.788 169.906 217.166 169.37 217.39C168.834 217.615 168.243 217.676 167.672 217.566C167.102 217.457 166.576 217.18 166.161 216.773C165.747 216.365 165.462 215.844 165.343 215.275C165.223 214.707 165.275 214.115 165.49 213.575C165.706 213.035 166.076 212.571 166.555 212.241C167.033 211.911 167.599 211.73 168.18 211.72C168.571 211.713 168.96 211.785 169.324 211.93C169.688 212.075 170.019 212.291 170.298 212.566C170.577 212.841 170.799 213.168 170.951 213.529C171.102 213.891 171.18 214.278 171.18 214.67Z" fill="#E0E0E0"/>
<path d="M168.23 221.14C167.883 218.997 167.883 216.813 168.23 214.67C168.576 216.813 168.576 218.997 168.23 221.14Z" fill="#E0E0E0"/>
<path d="M239.74 186.76C239.75 187.357 239.581 187.944 239.255 188.445C238.929 188.946 238.461 189.338 237.911 189.572C237.361 189.805 236.754 189.868 236.167 189.754C235.581 189.64 235.041 189.353 234.619 188.931C234.196 188.508 233.91 187.969 233.795 187.383C233.681 186.796 233.745 186.189 233.978 185.639C234.211 185.088 234.604 184.62 235.105 184.295C235.606 183.969 236.192 183.8 236.79 183.81C237.572 183.81 238.323 184.121 238.876 184.674C239.429 185.227 239.74 185.978 239.74 186.76Z" fill="#E0E0E0"/>
<path d="M236.79 193.23C236.443 191.087 236.443 188.903 236.79 186.76C237.136 188.903 237.136 191.087 236.79 193.23Z" fill="#E0E0E0"/>
<path d="M156.91 120.32C156.92 120.918 156.751 121.504 156.425 122.005C156.099 122.506 155.631 122.898 155.081 123.132C154.531 123.365 153.924 123.429 153.337 123.314C152.75 123.2 152.211 122.913 151.789 122.491C151.366 122.068 151.08 121.529 150.965 120.943C150.851 120.356 150.915 119.749 151.148 119.199C151.381 118.649 151.774 118.181 152.274 117.855C152.775 117.529 153.362 117.36 153.96 117.37C154.742 117.37 155.492 117.681 156.046 118.234C156.599 118.787 156.91 119.538 156.91 120.32Z" fill="#E0E0E0"/>
<path d="M154 126.78C153.744 125.724 153.656 124.634 153.74 123.55C153.656 122.466 153.744 121.376 154 120.32C154.261 121.375 154.349 122.466 154.26 123.55C154.349 124.634 154.261 125.725 154 126.78Z" fill="#E0E0E0"/>
<path d="M190.76 136.47C190.76 137.053 190.587 137.624 190.263 138.109C189.939 138.594 189.478 138.972 188.939 139.195C188.4 139.419 187.807 139.477 187.234 139.363C186.662 139.25 186.136 138.969 185.724 138.556C185.311 138.143 185.03 137.618 184.917 137.046C184.803 136.473 184.861 135.88 185.084 135.341C185.308 134.802 185.686 134.341 186.171 134.017C186.656 133.693 187.226 133.52 187.81 133.52C188.592 133.52 189.343 133.831 189.896 134.384C190.449 134.937 190.76 135.688 190.76 136.47Z" fill="#E0E0E0"/>
<path d="M187.81 142.94C187.555 141.883 187.467 140.794 187.55 139.71C187.467 138.623 187.555 137.53 187.81 136.47C188.065 137.53 188.153 138.623 188.07 139.71C188.152 140.794 188.064 141.883 187.81 142.94Z" fill="#E0E0E0"/>
<path d="M137 187.49C137 188.083 136.824 188.663 136.494 189.157C136.165 189.65 135.696 190.035 135.148 190.262C134.6 190.489 133.997 190.548 133.415 190.432C132.833 190.317 132.298 190.031 131.879 189.611C131.459 189.192 131.173 188.657 131.058 188.075C130.942 187.493 131.001 186.89 131.228 186.342C131.455 185.794 131.84 185.325 132.333 184.996C132.827 184.666 133.407 184.49 134 184.49C134.396 184.483 134.789 184.556 135.156 184.705C135.523 184.853 135.856 185.074 136.136 185.354C136.416 185.633 136.637 185.967 136.785 186.334C136.934 186.701 137.007 187.094 137 187.49Z" fill="#E0E0E0"/>
<path d="M134 194C133.653 191.857 133.653 189.673 134 187.53C134.346 189.673 134.346 191.857 134 194Z" fill="#E0E0E0"/>
<path d="M139.91 139.42C139.92 140.017 139.751 140.604 139.425 141.105C139.099 141.606 138.631 141.998 138.081 142.232C137.531 142.465 136.924 142.528 136.337 142.414C135.75 142.3 135.211 142.013 134.789 141.591C134.366 141.168 134.08 140.629 133.965 140.043C133.851 139.456 133.915 138.849 134.148 138.299C134.381 137.748 134.774 137.28 135.274 136.955C135.775 136.629 136.362 136.46 136.96 136.47C137.742 136.47 138.492 136.781 139.046 137.334C139.599 137.887 139.91 138.638 139.91 139.42Z" fill="#E0E0E0"/>
<path d="M137 145.89C136.739 144.834 136.651 143.744 136.74 142.66C136.651 141.573 136.739 140.479 137 139.42C137.255 140.48 137.342 141.573 137.26 142.66C137.342 143.744 137.254 144.833 137 145.89Z" fill="#E0E0E0"/>
<path d="M266.86 276.97L291.18 264.08L291.08 287.33L266.86 276.97Z" fill="#EBEBEB"/>
<path d="M165.85 359.41L112.57 386.91V335.6L118.47 332.97L165.85 359.41Z" fill="#EBEBEB"/>
<path d="M245.43 386.91C245.43 387.582 245.23 388.24 244.857 388.799C244.483 389.358 243.952 389.794 243.331 390.051C242.71 390.309 242.026 390.376 241.367 390.245C240.707 390.113 240.101 389.79 239.626 389.314C239.15 388.839 238.826 388.233 238.695 387.573C238.564 386.914 238.631 386.23 238.889 385.609C239.146 384.988 239.582 384.457 240.141 384.083C240.7 383.709 241.357 383.51 242.03 383.51C242.932 383.51 243.796 383.868 244.434 384.506C245.072 385.143 245.43 386.008 245.43 386.91Z" fill="#4EB3E2"/>
<path d="M276.54 144.22L293.51 149.38V176.12L276.54 144.22Z" fill="#EBEBEB"/>
<path d="M293.68 108.5L293.58 79.32C292.896 74.2931 290.42 69.682 286.608 66.3346C282.795 62.9871 277.903 61.1284 272.83 61.1L246.06 61C245.186 61.0156 244.325 61.2032 243.524 61.5519C242.723 61.9006 241.999 62.4036 241.392 63.0323C240.786 63.661 240.309 64.403 239.99 65.2159C239.67 66.0288 239.514 66.8967 239.53 67.77V72.62C239.556 74.3804 238.884 76.0795 237.66 77.3448C236.436 78.6102 234.76 79.3385 233 79.37L180.81 79.13C179.047 79.0803 177.375 78.3333 176.162 77.0529C174.949 75.7724 174.294 74.0632 174.34 72.3V67.45C174.364 66.5767 174.215 65.7071 173.903 64.8911C173.591 64.0751 173.121 63.3286 172.52 62.6944C171.919 62.0601 171.199 61.5504 170.401 61.1945C169.603 60.8385 168.743 60.6433 167.87 60.62H158.45L135 60.47C129.724 60.4578 124.636 62.4321 120.75 66C118.4 70.53 115.83 77 117.01 81.89L293.55 139.36L293.68 108.5Z" fill="#4EB3E2"/>
<path opacity="0.7" d="M293.68 108.5L293.58 79.32C292.896 74.2931 290.42 69.682 286.608 66.3346C282.795 62.9871 277.903 61.1284 272.83 61.1L246.06 61C245.186 61.0156 244.325 61.2032 243.524 61.5519C242.723 61.9006 241.999 62.4036 241.392 63.0323C240.786 63.661 240.309 64.403 239.99 65.2159C239.67 66.0288 239.514 66.8967 239.53 67.77V72.62C239.556 74.3804 238.884 76.0795 237.66 77.3448C236.436 78.6102 234.76 79.3385 233 79.37L180.81 79.13C179.047 79.0803 177.375 78.3333 176.162 77.0529C174.949 75.7724 174.294 74.0632 174.34 72.3V67.45C174.364 66.5767 174.215 65.7071 173.903 64.8911C173.591 64.0751 173.121 63.3286 172.52 62.6944C171.919 62.0601 171.199 61.5504 170.401 61.1945C169.603 60.8385 168.743 60.6433 167.87 60.62H158.45L135 60.47C129.724 60.4578 124.636 62.4321 120.75 66C118.4 70.53 115.83 77 117.01 81.89L293.55 139.36L293.68 108.5Z" fill="white"/>
<path d="M272.83 61.1H273.55C274.263 61.1131 274.974 61.1732 275.68 61.28C278.477 61.6263 281.167 62.5674 283.57 64.04C285.359 65.1076 286.975 66.4431 288.36 68C290.057 69.8493 291.411 71.986 292.36 74.31C293.44 77.0283 293.964 79.9357 293.9 82.86C293.9 85.9667 293.9 89.2767 293.9 92.79C293.8 120.86 293.66 161.47 293.48 211.65C293.3 261.83 293.05 321.58 292.79 387.93C292.79 396.217 292.756 404.61 292.69 413.11C292.69 415.23 292.69 417.36 292.69 419.5C292.72 421.666 292.437 423.825 291.85 425.91C291.26 428.012 290.345 430.01 289.14 431.83C287.917 433.649 286.434 435.28 284.74 436.67C281.274 439.46 277.022 441.093 272.58 441.34C271.47 441.41 270.37 441.39 269.27 441.39H265.97H259.34L232.51 441.27L177.38 441L149.22 440.87L135 440.76C130.143 441.009 125.338 439.66 121.32 436.92C117.314 434.128 114.379 430.054 113 425.37C112.344 423.056 112.057 420.653 112.15 418.25V411.15C112.19 401.703 112.23 392.313 112.27 382.98C112.35 364.313 112.426 345.957 112.5 327.91C112.66 291.8 112.81 256.97 112.96 223.79C113.11 190.61 113.25 159.09 113.38 129.58C113.446 114.827 113.513 100.597 113.58 86.89C113.58 85.17 113.58 83.47 113.58 81.78C113.58 80.93 113.66 80.07 113.71 79.22C113.76 78.37 113.93 77.54 114.15 76.72C114.92 73.4456 116.448 70.3973 118.61 67.82C120.713 65.339 123.354 63.371 126.333 62.066C129.312 60.7611 132.55 60.1536 135.8 60.29L154.16 60.38H162.99H167.32C168.787 60.3073 170.238 60.7183 171.45 61.55C172.673 62.391 173.598 63.5992 174.09 65C174.478 66.3503 174.617 67.76 174.5 69.16C174.5 69.84 174.5 70.53 174.5 71.16C174.455 71.8259 174.455 72.4941 174.5 73.16C174.662 74.4692 175.208 75.7009 176.07 76.7C176.906 77.6891 178.033 78.389 179.29 78.7C179.911 78.852 180.55 78.9193 181.19 78.9H183.13H190.74L218.51 79.05L230.76 79.12C231.76 79.12 232.71 79.12 233.63 79.12C234.55 79.0181 235.435 78.7105 236.22 78.22C236.977 77.749 237.633 77.1312 238.148 76.4031C238.663 75.6749 239.028 74.8511 239.22 73.98C239.366 73.135 239.423 72.277 239.39 71.42C239.39 70.57 239.39 69.73 239.39 68.9C239.354 68.0814 239.394 67.2613 239.51 66.45C239.643 65.659 239.914 64.8975 240.31 64.2C241.045 62.8347 242.238 61.7724 243.68 61.2C245.03 60.7787 246.452 60.6324 247.86 60.77L261.52 60.86L269.92 60.92H272.79C272.79 60.92 271.79 60.92 269.92 60.92H261.52H247.86C246.471 60.7789 245.069 60.9253 243.74 61.35C242.345 61.9004 241.186 62.9186 240.46 64.23C240.081 64.9147 239.821 65.6585 239.69 66.43C239.582 67.2319 239.545 68.0417 239.58 68.85C239.58 69.68 239.58 70.52 239.58 71.37C239.619 72.2407 239.558 73.113 239.4 73.97C239.209 74.8679 238.84 75.7183 238.314 76.4707C237.789 77.2231 237.117 77.8622 236.34 78.35C235.531 78.8596 234.619 79.1809 233.67 79.29C232.67 79.37 231.75 79.29 230.77 79.29H218.52L190.75 79.18H183.14H181.2C180.527 79.204 179.854 79.1367 179.2 78.98C177.916 78.6698 176.755 77.9797 175.87 77C174.969 75.9523 174.398 74.6615 174.23 73.29C174.165 72.6087 174.145 71.9239 174.17 71.24V69.24C174.286 67.8941 174.154 66.5381 173.78 65.24C173.32 63.9396 172.467 62.8144 171.34 62.02C170.184 61.2281 168.798 60.8413 167.4 60.92H163.07H154.24L135.87 60.85C132.695 60.6983 129.527 61.2692 126.604 62.5199C123.682 63.7706 121.082 65.6683 119 68.07C116.883 70.6037 115.387 73.5964 114.63 76.81C114.42 77.61 114.35 78.45 114.2 79.27C114.05 80.09 114.09 80.93 114.08 81.78C114.08 83.47 114.08 85.18 114.08 86.89C114.02 100.577 113.963 114.807 113.91 129.58C113.8 159.09 113.67 190.58 113.54 223.79C113.41 257 113.26 291.79 113.11 327.91C113.036 345.97 112.946 364.333 112.84 383C112.84 392.333 112.803 401.723 112.73 411.17V418.28C112.636 420.643 112.916 423.005 113.56 425.28C114.901 429.84 117.75 433.809 121.64 436.54C125.57 439.198 130.262 440.498 135 440.24L149.22 440.3L177.39 440.43L232.44 440.69L259.27 440.82H265.9H269.2C270.3 440.82 271.4 440.82 272.48 440.77C276.819 440.53 280.974 438.935 284.36 436.21C286.016 434.851 287.464 433.258 288.66 431.48C289.835 429.705 290.729 427.758 291.31 425.71C291.883 423.667 292.156 421.552 292.12 419.43C292.12 417.29 292.12 415.16 292.12 413.04C292.16 404.54 292.196 396.143 292.23 387.85C292.54 321.51 292.81 261.76 293.03 211.58C293.25 161.4 293.48 120.79 293.62 92.72C293.62 89.2134 293.636 85.9034 293.67 82.79C293.747 79.8879 293.236 77.0001 292.17 74.3C291.245 71.9868 289.91 69.8593 288.23 68.02C286.855 66.4856 285.257 65.1675 283.49 64.11C281.103 62.6352 278.431 61.6811 275.65 61.31C274.945 61.1941 274.233 61.1273 273.52 61.11C273.07 61.13 272.83 61.1 272.83 61.1Z" fill="#263238"/>
<path d="M335.37 259.79C350.18 260.16 365.15 260.55 379.47 264.35C393.79 268.15 407.62 275.71 416.11 287.85C425.47 301.21 427.33 318.29 428.26 334.57C429.946 361.588 429.525 388.697 427 415.65C425.66 429.29 420.82 441.97 408.13 447.16C392.87 453.41 372.36 447.16 372.36 447.16" fill="#263238"/>
<path d="M375.09 443.91C375.09 443.91 375.28 443.91 375.65 443.91H377.3L383.63 443.86C386.972 443.92 390.313 443.746 393.63 443.34C394.63 443.18 395.63 443.07 396.63 442.81L398.17 442.47C398.69 442.33 399.17 442.16 399.74 442.01C400.81 441.73 401.85 441.28 402.94 440.88C404.037 440.416 405.105 439.889 406.14 439.3C408.391 438.058 410.419 436.449 412.14 434.54C413.978 432.471 415.316 430.008 416.05 427.34C417.45 421.361 418.204 415.25 418.3 409.11C418.5 402.62 418.43 395.8 418.49 388.72C418.55 381.64 418.55 374.33 418.59 366.83C418.63 359.33 418.7 352 418.46 344.93C418.283 338.141 417.642 331.372 416.54 324.67C414.38 311.88 409.91 300.79 404.13 292.85C401.495 289.309 398.536 286.022 395.29 283.03C392.44 280.36 389.88 278.18 387.78 276.41L382.92 272.36L381.67 271.29C381.523 271.172 381.383 271.045 381.25 270.91C381.25 270.91 381.41 271.02 381.7 271.25L382.99 272.25L387.91 276.25C390.03 277.99 392.62 280.15 395.49 282.81C398.774 285.794 401.767 289.082 404.43 292.63C410.28 300.63 414.82 311.74 417.02 324.63C418.134 331.354 418.782 338.147 418.96 344.96C419.22 352.04 419.14 359.37 419.11 366.87C419.08 374.37 419.04 381.69 419 388.77C418.96 395.85 419 402.66 418.78 409.17C418.668 415.345 417.893 421.49 416.47 427.5C415.716 430.224 414.348 432.738 412.47 434.85C410.726 436.777 408.675 438.402 406.4 439.66C405.351 440.25 404.269 440.781 403.16 441.25C402.05 441.65 400.99 442.09 399.91 442.37L398.33 442.82L396.77 443.16C395.77 443.41 394.77 443.51 393.77 443.67C390.452 444.054 387.11 444.198 383.77 444.1H377.44H375.79L375.09 443.91Z" fill="#455A64"/>
<path d="M418.71 370.65C420.37 370.031 422.128 369.716 423.9 369.72C425.666 369.556 427.446 369.705 429.16 370.16C429.16 370.31 426.8 370.1 423.92 370.24C421.04 370.38 418.74 370.8 418.71 370.65Z" fill="#455A64"/>
<path d="M354.72 260.56H355.1H356.23C357.23 260.56 358.69 260.56 360.57 260.73C365.885 261.211 371.123 262.329 376.17 264.06L378.6 264.96L379.86 265.43L381.1 265.99L383.67 267.16C384.55 267.55 385.38 268.05 386.27 268.51C390.003 270.5 393.55 272.819 396.87 275.44C400.57 278.303 403.985 281.514 407.07 285.03C410.395 288.806 413.172 293.031 415.32 297.58C419.78 306.93 421.71 316.72 422.7 325.58C423.69 334.44 423.7 342.5 423.7 349.24C423.7 355.98 423.7 361.42 423.83 365.19C423.89 367.05 423.93 368.5 423.96 369.53C423.96 370 423.96 370.37 423.96 370.65C423.971 370.78 423.971 370.91 423.96 371.04C423.946 370.914 423.946 370.786 423.96 370.66C423.96 370.38 423.96 370 423.88 369.53C423.81 368.53 423.74 367.08 423.66 365.2C423.51 361.43 423.43 355.98 423.36 349.2C423.29 342.42 423.18 334.44 422.21 325.59C421.24 316.74 419.21 307.06 414.84 297.79C412.718 293.279 409.967 289.09 406.67 285.35C403.618 281.846 400.232 278.648 396.56 275.8C393.271 273.181 389.753 270.862 386.05 268.87C385.18 268.41 384.35 267.87 383.48 267.51L380.93 266.34L379.69 265.77L378.45 265.3L376.04 264.38C371.022 262.638 365.822 261.474 360.54 260.91C358.67 260.75 357.2 260.72 356.22 260.65L355.09 260.58C354.967 260.587 354.842 260.581 354.72 260.56Z" fill="#E0E0E0"/>
<path d="M345.46 260.53C345.46 260.53 349.09 250.94 362.02 252.76C362.02 252.76 367.78 252.44 368.83 255.64C368.83 255.64 356.78 252.64 351.65 260.98L345.46 260.53Z" fill="#263238"/>
<path d="M382.31 272.21H374.74C374.74 272.21 373.27 252.21 354.91 252.96C354.91 253 377.73 245.32 382.31 272.21Z" fill="#455A64"/>
<path d="M418.82 382.87L429.68 384.37L428.59 388.23L418.46 387.45L418.82 382.87Z" fill="#455A64"/>
<path d="M419.48 386.36C419.816 385.657 420.243 385.001 420.75 384.41L420.9 384.21L421.07 384.41L422.59 386.26L422.24 386.21L423.32 385.41L424.45 384.59L424.65 384.44L424.8 384.65L426.19 386.65L425.91 386.6C426.526 386.131 427.197 385.742 427.91 385.44C427.407 386.012 426.828 386.513 426.19 386.93L426 387L425.88 386.84L424.4 384.94L424.75 384.99L423.64 385.82L422.55 386.61L422.35 386.76L422.2 386.56L420.76 384.66H421.08C420.624 385.295 420.086 385.867 419.48 386.36Z" fill="#4EB3E2"/>
<path d="M261 454.34C261 454.34 258.9 447.5 259.32 444.6C259.74 441.7 263.63 439.08 263.63 439.08L259.41 329.43C259.41 329.43 258.87 281.43 284.25 266.56L299.4 262.74L336.77 260.53C337.98 260.93 381.9 277.45 387.94 283.9L369 380.6C369 380.6 371.3 409.17 373.59 429.7C374.06 433.9 377.21 454.64 377.21 454.64L261 454.34Z" fill="#4EB3E2"/>
<g opacity="0.3">
<path d="M372.89 423.25C372.53 425.91 371.52 429.16 368.96 429.99C366.342 430.673 363.597 430.711 360.96 430.1C351.6 428.43 342.96 424.03 334.51 419.69C318.7 411.56 302.74 403.35 289.08 391.95C287.16 390.35 285.08 387.86 286.29 385.65C287.62 383.15 291.37 383.99 293.94 385.18C320.76 397.54 346.06 410.88 372.88 423.25" fill="black"/>
</g>
<path d="M278.56 269.55C278.56 269.55 261.83 275.13 256.42 290.63C250.42 307.75 246.48 340.99 246.48 340.99L263 343.07L278.56 269.55Z" fill="#4EB3E2"/>
<path d="M387.92 283.9C387.92 283.9 396.92 295.7 401.26 310.04C405.6 324.38 408.12 365.93 408.12 365.93L363.12 365.31L360.73 328.74C360.73 328.74 356.19 267.73 387.92 283.9Z" fill="#4EB3E2"/>
<path d="M252.38 305.56C252.731 305.105 253.153 304.71 253.63 304.39C254.316 303.926 255.089 303.606 255.902 303.449C256.715 303.293 257.551 303.303 258.36 303.48C260.54 303.8 262.66 305.48 265.45 306.58C266.906 307.228 268.521 307.426 270.09 307.15C271.73 306.8 273.16 305.62 274.66 304.47C275.429 303.851 276.268 303.324 277.16 302.9C277.644 302.672 278.168 302.542 278.702 302.52C279.236 302.498 279.77 302.583 280.27 302.77C281.286 303.215 282.133 303.972 282.69 304.93C283.31 305.83 283.81 306.81 284.46 307.69C285.053 308.628 285.95 309.333 287 309.69C288.091 310.01 289.25 310.01 290.34 309.69C291.487 309.373 292.584 308.899 293.6 308.28C294.6 307.67 295.6 306.93 296.71 306.28C297.791 305.567 298.961 304.998 300.19 304.59C301.492 304.178 302.889 304.178 304.19 304.59C305.471 305.064 306.646 305.784 307.65 306.71C308.65 307.58 309.65 308.54 310.7 309.37C311.716 310.249 312.943 310.849 314.26 311.11C315.606 311.35 316.992 311.208 318.26 310.7C320.86 309.7 323.16 307.96 325.72 306.55C326.982 305.794 328.356 305.243 329.79 304.92C331.241 304.636 332.742 304.753 334.13 305.26C336.85 306.32 338.87 308.39 341.29 309.54C341.883 309.831 342.507 310.052 343.15 310.2C343.789 310.328 344.441 310.371 345.09 310.33C346.388 310.2 347.651 309.838 348.82 309.26C351.19 308.19 353.33 306.69 355.82 305.88C357.032 305.452 358.333 305.339 359.6 305.55C360.826 305.809 361.962 306.389 362.89 307.23C364.72 308.76 366.17 310.71 368.26 311.36C369.285 311.659 370.37 311.69 371.41 311.45C372.429 311.218 373.432 310.917 374.41 310.55C376.34 309.87 378.36 309.17 380.32 309.62C381.252 309.835 382.122 310.262 382.86 310.87C383.59 311.43 384.23 312.05 384.86 312.61C385.469 313.168 386.14 313.655 386.86 314.06C387.534 314.417 388.265 314.65 389.02 314.75C390.397 314.931 391.797 314.79 393.11 314.34C394.218 313.961 395.265 313.426 396.22 312.75C397.54 311.799 398.771 310.731 399.9 309.56L400.8 308.66C400.894 308.55 401.002 308.453 401.12 308.37C401.12 308.37 401.03 308.49 400.84 308.7L399.98 309.64C398.869 310.845 397.647 311.943 396.33 312.92C395.368 313.618 394.311 314.174 393.19 314.57C391.843 315.052 390.401 315.213 388.98 315.04C388.187 314.942 387.418 314.701 386.71 314.33C385.993 313.914 385.322 313.421 384.71 312.86C383.42 311.76 382.14 310.35 380.3 309.98C378.46 309.61 376.54 310.24 374.61 310.93C373.612 311.307 372.59 311.618 371.55 311.86C370.441 312.115 369.285 312.084 368.19 311.77C367.072 311.389 366.049 310.772 365.19 309.96C364.31 309.18 363.51 308.33 362.6 307.58C361.735 306.787 360.67 306.245 359.52 306.01C358.331 305.821 357.114 305.934 355.98 306.34C353.63 307.12 351.49 308.61 349.07 309.71C347.853 310.318 346.535 310.698 345.18 310.83C344.484 310.877 343.785 310.833 343.1 310.7C342.409 310.543 341.738 310.309 341.1 310C338.58 308.79 336.56 306.74 333.97 305.75C332.675 305.274 331.274 305.164 329.92 305.43C328.541 305.749 327.218 306.278 326 307C323.48 308.38 321.18 310.17 318.47 311.19C317.116 311.718 315.643 311.866 314.21 311.62C312.812 311.339 311.51 310.702 310.43 309.77C308.26 308.08 306.52 305.88 304.07 305.07C302.87 304.69 301.581 304.69 300.38 305.07C299.194 305.464 298.064 306.012 297.02 306.7C295.95 307.35 294.96 308.09 293.88 308.7C292.829 309.333 291.695 309.817 290.51 310.14C289.334 310.48 288.086 310.48 286.91 310.14C285.784 309.753 284.816 309.004 284.16 308.01C283.49 307.09 282.99 306.1 282.4 305.22C281.882 304.343 281.107 303.645 280.18 303.22C279.727 303.048 279.243 302.971 278.758 302.991C278.273 303.012 277.798 303.131 277.36 303.34C276.492 303.742 275.676 304.25 274.93 304.85C273.43 305.97 271.93 307.18 270.21 307.56C268.577 307.835 266.898 307.616 265.39 306.93C262.56 305.81 260.48 304.1 258.39 303.76C257.603 303.579 256.787 303.556 255.99 303.693C255.193 303.831 254.432 304.125 253.75 304.56C253.27 304.86 252.812 305.194 252.38 305.56Z" fill="#FAFAFA"/>
<path d="M247.08 332.6C247.226 332.587 247.374 332.587 247.52 332.6L248.82 332.73C250.449 333.052 252.13 333.008 253.74 332.6C254.8 332.37 255.99 332.16 257.29 331.93C258.59 331.7 259.98 331.39 261.52 331.21C263.193 330.969 264.899 331.091 266.52 331.57C268.22 332.07 269.87 332.94 271.69 333.57C273.589 334.215 275.637 334.274 277.57 333.74C279.57 333.25 281.57 332.32 283.78 331.57C285.987 330.627 288.431 330.386 290.78 330.88C293.2 331.56 295.15 333.35 297.57 333.94C298.172 334.088 298.794 334.132 299.41 334.07C300.041 333.992 300.662 333.845 301.26 333.63C302.48 333.21 303.66 332.63 304.95 332.14C306.268 331.594 307.739 331.544 309.09 332C310.361 332.603 311.54 333.384 312.59 334.32C313.125 334.739 313.71 335.092 314.33 335.37C314.962 335.637 315.644 335.763 316.33 335.74C317.729 335.612 319.089 335.207 320.33 334.55C321.635 333.877 323.001 333.331 324.41 332.92C325.152 332.737 325.92 332.683 326.68 332.76C327.444 332.862 328.183 333.103 328.86 333.47C330.128 334.235 331.35 335.073 332.52 335.98C333.098 336.386 333.723 336.722 334.38 336.98C334.702 337.109 335.038 337.203 335.38 337.26L335.89 337.35H336.41C337.811 337.32 339.194 337.032 340.49 336.5C341.81 336.02 343.11 335.45 344.49 335.05C345.84 334.568 347.295 334.461 348.7 334.74C350.055 335.119 351.282 335.859 352.25 336.88C353.159 337.829 354.135 338.711 355.17 339.52C356.194 340.248 357.437 340.601 358.69 340.52C359.921 340.394 361.117 340.031 362.21 339.45C363.32 338.91 364.37 338.28 365.44 337.69C367.54 336.52 369.85 335.45 372.24 335.69C374.448 336.097 376.514 337.064 378.24 338.5C379.805 339.767 381.478 340.895 383.24 341.87C384.883 342.665 386.66 343.147 388.48 343.29C390.109 343.38 391.743 343.256 393.34 342.92C395.901 342.327 398.295 341.161 400.34 339.51C401.613 338.446 402.713 337.191 403.6 335.79C403.88 335.3 404.07 334.9 404.21 334.65C404.275 334.515 404.349 334.385 404.43 334.26C404.386 334.402 404.329 334.539 404.26 334.67C404.13 334.93 403.96 335.34 403.69 335.84C402.837 337.284 401.748 338.575 400.47 339.66C398.421 341.363 396.01 342.574 393.42 343.2C391.8 343.564 390.138 343.705 388.48 343.62C386.613 343.491 384.788 343.009 383.1 342.2C381.305 341.233 379.601 340.105 378.01 338.83C376.335 337.447 374.336 336.515 372.2 336.12C369.96 335.87 367.75 336.89 365.66 338.06C364.61 338.65 363.55 339.29 362.41 339.84C361.265 340.451 360.012 340.835 358.72 340.97C357.361 341.054 356.014 340.673 354.9 339.89C353.833 339.074 352.83 338.179 351.9 337.21C350.992 336.254 349.841 335.562 348.57 335.21C347.25 334.955 345.885 335.062 344.62 335.52C343.3 335.91 342.01 336.52 340.67 336.96C339.318 337.52 337.873 337.822 336.41 337.85H335.84L335.29 337.75C334.915 337.693 334.549 337.589 334.2 337.44C333.493 337.164 332.822 336.805 332.2 336.37C331.043 335.478 329.838 334.65 328.59 333.89C327.969 333.552 327.291 333.331 326.59 333.24C325.89 333.172 325.184 333.219 324.5 333.38C323.121 333.791 321.782 334.327 320.5 334.98C319.201 335.662 317.781 336.083 316.32 336.22C315.573 336.231 314.832 336.092 314.14 335.81C313.484 335.512 312.866 335.136 312.3 334.69C311.281 333.791 310.148 333.031 308.93 332.43C307.685 332.016 306.332 332.065 305.12 332.57C303.88 333 302.69 333.62 301.43 334.05C300.784 334.281 300.113 334.436 299.43 334.51C298.76 334.574 298.084 334.526 297.43 334.37C294.84 333.71 292.91 331.92 290.62 331.28C288.347 330.794 285.979 331.021 283.84 331.93C281.791 332.755 279.702 333.476 277.58 334.09C275.574 334.631 273.452 334.555 271.49 333.87C269.63 333.24 268 332.36 266.34 331.87C264.782 331.402 263.142 331.272 261.53 331.49C260.01 331.65 258.6 331.95 257.3 332.17C256 332.39 254.81 332.57 253.75 332.79C253.22 332.89 252.75 333.01 252.23 333.08C251.778 333.135 251.322 333.135 250.87 333.08C250.04 332.99 249.34 332.89 248.77 332.81L247.49 332.63C247.353 332.632 247.216 332.622 247.08 332.6Z" fill="#FAFAFA"/>
<path d="M263.73 356.18H264.03L264.9 356.27C265.66 356.35 266.78 356.5 268.22 356.72C271.11 357.11 275.22 357.97 280.43 358.4C283.251 358.631 286.089 358.581 288.9 358.25C290.491 358.059 292.099 358.059 293.69 358.25C294.531 358.365 295.35 358.604 296.12 358.96C296.895 359.354 297.626 359.83 298.3 360.38C299.66 361.38 300.95 362.71 302.62 363.21C303.452 363.455 304.338 363.455 305.17 363.21C306.041 362.943 306.89 362.608 307.71 362.21C308.577 361.77 309.503 361.46 310.46 361.29C311.477 361.144 312.513 361.368 313.38 361.92C315.11 362.97 316.24 364.72 318 365.46C319.76 366.2 321.77 365.75 323.58 365.22C325.387 364.536 327.277 364.095 329.2 363.91C330.17 363.888 331.131 364.09 332.01 364.5C332.849 364.91 333.626 365.435 334.32 366.06C335.547 367.297 336.933 368.366 338.44 369.24C339.959 369.86 341.661 369.86 343.18 369.24C344.72 368.76 346.13 368.01 347.67 367.66C349.154 367.247 350.736 367.367 352.14 368C352.796 368.344 353.33 368.882 353.67 369.54C353.949 370.155 354.183 370.79 354.37 371.44C354.538 372.029 354.831 372.575 355.23 373.04C355.623 373.463 356.114 373.782 356.66 373.97C357.692 374.295 358.798 374.295 359.83 373.97C360.729 373.687 361.543 373.186 362.2 372.51C362.758 371.938 363.245 371.3 363.65 370.61C364.193 369.647 364.661 368.644 365.05 367.61C365.19 367.28 365.29 367.01 365.37 366.8C365.401 366.705 365.445 366.614 365.5 366.53C365.484 366.629 365.458 366.727 365.42 366.82L365.15 367.65C364.8 368.718 364.355 369.752 363.82 370.74C363.43 371.467 362.946 372.14 362.38 372.74C361.702 373.458 360.857 373.997 359.92 374.31C358.832 374.673 357.658 374.69 356.56 374.36C355.954 374.165 355.408 373.821 354.97 373.36C354.515 372.866 354.174 372.279 353.97 371.64C353.782 371.012 353.551 370.397 353.28 369.8C352.971 369.216 352.494 368.739 351.91 368.43C350.587 367.855 349.104 367.763 347.72 368.17C346.26 368.5 344.84 369.25 343.27 369.76C342.466 370.037 341.629 370.202 340.78 370.25C339.89 370.283 339.004 370.112 338.19 369.75C336.64 368.862 335.214 367.773 333.95 366.51C333.283 365.922 332.543 365.422 331.75 365.02C330.937 364.653 330.052 364.472 329.16 364.49C327.285 364.68 325.443 365.113 323.68 365.78C322.736 366.087 321.765 366.301 320.78 366.42C319.761 366.542 318.728 366.401 317.78 366.01C315.83 365.16 314.69 363.38 313.09 362.43C312.323 361.936 311.403 361.737 310.5 361.87C309.595 362.031 308.719 362.324 307.9 362.74C307.06 363.166 306.187 363.524 305.29 363.81C304.366 364.082 303.384 364.082 302.46 363.81C300.62 363.24 299.32 361.91 297.98 360.88C297.339 360.348 296.642 359.889 295.9 359.51C295.172 359.168 294.397 358.935 293.6 358.82C292.045 358.635 290.474 358.635 288.92 358.82C286.083 359.133 283.223 359.163 280.38 358.91C275.17 358.43 271.05 357.51 268.17 357.06L264.86 356.51L264 356.38L263.73 356.18Z" fill="#FAFAFA"/>
<path d="M262.33 422.87L262.63 422.75L263.5 422.45C264.27 422.18 265.41 421.77 266.88 421.29C268.667 420.659 270.518 420.227 272.4 420C273.602 419.932 274.804 420.13 275.92 420.58C277.122 421.087 278.381 421.447 279.67 421.65C281.094 421.709 282.508 421.392 283.77 420.73C285.176 419.991 286.654 419.398 288.18 418.96C289.88 418.651 291.628 418.754 293.28 419.26C294.97 419.71 296.64 420.38 298.38 420.89C300.124 421.492 301.99 421.65 303.81 421.35C305.677 420.802 307.493 420.096 309.24 419.24C310.192 418.834 311.207 418.594 312.24 418.53C313.318 418.491 314.383 418.773 315.3 419.34C317.13 420.42 318.44 422.2 320.36 422.91C321.314 423.23 322.342 423.254 323.31 422.98C324.293 422.698 325.249 422.334 326.17 421.89C327.101 421.44 328.063 421.059 329.05 420.75C330.061 420.422 331.146 420.398 332.17 420.68C333.145 421.021 334.019 421.602 334.71 422.37C335.41 423.08 336.03 423.82 336.71 424.42C337.406 424.998 338.232 425.398 339.118 425.584C340.003 425.771 340.92 425.738 341.79 425.49C343.56 425.14 345.23 424.49 346.92 424C347.764 423.761 348.634 423.63 349.51 423.61C350.38 423.583 351.241 423.794 352 424.22C352.734 424.62 353.357 425.197 353.81 425.9C354.27 426.56 354.63 427.25 355 427.9C355.564 429.203 356.605 430.24 357.91 430.8C359.146 431.162 360.474 431.026 361.61 430.42C362.65 429.916 363.579 429.209 364.34 428.34C365.475 426.85 366.445 425.24 367.23 423.54C367.764 422.469 368.393 421.448 369.11 420.49C369.365 420.162 369.65 419.857 369.96 419.58C369.96 419.58 369.68 419.9 369.2 420.58C368.52 421.552 367.921 422.579 367.41 423.65C366.647 425.385 365.691 427.029 364.56 428.55C363.783 429.465 362.827 430.21 361.75 430.74C360.526 431.408 359.088 431.562 357.75 431.17C356.357 430.585 355.235 429.496 354.61 428.12C353.86 426.83 353.16 425.33 351.75 424.61C350.34 423.89 348.63 424.03 347 424.46C345.37 424.89 343.68 425.6 341.85 425.97C340.916 426.189 339.948 426.223 339 426.07C338.511 425.986 338.034 425.842 337.58 425.64C337.134 425.415 336.718 425.136 336.34 424.81C335.59 424.17 334.96 423.42 334.28 422.74C333.648 422.027 332.842 421.489 331.94 421.18C331.01 420.93 330.027 420.955 329.11 421.25C328.148 421.556 327.209 421.931 326.3 422.37C325.354 422.835 324.366 423.21 323.35 423.49C322.283 423.788 321.151 423.76 320.1 423.41C317.98 422.6 316.68 420.79 314.96 419.79C314.127 419.275 313.159 419.021 312.18 419.06C311.202 419.119 310.241 419.345 309.34 419.73C307.568 420.595 305.725 421.304 303.83 421.85C301.932 422.16 299.987 421.991 298.17 421.36C296.39 420.83 294.74 420.16 293.08 419.71C291.498 419.219 289.823 419.109 288.19 419.39C286.69 419.818 285.236 420.394 283.85 421.11C282.521 421.786 281.039 422.103 279.55 422.03C278.236 421.814 276.953 421.438 275.73 420.91C274.659 420.459 273.501 420.251 272.34 420.3C270.477 420.503 268.64 420.902 266.86 421.49L263.46 422.56L262.56 422.81C262.486 422.839 262.409 422.859 262.33 422.87Z" fill="#FAFAFA"/>
<path d="M318.51 398.1C318.333 398.243 318.142 398.367 317.94 398.47C317.374 398.78 316.785 399.047 316.18 399.27C313.927 400.095 311.504 400.345 309.13 400C308.343 399.882 307.568 399.702 306.81 399.46C306.02 399.21 305.23 398.85 304.43 398.51C303.636 398.139 302.766 397.961 301.89 397.99C300.971 398.126 300.103 398.499 299.37 399.07C298.58 399.63 297.81 400.3 296.9 400.86C296.432 401.148 295.928 401.37 295.4 401.52C295.128 401.59 294.85 401.63 294.57 401.64C294.288 401.68 294.002 401.68 293.72 401.64C291.44 401.35 289.62 399.84 287.63 398.84C286.703 398.272 285.626 397.996 284.54 398.05L284.16 398.1C284.037 398.131 283.917 398.171 283.8 398.22C283.552 398.292 283.316 398.399 283.1 398.54C282.67 398.824 282.277 399.16 281.93 399.54C281.26 400.377 280.524 401.16 279.73 401.88C279.3 402.231 278.787 402.465 278.24 402.56C277.696 402.647 277.138 402.567 276.64 402.33C275.768 401.82 275.038 401.097 274.52 400.23C274.039 399.469 273.508 398.74 272.93 398.05C272.381 397.484 271.719 397.04 270.986 396.749C270.254 396.457 269.468 396.325 268.68 396.36C267.36 396.453 266.104 396.961 265.09 397.81C264.27 398.411 263.562 399.153 263 400C262.509 400.704 262.228 401.533 262.19 402.39C262.151 402.168 262.151 401.942 262.19 401.72C262.272 401.069 262.497 400.444 262.85 399.89C263.4 399.014 264.105 398.245 264.93 397.62C265.983 396.711 267.294 396.155 268.68 396.03C269.527 395.979 270.376 396.11 271.168 396.416C271.959 396.721 272.676 397.193 273.27 397.8C273.859 398.498 274.404 399.233 274.9 400C275.377 400.791 276.044 401.451 276.84 401.92C277.265 402.11 277.736 402.173 278.196 402.1C278.656 402.027 279.085 401.822 279.43 401.51C280.192 400.8 280.904 400.039 281.56 399.23C281.933 398.803 282.36 398.427 282.83 398.11C283.081 397.955 283.349 397.831 283.63 397.74L284.05 397.6L284.49 397.54C285.675 397.48 286.851 397.772 287.87 398.38C289.87 399.38 291.71 400.89 293.78 401.15C294.785 401.264 295.797 401.019 296.64 400.46C297.5 399.94 298.28 399.28 299.1 398.71C299.854 398.075 300.782 397.681 301.762 397.579C302.743 397.478 303.732 397.673 304.6 398.14C305.41 398.5 306.17 398.85 306.93 399.14C307.665 399.383 308.417 399.57 309.18 399.7C311.502 400.064 313.877 399.872 316.11 399.14C317.69 398.56 318.48 398.05 318.51 398.1Z" fill="#FAFAFA"/>
<path d="M263.31 449.59C263.413 449.603 263.514 449.63 263.61 449.67L263.98 449.79L264.5 449.87C265.671 449.916 266.832 449.632 267.85 449.05C269.478 448.111 271.205 447.357 273 446.8C273.569 446.684 274.152 446.654 274.73 446.71C275.341 446.806 275.933 447.002 276.48 447.29C277.609 447.961 278.685 448.717 279.7 449.55C280.771 450.457 282.137 450.94 283.54 450.91C285.046 450.636 286.496 450.112 287.83 449.36C288.588 449 289.387 448.735 290.21 448.57C291.073 448.43 291.954 448.45 292.81 448.63C294.55 448.95 296.18 449.69 297.9 450.16C299.66 450.647 301.516 450.675 303.29 450.24C305.156 449.774 306.985 449.169 308.76 448.43C310.626 447.638 312.58 447.074 314.58 446.75C316.69 446.48 318.833 446.827 320.75 447.75C322.69 448.59 324.46 449.67 326.33 450.42C328.118 451.242 330.132 451.429 332.04 450.95C335.77 449.88 338.5 446.86 342.04 445.69C343.773 445.09 345.657 445.09 347.39 445.69C348.977 446.255 350.481 447.032 351.86 448C353.21 448.89 354.48 449.79 355.77 450.52C356.995 451.238 358.319 451.771 359.7 452.1C362.099 452.597 364.583 452.49 366.93 451.79C368.704 451.263 370.366 450.412 371.83 449.28C373.07 448.297 374.15 447.126 375.03 445.81C374.99 445.908 374.939 446.002 374.88 446.09L374.39 446.87C373.695 447.832 372.875 448.696 371.95 449.44C370.472 450.591 368.794 451.459 367 452C365.118 452.629 363.123 452.847 361.15 452.64C359.177 452.433 357.271 451.805 355.56 450.8C354.24 450.07 352.97 449.17 351.62 448.3C350.269 447.357 348.795 446.604 347.24 446.06C345.605 445.49 343.825 445.49 342.19 446.06C340.478 446.729 338.859 447.613 337.37 448.69C335.777 449.845 334.017 450.749 332.15 451.37C330.146 451.864 328.034 451.674 326.15 450.83C324.23 450.05 322.46 448.97 320.56 448.14C318.724 447.267 316.675 446.944 314.66 447.21C312.702 447.524 310.788 448.071 308.96 448.84C307.16 449.592 305.304 450.204 303.41 450.67C301.558 451.11 299.624 451.072 297.79 450.56C296.02 450.07 294.41 449.33 292.79 449.02C291.989 448.842 291.16 448.819 290.35 448.95C289.562 449.099 288.796 449.348 288.07 449.69C286.688 450.455 285.187 450.982 283.63 451.25C282.134 451.282 280.678 450.763 279.54 449.79C278.546 448.961 277.494 448.206 276.39 447.53C275.878 447.253 275.324 447.061 274.75 446.96C274.207 446.894 273.657 446.915 273.12 447.02C271.349 447.558 269.639 448.282 268.02 449.18C266.968 449.75 265.773 450.004 264.58 449.91C264.37 449.91 264.2 449.85 264.05 449.81L263.69 449.66C263.561 449.654 263.433 449.631 263.31 449.59Z" fill="#FAFAFA"/>
<path d="M265.78 277.65C265.78 277.65 266.08 278.01 266.78 278.55C267.795 279.31 268.973 279.824 270.22 280.05C272.203 280.39 274.226 280.431 276.22 280.17C277.39 280.08 278.65 279.96 280 279.98C281.434 279.971 282.858 280.225 284.2 280.73C285.622 281.37 287.005 282.095 288.34 282.9C289.054 283.296 289.8 283.63 290.57 283.9C291.373 284.141 292.203 284.275 293.04 284.3C294.827 284.292 296.607 284.091 298.35 283.7C300.241 283.269 302.186 283.12 304.12 283.26C306.137 283.619 308.052 284.415 309.73 285.59C311.41 286.788 313.315 287.635 315.33 288.08C316.371 288.194 317.424 288.123 318.44 287.87C319.47 287.573 320.473 287.192 321.44 286.73C323.425 285.669 325.5 284.786 327.64 284.09C328.766 283.799 329.938 283.731 331.09 283.89C332.214 284.099 333.294 284.502 334.28 285.08C336.23 286.18 337.89 287.6 339.8 288.48C341.68 289.325 343.771 289.583 345.8 289.22C347.768 288.878 349.704 288.377 351.59 287.72C353.416 287.104 355.294 286.652 357.2 286.37C359.019 286.158 360.862 286.274 362.64 286.71C365.756 287.615 368.804 288.741 371.76 290.08C374.19 291.153 376.857 291.577 379.5 291.31C381.5 291.143 383.46 290.65 385.3 289.85C386.878 289.175 388.28 288.149 389.4 286.85C389.149 287.212 388.861 287.547 388.54 287.85C387.625 288.753 386.554 289.485 385.38 290.01C383.528 290.845 381.552 291.372 379.53 291.57C378.267 291.709 376.993 291.709 375.73 291.57C374.318 291.379 372.938 290.996 371.63 290.43C368.682 289.119 365.645 288.02 362.54 287.14C360.81 286.719 359.018 286.614 357.25 286.83C355.375 287.128 353.529 287.583 351.73 288.19C349.824 288.857 347.868 289.372 345.88 289.73C343.754 290.103 341.564 289.835 339.59 288.96C337.59 288.04 335.93 286.6 334.03 285.54C333.102 284.994 332.088 284.612 331.03 284.41C329.948 284.262 328.846 284.33 327.79 284.61C325.68 285.296 323.635 286.17 321.68 287.22C320.674 287.692 319.63 288.08 318.56 288.38C317.482 288.649 316.364 288.72 315.26 288.59C313.175 288.139 311.204 287.264 309.47 286.02C307.853 284.88 306.007 284.106 304.06 283.75C300.21 283.33 296.59 284.92 293.06 284.75C292.184 284.717 291.316 284.566 290.48 284.3C289.689 284.035 288.922 283.701 288.19 283.3C286.874 282.495 285.511 281.767 284.11 281.12C281.37 280.03 278.6 280.37 276.28 280.51C274.265 280.75 272.224 280.679 270.23 280.3C268.963 280.047 267.776 279.491 266.77 278.68C266.39 278.389 266.056 278.042 265.78 277.65Z" fill="#FAFAFA"/>
<g opacity="0.3">
<path d="M340.79 289.15L354.91 298.92C350.42 310.05 354.57 325.5 358.47 338.14C359.98 343.06 364.99 348.14 364.74 353.32C364.49 358.5 368.81 367.2 363.83 368.5C360.53 369.37 356.94 368.24 354.19 366.22C351.529 364.067 349.303 361.427 347.63 358.44C337.71 342.4 333.08 311.72 340.79 289.15Z" fill="black"/>
</g>
<path d="M266.46 441.08C266.642 441.073 266.824 441.093 267 441.14L268.52 441.42L274.1 442.48C278.81 443.37 285.34 444.48 292.58 445.48C299.82 446.48 306.41 447.18 311.18 447.62L316.84 448.12L318.38 448.27C318.56 448.275 318.738 448.305 318.91 448.36C318.731 448.381 318.549 448.381 318.37 448.36L316.83 448.31C315.48 448.25 313.55 448.14 311.15 447.97C306.37 447.62 299.76 446.97 292.51 445.97C285.26 444.97 278.73 443.76 274.03 442.78C271.68 442.3 269.78 441.87 268.48 441.56L266.98 441.18C266.803 441.167 266.629 441.133 266.46 441.08Z" fill="#263238"/>
<path d="M288.44 438.47C288.72 438.516 288.997 438.576 289.27 438.65C289.81 438.77 290.59 439.03 291.63 439.22C294.532 439.87 297.488 440.252 300.46 440.36C304.864 440.541 309.273 440.134 313.57 439.15C324.195 436.805 333.689 430.877 340.46 422.36C345.105 416.594 348.421 409.875 350.17 402.68C350.44 401.68 350.55 400.85 350.69 400.31C350.729 400.031 350.796 399.756 350.89 399.49C350.879 399.772 350.846 400.053 350.79 400.33C350.69 400.88 350.61 401.7 350.36 402.73C349.736 405.655 348.828 408.512 347.65 411.26C345.904 415.349 343.613 419.184 340.84 422.66C336.026 428.665 329.851 433.437 322.825 436.58C315.799 439.722 308.125 441.145 300.44 440.73C297.451 440.587 294.483 440.148 291.58 439.42C290.58 439.19 289.77 438.9 289.24 438.75C288.964 438.686 288.696 438.592 288.44 438.47Z" fill="#263238"/>
<path d="M297.3 262.69C297.328 262.933 297.328 263.178 297.3 263.42C297.3 263.94 297.3 264.62 297.3 265.48C297.236 267.999 297.491 270.516 298.06 272.97C298.477 274.647 299.21 276.228 300.22 277.63C301.411 279.209 302.938 280.503 304.69 281.42C306.631 282.456 308.713 283.2 310.87 283.63C313.167 284.141 315.518 284.369 317.87 284.31C322.452 284.262 326.939 282.995 330.87 280.64C334.047 278.673 336.626 275.876 338.33 272.55C339.469 270.303 340.129 267.845 340.27 265.33C340.34 263.55 340.15 262.57 340.22 262.56C340.28 262.793 340.323 263.031 340.35 263.27C340.443 263.956 340.486 264.648 340.48 265.34C340.415 267.9 339.794 270.414 338.66 272.71C336.967 276.134 334.357 279.021 331.12 281.05C327.13 283.475 322.56 284.781 317.89 284.83C315.49 284.889 313.093 284.654 310.75 284.13C308.549 283.681 306.426 282.909 304.45 281.84C302.637 280.871 301.068 279.503 299.86 277.84C298.833 276.388 298.097 274.751 297.69 273.02C297.149 270.532 296.943 267.983 297.08 265.44C297.08 264.54 297.16 263.84 297.2 263.37C297.209 263.14 297.242 262.912 297.3 262.69Z" fill="#263238"/>
<path d="M291.19 264.43C291.19 264.43 266.86 265.36 261.08 289.65C254.39 317.8 258.43 348.82 266.84 364.36L267.23 336.68C267.508 317.471 272.133 298.575 280.76 281.41L291.19 264.43Z" fill="#455A64"/>
<path d="M262.59 344.3C262.544 344.019 262.524 343.735 262.53 343.45C262.53 342.85 262.53 342.04 262.45 341.02C262.37 340 262.39 338.67 262.45 337.17C262.51 335.67 262.45 333.95 262.62 332.07C262.68 331.117 262.74 330.117 262.8 329.07C262.87 328.07 263 326.98 263.1 325.87C263.29 323.65 263.65 321.3 263.99 318.87C264.854 313.511 266.01 308.203 267.45 302.97C268.952 297.755 270.742 292.627 272.81 287.61C273.81 285.31 274.73 283.12 275.74 281.13C276.23 280.13 276.67 279.13 277.15 278.24C277.63 277.35 278.1 276.45 278.55 275.62C279.41 273.94 280.32 272.48 281.07 271.18C281.82 269.88 282.51 268.79 283.07 267.9L284.41 265.9C284.555 265.655 284.722 265.424 284.91 265.21C284.79 265.469 284.653 265.719 284.5 265.96L283.26 268C282.7 268.9 282.03 270 281.31 271.32C280.59 272.64 279.7 274.09 278.86 275.78L277.5 278.41C277.03 279.33 276.6 280.31 276.12 281.31C275.12 283.31 274.23 285.49 273.25 287.78C269.122 297.791 266.172 308.248 264.46 318.94C264.1 321.4 263.72 323.74 263.52 325.94C263.41 327.05 263.27 328.11 263.19 329.14C263.11 330.17 263.04 331.14 262.98 332.09C262.81 333.97 262.79 335.68 262.73 337.17C262.67 338.66 262.65 339.96 262.65 341.02C262.65 342.08 262.65 342.85 262.65 343.45C262.654 343.735 262.634 344.019 262.59 344.3Z" fill="#263238"/>
<path d="M273.72 270.59C273.65 270.817 273.552 271.036 273.43 271.24C273.19 271.7 272.89 272.31 272.5 273.06C271.67 274.62 270.55 276.93 269.24 279.81C268.61 281.27 267.88 282.81 267.24 284.58C266.91 285.45 266.53 286.34 266.24 287.27C265.95 288.2 265.58 289.17 265.24 290.16C263.805 294.462 262.629 298.847 261.72 303.29C260.166 311.393 259.412 319.629 259.47 327.88C259.47 331.05 259.55 333.61 259.64 335.38C259.64 336.23 259.7 336.91 259.71 337.43C259.741 337.666 259.741 337.904 259.71 338.14C259.661 337.906 259.631 337.669 259.62 337.43C259.62 336.92 259.52 336.24 259.45 335.43C259.3 333.66 259.18 331.09 259.11 327.92C258.945 319.636 259.653 311.357 261.22 303.22C262.109 298.743 263.281 294.328 264.73 290C265.08 289 265.42 288.05 265.73 287.11C266.04 286.17 266.46 285.29 266.8 284.42C267.47 282.68 268.23 281.11 268.88 279.66C270.23 276.79 271.41 274.5 272.3 272.96L273.3 271.19C273.421 270.977 273.561 270.776 273.72 270.59Z" fill="#263238"/>
<path d="M369.8 273.8C369.8 273.8 353.45 318.28 365.5 355.8L366.16 369.07C366.16 369.07 356.94 368.44 349.97 355.28C343 342.12 340.74 328.52 338.38 308.93C336.02 289.34 346.75 264.4 346.75 264.4C346.75 264.4 365.79 268.6 369.8 273.8Z" fill="#455A64"/>
<path d="M366.59 368C366.505 367.97 366.425 367.93 366.35 367.88L365.67 367.5C364.825 366.967 364.04 366.344 363.33 365.64C360.821 362.925 359.039 359.619 358.15 356.03C357.449 353.599 356.915 351.124 356.55 348.62C356.08 345.93 355.7 343.05 355.36 340C354.643 333.392 354.356 326.745 354.5 320.1C354.64 313.453 355.217 306.821 356.23 300.25C357.004 294.876 358.14 289.561 359.63 284.34C360.633 280.811 362.039 277.408 363.82 274.2C364.306 273.33 364.837 272.486 365.41 271.67L365.86 271.05L366.03 270.84C366.03 270.84 366.03 270.93 365.91 271.08L365.49 271.73C365.13 272.31 364.61 273.16 363.99 274.3C362.3 277.528 360.959 280.927 359.99 284.44C358.559 289.658 357.464 294.962 356.71 300.32C355.724 306.881 355.153 313.497 355 320.13C354.86 326.754 355.131 333.38 355.81 339.97C356.14 342.97 356.51 345.89 356.95 348.57C357.312 351.077 357.829 353.558 358.5 356C359.357 359.552 361.074 362.839 363.5 365.57C364.44 366.488 365.476 367.303 366.59 368Z" fill="#263238"/>
<path d="M366 367.56C365.905 367.546 365.814 367.515 365.73 367.47L364.95 367.15C363.988 366.678 363.07 366.119 362.21 365.48C359.138 362.977 356.604 359.878 354.76 356.37C351.894 351.266 349.501 345.91 347.61 340.37C345.294 333.598 343.709 326.599 342.88 319.49C342.054 312.378 341.967 305.2 342.62 298.07C343.163 292.251 344.221 286.492 345.78 280.86C346.49 278.47 347.09 276.29 347.78 274.45C348.47 272.61 349.01 270.98 349.61 269.72C350.21 268.46 350.61 267.49 350.91 266.79C351.06 266.48 351.17 266.23 351.26 266.03C351.299 265.943 351.346 265.859 351.4 265.78C351.384 265.874 351.354 265.965 351.31 266.05L351.01 266.83C350.72 267.54 350.31 268.53 349.8 269.83C349.29 271.13 348.71 272.73 348.05 274.59C347.39 276.45 346.78 278.59 346.1 281C344.605 286.619 343.601 292.357 343.1 298.15C342.471 305.248 342.571 312.392 343.4 319.47C344.21 326.537 345.751 333.501 348 340.25C349.865 345.757 352.207 351.091 355 356.19C356.801 359.675 359.263 362.776 362.25 365.32C363.092 365.971 363.984 366.553 364.92 367.06L365.67 367.42L366 367.56Z" fill="#263238"/>
<path d="M358.23 290.64L368.83 293.43L367.29 297.14L357.32 295.15L358.23 290.64Z" fill="#263238"/>
<path d="M358.47 294.19C358.884 293.532 359.385 292.933 359.96 292.41L360.14 292.22L360.28 292.44C360.69 293.08 361.12 293.75 361.56 294.44L361.22 294.35L362.4 293.68C362.81 293.45 363.21 293.22 363.61 293.01L363.83 292.88L363.95 293.1L365.1 295.21L364.83 295.14C365.481 294.745 366.18 294.436 366.91 294.22C366.339 294.725 365.704 295.152 365.02 295.49L364.85 295.59L364.75 295.41C364.35 294.76 363.94 294.07 363.51 293.35L363.86 293.45L362.65 294.13L361.47 294.79L361.25 294.91L361.13 294.7L359.93 292.64H360.25C359.722 293.227 359.124 293.747 358.47 294.19Z" fill="#4EB3E2"/>
<path d="M271.39 354.19L259.86 332.9H224.75L223.64 335.01L253.36 384.42L287 386.04L271.39 354.19Z" fill="#455A64"/>
<path d="M405.24 365.93V403.14C405.238 406.494 404.49 409.806 403.051 412.836C401.612 415.866 399.518 418.538 396.92 420.66C393.772 423.227 389.991 424.9 385.974 425.502C381.957 426.103 377.852 425.612 374.09 424.08L292.17 387.77L300.17 360.45L366.07 382.17L366 365.23L405.24 365.93Z" fill="#FFBE9D"/>
<path d="M270.28 356.3L258.74 335.01H223.64L252.24 386.53L285.88 388.15L270.28 356.3Z" fill="#263238"/>
<path d="M303.42 363.38L297.87 356.49C296.065 354.249 293.781 352.44 291.185 351.198C288.589 349.955 285.748 349.31 282.87 349.31H278L274.71 353C274.71 353 250.97 354 250.1 357V357.94V358.5L270.41 359.86C270.41 359.86 253.14 359.81 252.1 359.86C251.06 359.91 247.28 359.57 247.36 361.59C247.42 363.26 249.36 364.59 252.36 365.01C253.58 365.19 268.55 366.49 268.55 366.49L252.08 366.33C250.23 366.33 250.46 369.33 251.56 369.66C252.43 369.95 273.56 376.11 273.56 376.11C273.56 376.11 270.01 378.48 267.12 378.28C264.23 378.08 259.26 374.35 258.23 376.11C257.2 377.87 257.4 378.9 258.02 379.31C258.64 379.72 265.46 383.24 267.74 383.86C270.02 384.48 288.59 387.42 288.59 387.42L295.29 388.5L303.42 363.38Z" fill="#FFBE9D"/>
<path d="M228.55 343.32C228.55 343.32 224.88 344.6 226.74 349.32C228.519 353.656 231.04 357.649 234.19 361.12C234.026 361.891 234.076 362.691 234.335 363.435C234.594 364.179 235.053 364.838 235.66 365.34C235.66 365.34 233.06 365.99 234.66 370.34C234.415 370.968 234.301 371.64 234.325 372.314C234.349 372.987 234.511 373.649 234.8 374.258C235.089 374.867 235.501 375.41 236.008 375.854C236.515 376.298 237.108 376.634 237.75 376.84C237.75 376.84 236.45 380.58 241.16 382.36C245.87 384.14 250.42 381.06 250.42 381.06L228.55 343.32Z" fill="#FFBE9D"/>
<path d="M236 360.75C239.34 361.65 243 362.37 246.09 363.54C247.09 363.92 248.09 363.94 248.79 364.79C249.152 365.203 249.356 365.73 249.367 366.279C249.378 366.828 249.195 367.363 248.85 367.79C248.465 368.077 248.022 368.275 247.552 368.37C247.081 368.465 246.596 368.455 246.13 368.34C242.587 367.773 239.119 366.81 235.79 365.47" fill="#FFBE9D"/>
<path d="M237.33 366.32C240.66 367.22 244.33 367.93 247.41 369.11C248.41 369.49 249.41 369.51 250.11 370.36C250.472 370.773 250.677 371.3 250.688 371.849C250.699 372.398 250.515 372.933 250.17 373.36C249.784 373.644 249.341 373.841 248.871 373.936C248.401 374.031 247.916 374.022 247.45 373.91C243.907 373.325 240.439 372.349 237.11 371" fill="#FFBE9D"/>
<path d="M239.22 372.05C242.56 372.95 246.22 373.66 249.31 374.83C250.31 375.22 251.31 375.24 252 376.09C252.364 376.502 252.569 377.03 252.58 377.579C252.591 378.128 252.407 378.664 252.06 379.09C251.677 379.376 251.235 379.572 250.766 379.666C250.297 379.759 249.813 379.747 249.35 379.63C245.803 379.06 242.331 378.094 239 376.75" fill="#FFBE9D"/>
<path d="M236 365.57C236 365.43 238.41 366.25 241.37 367.07C244.33 367.89 246.76 368.42 246.74 368.56C244.865 368.49 243.01 368.153 241.23 367.56C239.404 367.138 237.645 366.468 236 365.57Z" fill="#EB996E"/>
<path d="M235.36 370.48C237.422 370.955 239.458 371.535 241.46 372.22C244.82 373.22 247.57 373.91 247.54 374.05C243.328 373.459 239.225 372.257 235.36 370.48Z" fill="#EB996E"/>
<path d="M237.55 376.8C239.491 377.016 241.408 377.405 243.28 377.96C245.195 378.355 247.072 378.914 248.89 379.63C246.95 379.414 245.032 379.026 243.16 378.47C241.244 378.084 239.366 377.525 237.55 376.8Z" fill="#EB996E"/>
<path d="M233.22 360.07C233.22 359.92 236.22 360.92 239.95 361.88C243.68 362.84 246.73 363.4 246.71 363.56C246.039 363.585 245.367 363.528 244.71 363.39C243.081 363.139 241.465 362.806 239.87 362.39C238.268 361.985 236.689 361.495 235.14 360.92C234.464 360.726 233.818 360.44 233.22 360.07Z" fill="#EB996E"/>
<path d="M266.63 353.32C269.411 353.04 272.206 352.933 275 353C277.779 352.898 280.561 352.968 283.33 353.21C280.563 353.488 277.781 353.592 275 353.52C272.209 353.631 269.413 353.564 266.63 353.32Z" fill="#EB996E"/>
<path d="M241.46 344C241.731 344.217 242.061 344.349 242.408 344.379C242.754 344.409 243.102 344.336 243.407 344.168C243.711 344.001 243.96 343.747 244.12 343.439C244.281 343.13 244.347 342.781 244.309 342.435C244.271 342.09 244.132 341.763 243.909 341.496C243.686 341.229 243.388 341.035 243.055 340.937C242.721 340.839 242.366 340.842 242.034 340.946C241.702 341.05 241.408 341.25 241.19 341.52C241.044 341.7 240.936 341.908 240.871 342.13C240.805 342.353 240.785 342.586 240.81 342.816C240.835 343.047 240.905 343.27 241.017 343.473C241.128 343.676 241.279 343.855 241.46 344Z" fill="#EBEBEB"/>
<path d="M361.8 381.21C362.073 381.186 362.349 381.217 362.61 381.3C363.338 381.43 364.057 381.61 364.76 381.84C369.45 383.34 373.585 386.21 376.63 390.08C377.09 390.658 377.511 391.266 377.89 391.9C378.16 392.35 378.29 392.6 378.26 392.62C378.23 392.64 377.55 391.71 376.34 390.31C373.198 386.648 369.17 383.853 364.64 382.19C362.9 381.55 361.78 381.29 361.8 381.21Z" fill="#EB996E"/>
<path d="M317.11 282.64C311.91 282.225 307.076 279.8 303.635 275.879C300.194 271.958 298.416 266.85 298.68 261.64C299.05 254.04 299.45 247.19 299.45 247.19C299.45 247.19 283.15 244.65 282.95 228.37C282.75 212.09 285.58 174.67 285.58 174.67C294.84 170.692 304.994 169.259 314.993 170.517C324.993 171.776 334.475 175.681 342.46 181.83L344.87 183.68L338.7 264.17C338.499 266.802 337.781 269.368 336.586 271.722C335.392 274.076 333.744 276.17 331.739 277.886C329.733 279.602 327.408 280.905 324.898 281.721C322.388 282.537 319.741 282.849 317.11 282.64Z" fill="#FFBE9D"/>
<path d="M299.42 247C306.936 247.152 314.326 245.063 320.65 241C320.65 241 315.65 252.72 299.38 251.25L299.42 247Z" fill="#EB996E"/>
<path d="M289.6 200.21C289.592 200.817 289.822 201.403 290.241 201.842C290.66 202.281 291.234 202.539 291.84 202.56C292.136 202.583 292.434 202.547 292.716 202.453C292.998 202.36 293.259 202.211 293.482 202.015C293.706 201.819 293.888 201.581 294.018 201.314C294.148 201.047 294.224 200.757 294.24 200.46C294.243 199.855 294.012 199.272 293.594 198.833C293.176 198.395 292.605 198.136 292 198.11C291.704 198.087 291.406 198.123 291.124 198.217C290.842 198.31 290.582 198.459 290.358 198.655C290.135 198.851 289.953 199.089 289.822 199.356C289.692 199.623 289.617 199.913 289.6 200.21Z" fill="#263238"/>
<path d="M288.66 197.6C288.95 197.9 290.66 196.6 293.21 196.6C295.76 196.6 297.55 197.86 297.82 197.6C297.95 197.46 297.66 196.91 296.82 196.33C295.736 195.581 294.448 195.184 293.13 195.19C291.83 195.188 290.563 195.598 289.51 196.36C288.78 196.91 288.52 197.46 288.66 197.6Z" fill="#263238"/>
<path d="M313.2 200.8C313.195 201.406 313.425 201.991 313.844 202.429C314.262 202.868 314.835 203.127 315.44 203.15C315.737 203.174 316.035 203.139 316.318 203.046C316.6 202.953 316.861 202.804 317.085 202.608C317.309 202.412 317.491 202.173 317.621 201.906C317.751 201.638 317.825 201.347 317.84 201.05C317.846 200.444 317.615 199.859 317.197 199.421C316.779 198.982 316.206 198.723 315.6 198.7C315.304 198.675 315.005 198.711 314.723 198.804C314.44 198.897 314.179 199.046 313.956 199.242C313.732 199.438 313.549 199.676 313.42 199.944C313.29 200.212 313.215 200.503 313.2 200.8Z" fill="#263238"/>
<path d="M313.26 198.07C313.55 198.37 315.32 197.07 317.82 197.07C320.32 197.07 322.15 198.33 322.43 198.07C322.56 197.94 322.27 197.39 321.43 196.81C320.348 196.057 319.058 195.658 317.74 195.67C316.437 195.665 315.165 196.075 314.11 196.84C313.38 197.38 313.12 197.93 313.26 198.07Z" fill="#263238"/>
<path d="M304.18 216.63C304.18 216.49 302.63 216.22 300.11 215.9C299.47 215.83 298.87 215.7 298.76 215.27C298.707 214.608 298.857 213.945 299.19 213.37L301.08 208.5C303.7 201.57 305.6 195.88 305.32 195.77C305.04 195.66 302.69 201.2 300.06 208.13C299.433 209.837 298.83 211.47 298.25 213.03C297.853 213.803 297.736 214.69 297.92 215.54C298.012 215.765 298.154 215.967 298.336 216.128C298.518 216.289 298.735 216.406 298.97 216.47C299.325 216.568 299.692 216.618 300.06 216.62C302.6 216.76 304.17 216.77 304.18 216.63Z" fill="#263238"/>
<path d="M311.55 218.36C311.14 218.36 311.13 221.05 308.81 222.98C306.49 224.91 303.59 224.61 303.57 224.98C303.57 225.15 304.21 225.51 305.44 225.54C307.031 225.564 308.578 225.026 309.81 224.02C310.996 223.053 311.757 221.661 311.93 220.14C312 219 311.73 218.34 311.55 218.36Z" fill="#263238"/>
<path d="M312.62 188.26C312.86 188.94 315.36 188.61 318.3 188.97C321.24 189.33 323.61 190.12 324 189.51C324.17 189.22 323.76 188.58 322.8 187.92C321.531 187.097 320.085 186.59 318.58 186.44C317.076 186.262 315.552 186.44 314.13 186.96C313.05 187.4 312.51 187.93 312.62 188.26Z" fill="#263238"/>
<path d="M289.58 190.35C290.02 190.92 291.74 190.35 293.82 190.35C295.9 190.35 297.65 190.74 298.05 190.14C298.23 189.85 297.95 189.28 297.18 188.75C296.152 188.1 294.953 187.773 293.738 187.81C292.522 187.848 291.346 188.248 290.36 188.96C289.63 189.49 289.38 190.08 289.58 190.35Z" fill="#263238"/>
<path d="M342.87 200.56C343.14 200.44 354.06 197.25 353.7 208.39C353.34 219.53 342.24 216.87 342.23 216.55C342.22 216.23 342.87 200.56 342.87 200.56Z" fill="#FFBE9D"/>
<path d="M345.77 212.44C345.82 212.44 345.96 212.58 346.28 212.74C346.734 212.956 347.255 212.985 347.73 212.82C348.92 212.43 349.97 210.59 350.09 208.59C350.151 207.634 349.993 206.676 349.63 205.79C349.538 205.438 349.361 205.114 349.115 204.846C348.87 204.577 348.562 204.373 348.22 204.25C347.999 204.187 347.762 204.203 347.551 204.294C347.34 204.385 347.166 204.546 347.06 204.75C346.9 205.06 346.96 205.28 346.9 205.3C346.84 205.32 346.67 205.1 346.77 204.65C346.848 204.375 347.013 204.133 347.24 203.96C347.554 203.741 347.941 203.651 348.32 203.71C348.779 203.814 349.204 204.035 349.554 204.35C349.904 204.665 350.168 205.064 350.32 205.51C350.762 206.488 350.958 207.559 350.89 208.63C350.75 210.87 349.53 212.94 347.89 213.35C347.588 213.427 347.272 213.435 346.965 213.375C346.659 213.314 346.37 213.186 346.12 213C345.78 212.71 345.73 212.46 345.77 212.44Z" fill="#EB996E"/>
<path d="M279.34 160.61C280.529 158.265 282.239 156.224 284.339 154.642C286.439 153.06 288.873 151.98 291.455 151.484C294.037 150.987 296.698 151.089 299.235 151.78C301.772 152.471 304.117 153.733 306.09 155.47C307.327 153.004 309.149 150.88 311.398 149.283C313.647 147.685 316.253 146.664 318.989 146.309C321.724 145.954 324.505 146.275 327.087 147.244C329.67 148.214 331.975 149.802 333.8 151.87C336.92 155.41 338.54 160.22 342.2 163.2C345.36 165.77 349.66 166.63 352.84 169.2C354.604 170.616 355.944 172.491 356.712 174.618C357.48 176.746 357.646 179.044 357.192 181.261C356.738 183.477 355.682 185.525 354.14 187.179C352.598 188.834 350.629 190.032 348.45 190.64C351.95 196.94 348.67 205.97 341.95 208.57L340.33 207.9C337.301 204.445 335.368 200.168 334.775 195.611C334.182 191.055 334.956 186.425 337 182.31C336.804 182.32 336.607 182.32 336.41 182.31C333.606 183.869 330.326 184.335 327.199 183.621C324.071 182.907 321.319 181.061 319.47 178.44C317.213 180.014 314.554 180.911 311.805 181.026C309.056 181.141 306.331 180.47 303.95 179.09C303.256 178.572 302.457 178.21 301.61 178.03C300.575 178.044 299.564 178.345 298.69 178.9C296.282 180.206 293.537 180.76 290.81 180.49C289.548 180.337 288.345 179.87 287.31 179.131C286.276 178.392 285.444 177.404 284.89 176.26C284.827 176.265 284.763 176.265 284.7 176.26C283.14 175.905 281.708 175.129 280.558 174.016C279.409 172.904 278.586 171.497 278.18 169.95C277.393 166.801 277.807 163.471 279.34 160.61Z" fill="#263238"/>
</svg>
